<?xml version="1.0" encoding="UTF-8" standalone="no"?>
<!-- Created with Inkscape (http://www.inkscape.org/) -->

<svg
   xmlns:dc="http://purl.org/dc/elements/1.1/"
   xmlns:cc="http://creativecommons.org/ns#"
   xmlns:rdf="http://www.w3.org/1999/02/22-rdf-syntax-ns#"
   xmlns:svg="http://www.w3.org/2000/svg"
   xmlns="http://www.w3.org/2000/svg"
   xmlns:sodipodi="http://sodipodi.sourceforge.net/DTD/sodipodi-0.dtd"
   xmlns:inkscape="http://www.inkscape.org/namespaces/inkscape"
   version="1.1"
   width="160"
   height="210"
   id="svg2"
   sodipodi:docname="Regions_of_Japan_2.svg"
   inkscape:export-filename="/home/qwerty9118/Desktop/apps/eclipse-workspace/sakura_cast/android/assets/jpnTemp2.png"
   inkscape:export-xdpi="96"
   inkscape:export-ydpi="96"
   inkscape:version="0.92.5 (2060ec1f9f, 2020-04-08)">
  <sodipodi:namedview
     pagecolor="#ffffff"
     bordercolor="#666666"
     borderopacity="1"
     objecttolerance="10"
     gridtolerance="10"
     guidetolerance="10"
     inkscape:pageopacity="0"
     inkscape:pageshadow="2"
     inkscape:window-width="1280"
     inkscape:window-height="736"
     id="namedview375"
     showgrid="false"
     inkscape:zoom="2.8284271"
     inkscape:cx="61.35865"
     inkscape:cy="77.381781"
     inkscape:window-x="0"
     inkscape:window-y="0"
     inkscape:window-maximized="1"
     inkscape:current-layer="svg2"
     fit-margin-top="0"
     fit-margin-left="0"
     fit-margin-right="0"
     fit-margin-bottom="0" />
  <defs
     id="defs4" />
  <metadata
     id="metadata7">
    <rdf:RDF>
      <cc:Work
         rdf:about="">
        <dc:format>image/svg+xml</dc:format>
        <dc:type
           rdf:resource="http://purl.org/dc/dcmitype/StillImage" />
        <dc:title></dc:title>
      </cc:Work>
    </rdf:RDF>
  </metadata>
  <g
     id="g896"
     transform="translate(-238.10916,-353.88508)">
    <g
       id="g2985">
      <path
         style="fill:#79efdb;fill-opacity:1"
         d="m 379.54102,357.89648 c -0.4387,1.10717 -0.9668,2.17818 -1.58008,2.95508 -0.79147,1.00258 -0.45589,6.81957 -0.52735,9.625 -0.17523,6.87169 -5.49522,15.28446 -11.1289,18.04492 -2.38637,1.16921 -10.16001,8.39983 -10.82813,13.76172 -0.17464,1.40167 -1.12534,4.04574 -2.85742,6.54102 -1.22288,1.76174 -2.03669,5.18534 -2.55469,6.76758 -0.62276,1.90188 -1.38927,4.1579 -2.63281,5.64062 -1.33279,1.58897 -3.01225,4.03489 -4.73633,5.1875 -1.2975,0.86748 -3.03016,2.14106 -4.21093,3.3086 -1.078,1.06583 -2.67281,2.39751 -4.06055,3.00781 -1.38478,0.60912 -2.91226,1.69104 -3.75977,2.63086 -1.13136,1.25461 -3.38246,1.92006 -4.8125,3.23437 -1.81658,1.66951 -3.49199,1.93602 -7.14453,3.15821 -1.78654,0.59766 -4.86423,0.0949 -6.31641,1.20312 -0.81312,0.62049 -2.10317,2.26004 -3.08203,2.55664 -0.56543,0.17138 -1.73877,1.42747 -1.73047,2.93164 0.0138,2.54954 -2.33901,5.63118 -6.6914,5.03906 -4.78005,-0.65034 -8.12498,-8.51808 -6.76758,-9.92578 1.94032,-2.01208 1.06389,-3.5436 -1.80469,-4.21093 -3.15026,-0.73296 -1.14762,-4.10059 1.05274,-5.26368 2.0867,-1.10319 5.85193,-3.29661 7.36914,-5.86523 0.41362,-0.70035 1.66887,-2.83487 2.33008,-3.30859 0.76854,-0.55061 2.04655,-5.03233 0.82812,-6.76758 -1.86442,-2.65529 -7.41833,-0.78851 -8.72265,1.65429 -0.74136,1.38853 -1.79694,3.50174 -7.36915,4.06055 -1.54093,0.15458 -4.73924,2.37322 -5.71484,3.75977 -0.71803,1.02057 -1.81939,2.28114 -2.70703,3.1582 -3.21094,3.17299 -1.07567,7.18854 0.60156,10.37695 1.36847,2.60153 3.10543,16.14724 -0.22461,21.05469 -0.82972,1.22288 -1.73226,3.28508 -2.55664,4.51172 -2.66261,3.9617 -6.59595,8.92044 -9.40039,12.7832 -1.46365,2.01584 -3.77394,4.50318 -4.8125,6.76758 -1.18335,2.57999 -3.10388,4.65737 -4.73633,6.39063 -2.76085,2.93154 -1.05164,5.79212 1.87891,9.09765 1.37538,1.55121 5.71659,7.67771 -2.0293,11.88086 -1.15953,0.62918 -3.90605,0.16354 -4.96289,3.45899 -0.38971,1.21508 -1.71322,2.4628 -2.7832,3.1582 -1.05388,0.68483 -2.52252,0.83332 -3.91016,1.5039 -0.86784,0.41937 -2.17952,0.96925 -3.46875,0.4336 -0.31774,1.53482 0.57164,3.07893 2.34375,4.16797 1.79803,1.10497 4.46176,1.64704 7.3711,1.04297 2.26085,-1.70433 3.61242,-2.58957 4.6289,-3.82618 0.99966,-1.2161 2.11418,-1.58128 2.91016,-2.05468 1.12983,-0.67202 1.87476,-0.82672 2.6543,-1.79102 2.37404,-2.93656 3.64892,-3.44109 4.80273,-4.63672 1.70727,-1.76939 2.18495,-2.5664 3.24805,-4.125 l 0.42578,-0.62695 0.4082,0.64062 c 1.34377,2.1056 3.53123,5.11426 4.7207,9.01172 0.4177,1.36869 0.91612,1.93701 1.42188,2.48828 0.50576,0.55128 1.06796,1.13454 1.28906,2.24219 0.79747,3.99428 1.56404,6.66306 2.9961,8.17774 1.43205,1.51467 3.59813,2.0557 7.58593,1.67578 l 0.4043,-0.0371 0.12109,0.38476 c 0.557,1.76674 1.43807,2.63625 2.36914,3.49024 0.93073,0.85366 1.94492,1.69954 2.44336,3.26562 3.46044,-1.14546 4.1753,-1.68586 3.81055,3.38672 -0.12186,1.69452 0.16539,4.11565 1.05274,5.56445 3.37808,5.51568 3.1087,2.81964 8.87304,0.90235 0.96582,-0.32122 2.29485,-0.66053 3.3086,-0.75195 7.02617,-0.63333 3.45335,3.48185 1.80468,4.51171 -10.80769,6.75052 -3.32773,4.52936 1.50391,2.70704 3.00379,-1.13304 11.85152,-2.99849 12.70703,-3.15821 6.42407,-1.19956 17.33446,0.10703 23.83789,-0.75195 2.55143,-0.33702 4.42294,1.14641 5.11133,-4.58789 0.10792,-0.899 -0.19608,-3.11011 2.7832,-5.93945 1.46888,-1.39486 2.40516,-4.24837 2.48047,-7.66993 0.0445,-2.01613 1.68688,-4.36454 3.45899,-4.96289 1.27289,-0.42983 3.09839,-1.94019 5.64062,-3.08203 2.56437,-1.15172 6.22083,-1.49312 5.93945,4.28516 -0.085,1.75076 0.0247,6.36125 -0.15039,9.32422 -0.26616,4.51438 4.35691,10.95107 6.31641,5.86523 0.47984,-1.24542 -0.78398,-2.36496 2.55664,-4.36133 1.15143,-0.68819 1.99017,-2.42251 3.1582,-3.08203 1.40158,-0.79137 2.81391,-2.47412 2.55664,-5.33984 -0.1613,-1.79751 -0.0939,-4.21338 0,-6.01563 0.0919,-1.76114 -1.02193,-3.11099 -2.17968,-4.28515 -0.39426,-0.53079 -0.65879,-1.09469 -0.83399,-1.69336 -3.70714,-0.0817 -6.54876,-2.84128 -6.57226,-6.23047 -0.009,-1.3277 0.47619,-2.74589 -1.63282,-4.78711 -0.26972,-0.26106 -0.61328,-0.39895 -1.09179,-0.49023 -0.47851,-0.0913 -1.07379,-0.12421 -1.7461,-0.19141 l -0.36133,-0.0352 -0.0762,-0.35351 c -0.1092,-0.49697 0.006,-1.01997 0.23438,-1.56641 0.2281,-0.54644 0.58398,-1.11591 1.04492,-1.6543 0.92188,-1.07678 2.27303,-2.04146 3.88867,-2.26367 1.50214,-0.2066 3.1826,-1.44201 3.97266,-3.04101 0.79005,-1.59901 0.78469,-3.48518 -1.0293,-5.28907 -0.95341,-0.94809 -2.47703,-1.33746 -4.11719,-2.30273 -4.17511,-1.03443 -7.47698,-2.37641 -10.07031,-4.64063 -2.6382,-2.30332 -4.60977,-4.28565 -6.76758,-6.01757 -2.23831,-1.79661 -3.61277,-4.38804 -3.08008,-8.98633 0.19059,-1.64556 0.31974,-3.58562 -0.0332,-5.06446 -0.17647,-0.73939 -0.46712,-1.35264 -0.89648,-1.7871 -0.42936,-0.43447 -0.99895,-0.71725 -1.85742,-0.77735 -4.58248,-0.318 -6.93813,-2.6461 -7.36133,-5.39453 -0.4232,-2.74843 0.96895,-5.80285 3.42969,-7.75781 2.54622,-2.02292 4.53776,-4.85329 7.50781,-6.69727 l 0.13281,-0.082 0.1543,0.008 c 2.01403,0.096 3.39631,-0.55618 4.60547,-1.95117 1.20915,-1.39499 2.19689,-3.57313 3.16992,-6.42969 1.17218,-3.44126 3.59995,-5.34872 5.94726,-6.01171 1.17366,-0.3315 2.34836,-0.36881 3.3418,-0.1211 0.36507,0.091 0.69459,0.23268 1.00195,0.40039 -0.49108,-2.31862 -1.1774,-4.45569 -3.22461,-6.24414 -0.95586,-0.83503 -1.7364,-1.79255 -2.23437,-3.32422 -0.49797,-1.53166 -0.73814,-3.62027 -0.74414,-6.82812 -0.005,-1.65318 0.0482,-3.22879 0.87304,-4.51563 0.82487,-1.28683 2.39551,-2.14735 5.09376,-2.43945 0.97025,-0.10504 3.19482,-0.70133 4.99023,-2.09961 1.79541,-1.39828 3.20873,-3.53176 2.81641,-6.95312 -0.19382,-1.69023 -0.0765,-2.99369 0.53906,-4.44727 0.56985,-1.34562 1.65798,-2.94198 3.16992,-5.10938 -3.17086,-1.96751 -5.68368,-5.797 -5.28516,-9.41992 0.1296,-1.17824 0.1276,-2.29815 0.61133,-3.51367 0.48374,-1.21551 1.44749,-2.4674 3.38867,-3.93164 1.28209,-0.96701 2.06242,-1.842 2.43164,-2.62891 0.36924,-0.7869 0.36965,-1.48109 0.0508,-2.27539 -0.63775,-1.58858 -2.74544,-3.48774 -5.89844,-5.8457 -2.11056,-1.57836 -5.35056,-3.00538 -7.63281,-5.56641 z"
         id="rect4339-3"
         inkscape:connector-curvature="0" />
      <path
         inkscape:connector-curvature="0"
         style="fill:#9df3e4;fill-opacity:1;fill-rule:evenodd;stroke:none"
         id="path3302-8"
         d="m 338.48354,376.64155 c 2.21548,-6.70318 9.27841,-2.32124 5.86515,2.10538 -0.66644,0.86431 -0.81469,2.28852 -1.20311,3.30859 -1.53708,4.03711 0.44209,5.12934 1.57908,4.81237 2.97127,-0.82833 3.2741,1.94586 1.6543,4.51161 -1.40573,2.22656 -4.34666,4.35487 -6.01558,6.39155 -1.18059,1.44082 -3.41781,3.8769 -3.75968,-0.67682 -0.0652,-0.8653 0.18581,-2.29791 0.30075,-3.15807 0.3307,-2.47354 -0.61732,-3.41316 -1.27823,-3.60935 -1.57246,-0.46679 -3.05291,-2.82647 -0.97757,-5.038 1.13482,-1.20925 2.20728,-0.81213 2.18069,-3.75968 -0.0138,-1.58412 1.15706,-3.38341 1.6542,-4.88758 z" />
    </g>
    <text
       id="text2907-7"
       y="489.97656"
       x="295.4375"
       style="font-style:normal;font-weight:normal;font-size:40px;line-height:1.25;font-family:sans-serif;letter-spacing:0px;word-spacing:0px;fill:#000000;fill-opacity:1;stroke:none"
       xml:space="preserve"><tspan
         id="tspan2971"
         style="font-size:10.66666698px"
         y="489.97656"
         x="295.4375"
         sodipodi:role="line">Chubu</tspan></text>
  </g>
</svg>
