<?xml version="1.0" encoding="UTF-8" standalone="no"?>
<!-- Created with Inkscape (http://www.inkscape.org/) -->

<svg
   xmlns:dc="http://purl.org/dc/elements/1.1/"
   xmlns:cc="http://creativecommons.org/ns#"
   xmlns:rdf="http://www.w3.org/1999/02/22-rdf-syntax-ns#"
   xmlns:svg="http://www.w3.org/2000/svg"
   xmlns="http://www.w3.org/2000/svg"
   xmlns:sodipodi="http://sodipodi.sourceforge.net/DTD/sodipodi-0.dtd"
   xmlns:inkscape="http://www.inkscape.org/namespaces/inkscape"
   version="1.1"
   width="150"
   height="100"
   id="svg2"
   sodipodi:docname="Regions_of_Japan_2.svg"
   inkscape:export-filename="/home/qwerty9118/Desktop/apps/eclipse-workspace/sakura_cast/android/assets/jpnTemp2.png"
   inkscape:export-xdpi="96"
   inkscape:export-ydpi="96"
   inkscape:version="0.92.5 (2060ec1f9f, 2020-04-08)">
  <sodipodi:namedview
     pagecolor="#ffffff"
     bordercolor="#666666"
     borderopacity="1"
     objecttolerance="10"
     gridtolerance="10"
     guidetolerance="10"
     inkscape:pageopacity="0"
     inkscape:pageshadow="2"
     inkscape:window-width="1280"
     inkscape:window-height="736"
     id="namedview375"
     showgrid="false"
     inkscape:zoom="2.8284271"
     inkscape:cx="109.37077"
     inkscape:cy="70.529297"
     inkscape:window-x="0"
     inkscape:window-y="0"
     inkscape:window-maximized="1"
     inkscape:current-layer="svg2"
     fit-margin-top="0"
     fit-margin-left="0"
     fit-margin-right="0"
     fit-margin-bottom="0" />
  <defs
     id="defs4" />
  <metadata
     id="metadata7">
    <rdf:RDF>
      <cc:Work
         rdf:about="">
        <dc:format>image/svg+xml</dc:format>
        <dc:type
           rdf:resource="http://purl.org/dc/dcmitype/StillImage" />
        <dc:title></dc:title>
      </cc:Work>
    </rdf:RDF>
  </metadata>
  <g
     id="g882"
     transform="translate(-57.824052,-517.08541)">
    <path
       id="rect4343-0"
       d="m 197.4375,519.54883 c -1.77427,1.07693 -4.09617,2.60155 -6.0332,2.81836 -3.59897,0.40285 -5.09894,2.40518 -7.21875,3.1582 -1.76371,0.62651 -4.07781,1.38695 -5.93946,1.58008 -2.21518,0.22988 -6.56313,0.25954 -9.47461,0 -6.67975,-0.59558 -7.2939,3.06203 -11.58007,3.60937 -1.70065,0.21714 -4.39026,-0.13539 -6.0918,0.0742 -1.93597,0.23859 -4.04921,-1.61901 -2.70703,-2.93164 1.20756,-1.18098 1.30562,-2.99427 -2.55664,-2.93359 -2.02049,0.0316 -4.02072,0.32263 -4.88672,1.88086 -0.72732,1.30867 -3.30716,2.82806 -5.56445,4.13476 -3.1553,1.82646 -6.13976,4.83741 -6.4668,6.39258 -0.3648,1.73504 -2.23922,3.76883 -3.68359,5.1875 -3.86939,3.8006 -9.57588,8.20201 -13.31055,12.7832 -1.89941,2.32984 -3.33122,4.66736 -6.69141,7.51954 -2.26371,1.92154 -4.45321,4.83578 -6.166014,7.06835 -3.544612,4.62014 -5.377939,5.63629 -8.046875,5.26368 -3.044608,-0.42499 -6.397911,3.5516 -7.74414,6.3164 -0.975006,2.0022 -2.007389,4.82945 -5.564453,5.86524 -1.684641,0.49052 -3.902671,0.29211 -5.865235,1.8789 -0.748179,0.60487 -3.031901,0.51434 -4.361328,0.37696 -3.657087,-0.37805 -4.505456,2.0348 -4.662109,3.75976 -0.204094,2.24701 0.09187,5.75291 -0.675782,7.74414 -0.694117,1.80126 0.310928,2.97506 1.728516,2.78125 0.507122,-0.0692 1.876765,1.01581 2.105469,1.35352 0.574823,0.84909 1.680631,1.3584 2.707031,0.75195 2.45318,-1.44961 2.59524,1.01664 3.158203,1.95508 0.290773,0.48479 0.675913,1.13631 0.902344,1.6543 1.227034,2.80691 3.809146,2.37883 5.564453,1.35351 0.751738,-0.43912 1.539602,-1.83778 3.458984,-2.70703 1.033318,-0.46789 2.141166,-1.41952 2.857422,-2.25586 1.440024,-1.68128 7.840482,-2.65104 13.986328,-0.52539 0.658932,0.22791 2.368576,1.2631 3.308596,1.72852 1.46384,0.72465 2.60472,1.99582 3.1582,2.70703 0.72732,0.93459 1.914,2.10299 3.00781,2.55664 0.69332,0.28751 1.40364,0.36194 2.10547,1.20312 2.60854,3.12694 1.92845,-2.18546 2.17969,-3.60937 0.2544,-1.44111 -0.0217,-6.08161 1.95508,-7.82031 0.64974,-0.57146 2.69777,-5.72335 1.73047,-8.26954 -2.14195,-5.63762 7.68576,-8.72683 10.97656,-2.40624 2.39161,4.59334 7.44268,2.91805 9.02344,0.2246 1.1202,-1.9088 5.74394,-3.73856 8.42187,-3.98437 2.70313,-0.24797 5.91493,-1.24695 7.9707,-4.28711 0.82833,-1.22476 5.41617,-4.186 7.82032,-2.33008 2.0192,1.55863 4.46916,1.02469 4.36133,-1.5039 -0.0702,-1.64431 2.69064,-3.28618 4.66211,-2.85743 2.32865,0.50643 3.64694,0.10759 4.36132,-1.05273 1.06978,-1.73762 3.70006,-0.3582 4.66211,0.90234 1.15687,1.51593 6.97343,0.53785 7.66992,-2.40625 0.18956,-0.80125 1.12443,-2.9155 5.86524,-5.03906 1.65045,-0.7394 5.25156,-3.63103 7.40039,-5.94922 l -0.0391,-0.0449 c -2.33848,-2.80099 -4.19557,-7.09168 -4.68946,-11.42187 -0.49389,-4.3302 0.39903,-8.74946 3.70899,-11.59376 3.4593,-2.97254 5.41368,-5.63421 5.48828,-8.73632 0.0746,-3.10211 -1.7526,-6.82169 -6.22656,-11.84961 z"
       style="fill:#efb179;fill-opacity:1;stroke:none"
       inkscape:connector-curvature="0" />
    <text
       id="text2907-75"
       y="567.47656"
       x="125.4375"
       style="font-style:normal;font-weight:normal;font-size:40px;line-height:1.25;font-family:sans-serif;letter-spacing:0px;word-spacing:0px;fill:#000000;fill-opacity:1;stroke:none"
       xml:space="preserve"><tspan
         id="tspan2979"
         style="font-size:10.66666698px"
         y="567.47656"
         x="125.4375"
         sodipodi:role="line">Chugoku</tspan></text>
  </g>
</svg>
