<?xml version="1.0" encoding="UTF-8" standalone="no"?>
<!-- Created with Inkscape (http://www.inkscape.org/) -->

<svg
   xmlns:dc="http://purl.org/dc/elements/1.1/"
   xmlns:cc="http://creativecommons.org/ns#"
   xmlns:rdf="http://www.w3.org/1999/02/22-rdf-syntax-ns#"
   xmlns:svg="http://www.w3.org/2000/svg"
   xmlns="http://www.w3.org/2000/svg"
   xmlns:sodipodi="http://sodipodi.sourceforge.net/DTD/sodipodi-0.dtd"
   xmlns:inkscape="http://www.inkscape.org/namespaces/inkscape"
   version="1.1"
   width="210"
   height="210"
   id="svg2"
   sodipodi:docname="Regions_of_Japan_2.svg"
   inkscape:export-filename="/home/qwerty9118/Desktop/apps/eclipse-workspace/sakura_cast/android/assets/jpnTemp2.png"
   inkscape:export-xdpi="96"
   inkscape:export-ydpi="96"
   inkscape:version="0.92.5 (2060ec1f9f, 2020-04-08)">
  <sodipodi:namedview
     pagecolor="#ffffff"
     bordercolor="#666666"
     borderopacity="1"
     objecttolerance="10"
     gridtolerance="10"
     guidetolerance="10"
     inkscape:pageopacity="0"
     inkscape:pageshadow="2"
     inkscape:window-width="1280"
     inkscape:window-height="736"
     id="namedview375"
     showgrid="false"
     inkscape:zoom="2"
     inkscape:cx="137.74066"
     inkscape:cy="121.00169"
     inkscape:window-x="0"
     inkscape:window-y="0"
     inkscape:window-maximized="1"
     inkscape:current-layer="g930"
     fit-margin-top="0"
     fit-margin-left="0"
     fit-margin-right="0"
     fit-margin-bottom="0" />
  <defs
     id="defs4" />
  <metadata
     id="metadata7">
    <rdf:RDF>
      <cc:Work
         rdf:about="">
        <dc:format>image/svg+xml</dc:format>
        <dc:type
           rdf:resource="http://purl.org/dc/dcmitype/StillImage" />
        <dc:title></dc:title>
      </cc:Work>
    </rdf:RDF>
  </metadata>
  <g
     id="g930"
     transform="translate(-363.74717,-1.2989938)">
    <g
       id="g870"
       transform="translate(2.6632639,-1.8504986)">
      <path
         inkscape:connector-curvature="0"
         style="fill:#ef7979;fill-opacity:1;fill-rule:evenodd;stroke:none"
         id="path2920-3"
         d="m 418.56516,8.49165 c 0.21704,-4.70849 6.17312,-4.15887 8.72257,-1.27833 l 12.93333,14.58763 c 1.50486,1.69729 3.3161,2.95427 4.88758,4.81247 2.14511,2.5363 3.936,4.46733 5.71473,5.71473 2.83547,1.98836 5.58051,4.8009 8.27139,7.66978 2.10043,2.2394 3.86839,4.7756 6.24112,5.71473 1.14856,0.45464 2.26144,1.16032 3.38371,2.2558 0.71299,0.6959 1.38616,1.41532 2.63177,2.1806 1.20401,0.73978 1.1116,0.86935 2.48145,2.03026 2.19156,1.85741 5.63013,4.45498 8.12096,4.58683 2.88983,0.15299 5.75061,2.56881 8.19608,4.36128 3.76828,2.76194 8.07342,4.0038 12.10628,4.36129 4.90784,0.43497 12.89567,1.20015 15.48999,1.57898 4.77807,0.69778 10.22832,0.74235 11.50467,-0.67672 1.89941,-2.1118 4.20107,-2.4173 5.33876,-3.75968 1.63493,-1.92915 2.92838,-2.95536 3.23328,-4.58682 0.57542,-3.07871 2.17437,-5.45104 5.11323,-8.12096 5.83471,-5.30062 5.18349,-6.07963 4.88758,0.82714 -0.10398,2.42689 -0.58155,4.82581 -2.03017,6.46667 -1.4675,1.6621 -2.08522,3.17102 -2.7822,3.9101 -1.73801,1.84298 -1.68672,7.47903 -1.27833,10.45199 0.26794,1.94991 1.18345,4.4697 1.27833,5.48918 0.1186,1.27369 0.63284,2.63039 1.57908,3.68447 1.03382,1.15162 1.56347,1.98322 2.03027,2.93262 0.4327,0.88023 0.83545,1.83487 1.6542,2.70699 1.35562,1.44388 1.84643,3.15026 2.7822,4.58683 2.7145,4.16707 5.67252,5.6407 9.70004,3.98522 14.62707,-6.01223 4.10066,-0.54379 2.55656,2.18069 -2.04756,3.61291 -3.80346,6.64852 -8.27129,8.12096 -3.10855,1.02442 -6.23035,2.69493 -8.49693,5.41398 -2.48579,2.98174 -4.6144,4.843 -7.14348,1.72941 -4.21402,-5.18814 -6.53209,0.52125 -4.28607,3.23338 3.07771,3.71629 2.25788,3.16578 -0.90227,3.3085 -1.96216,0.089 -4.26373,0.2283 -6.46666,-0.60151 -4.04521,-1.52394 -7.83355,-3.41801 -11.80553,0.0751 -1.02719,0.90345 -1.03499,1.62326 -3.23328,3.38381 -4.04897,3.24247 -6.82375,6.49671 -9.62483,9.92559 -1.086,1.32933 -1.68573,3.01841 -2.85742,3.75967 -1.91769,1.2132 -2.59945,2.66647 -3.15816,4.28608 -0.76311,2.21202 -2.26975,3.33488 -3.00775,4.58682 -2.34238,3.97405 -2.43657,8.37487 -2.63177,13.98612 l -0.30075,8.64726 c -0.22199,6.38117 0.0237,6.30576 -4.9628,3.38371 -2.47571,-1.4506 -4.97159,-2.14857 -9.32408,-3.00774 -3.62309,-0.71517 -7.33423,-1.02957 -10.75273,-2.55656 -0.83921,-0.37489 -1.63187,-1.35513 -3.00775,-1.6543 -1.41492,-0.30767 -2.38953,-1.13858 -3.75977,-2.33102 -0.75984,-0.66131 -1.51573,-1.49231 -2.63178,-1.95505 -1.90731,-0.79068 -2.18741,-1.35641 -3.00774,-2.10538 -1.64451,-1.5015 -3.15115,-3.29199 -5.63951,-4.58683 -2.18445,-1.1367 -3.62774,-2.09352 -5.18844,-3.38371 -1.4077,-1.16378 -3.00863,-1.67515 -5.63951,-1.72951 -3.89924,-0.081 -7.56986,-0.37656 -11.12871,0.67672 -1.00831,0.29848 -2.89517,0.5768 -4.58682,0.97758 -3.91218,0.92667 -3.90685,1.76321 -5.03801,3.08295 l -8.12096,9.47441 c -3.06764,3.57881 -2.68722,2.88519 -3.91011,-0.22554 -1.02452,-2.60608 -1.63739,-4.14266 -2.93253,-5.86516 -1.33723,-1.77843 -2.83468,-3.38727 -6.6923,-3.30849 -1.22229,0.0247 -2.66963,0.35155 -4.4364,0.6015 -1.04804,0.14826 -1.96721,0.18621 -3.38381,1.35345 -0.83575,0.68878 -1.20628,0.9158 -2.03016,1.57908 -2.9609,2.3835 -2.36196,5.16867 -2.25591,7.82021 l 0.15043,3.75968 c 1.52571,3.81532 5.37987,5.29438 8.42171,5.94037 1.95081,0.41421 6.03377,0.45849 8.57215,0.15033 2.12722,-0.25816 3.21371,0.48448 3.08295,2.70698 l -0.15042,2.55666 c -0.0811,1.37302 1.09914,1.57098 2.03026,1.95505 3.41919,1.41018 6.41527,2.7234 8.94811,3.23329 3.84072,0.77338 3.38154,2.24622 1.80463,4.13574 -1.33299,1.59717 -2.57505,2.58819 -3.53414,3.83489 -1.58679,2.06259 -3.2743,2.19453 -5.18833,1.57909 -1.04716,-0.33673 -2.12693,-0.46828 -3.75968,-0.67682 -1.49181,-0.19046 -2.64285,-1.02245 -3.68456,-2.40614 -1.69176,-2.24731 -2.81798,-1.41245 -3.60935,-0.52639 -1.7643,1.97561 -3.65037,3.97859 -4.88758,6.16591 -0.79632,1.4079 -1.48312,2.30848 -0.97748,5.71473 0.3389,2.28328 -0.12453,4.04333 -0.5264,5.71473 -0.28009,1.16536 -1.24512,1.93528 -1.87983,2.7822 -1.35019,1.80156 -2.75512,1.80166 -4.4365,0.60151 -0.84247,-0.60132 -1.98935,-0.49833 -3.23329,-0.90227 -2.63236,-0.85492 -3.74544,-3.00418 -4.88758,-4.81246 -1.16289,-1.8409 -1.53362,-7.54921 0.97748,-9.47441 l 2.25581,-1.72951 c 1.48341,-1.05368 1.72091,-1.86314 1.80462,-3.75968 l -0.60151,-4.73725 c -0.20132,-1.58521 -0.96798,-2.57376 -3.38371,-4.66194 -0.79809,-0.68987 -1.21843,-1.92461 -2.2558,-2.55666 -1.53342,-0.93429 -3.11666,-1.82785 -4.4365,-3.15817 -0.73504,-0.74077 -1.70332,-1.53579 -3.00774,-2.10538 -2.51752,-1.09924 -2.3922,-2.33151 -2.55656,-4.51161 v -8.04585 c 0,-1.50852 -0.085,-3.08305 0.97747,-4.36119 0.66506,-0.80026 0.60813,-2.13453 1.57909,-3.38371 1.53688,-1.97748 2.17585,-2.99232 3.08295,-3.45892 1.36481,-0.70212 2.3159,-0.98439 3.08296,-1.6543 1.1531,-1.00702 1.92995,-1.33733 2.48144,-1.57908 1.59194,-0.69797 2.60114,-1.63265 3.3085,-2.25581 2.21914,-1.95505 4.13308,-3.88075 5.71473,-5.86515 2.24256,-2.81353 3.39537,-7.31783 0.60161,-9.3993 -1.94072,-1.44575 -3.14236,-2.98115 -3.60935,-4.81236 -0.43705,-1.7136 -1.21686,-3.5714 1.50387,-6.01549 2.24325,-2.01524 8.03982,-2.31234 11.1287,-0.82715 1.77251,0.85216 0.62167,3.27154 5.48919,2.78221 3.14621,-0.31637 6.63271,-0.0514 9.17365,-0.15043 5.31406,-0.20696 7.69439,-3.84448 8.42172,-7.2186 l 0.22564,-11.05359 c 0.0356,-1.76361 0.30787,-3.09225 -1.05279,-3.15807 -3.57594,-0.17316 -0.71467,-5.58624 0.15043,-6.31634 1.51079,-1.27497 2.09866,-1.94378 2.93253,-2.48144 1.26439,-0.81509 2.61309,-2.34575 2.55666,-4.81237 l -0.22564,-9.85038 c -0.0415,-1.81529 -0.16733,-2.79514 -1.27823,-3.23338 -1.94399,-0.76686 -1.08017,-2.22339 0.15032,-3.00784 1.41996,-0.90523 1.18266,-1.86738 1.20312,-2.93253 L 421.5729,53.232 c 0.0316,-1.65588 0.28929,-3.13375 1.35354,-4.4364 0.86669,-1.06069 0.95079,-3.26362 0.37597,-4.96279 -0.34058,-1.00663 -0.94624,-2.01781 -1.1279,-3.23338 -0.18472,-1.23564 -1.19828,-2.75878 -3.38371,-4.81237 -1.87351,-1.76055 -3.54867,-3.60075 -3.68456,-4.96279 -0.1105,-1.10854 -1.52651,-1.76411 -2.1806,-2.85742 -1.9087,-3.19009 -1.07858,-7.44108 0.60151,-9.62483 l 2.93263,-2.25581 c 1.55082,-1.19293 2.01593,-1.32972 2.03017,-2.33102 l 0.0751,-5.26355 z" />
      <g
         style="font-style:normal;font-weight:normal;font-size:9.88348389px;font-family:'Bitstream Vera Sans';fill:#000000;fill-opacity:1;stroke:none"
         id="text3295-9"
         transform="translate(0,-297.36214)">
        <path
           inkscape:connector-curvature="0"
           id="path3099"
           d="m 446.04908,408.99118 v -7.0748 h 0.93623 v 2.90521 h 3.67735 v -2.90521 h 0.93623 v 7.0748 h -0.93623 v -3.33471 h -3.67735 v 3.33471 z" />
        <path
           inkscape:connector-curvature="0"
           id="path3101"
           d="m 452.72815,406.42862 c 0,-0.9491 0.26382,-1.65207 0.79145,-2.10893 0.44077,-0.37963 0.97806,-0.56945 1.61186,-0.56946 0.70458,1e-5 1.28048,0.23085 1.72768,0.69252 0.4472,0.46168 0.6708,1.09951 0.6708,1.91348 0,0.65954 -0.0989,1.17833 -0.29679,1.55636 -0.19787,0.37803 -0.48581,0.6716 -0.86384,0.88073 -0.37803,0.20912 -0.79065,0.31368 -1.23785,0.31368 -0.71745,0 -1.29737,-0.23003 -1.73974,-0.6901 -0.44238,-0.46007 -0.66357,-1.12283 -0.66357,-1.98828 z m 0.8928,0 c 0,0.65632 0.14317,1.14776 0.42951,1.47432 0.28633,0.32655 0.64667,0.48983 1.081,0.48983 0.43111,0 0.78984,-0.16408 1.07618,-0.49225 0.28634,-0.32816 0.4295,-0.82845 0.42951,-1.50086 -1e-5,-0.6338 -0.14398,-1.11398 -0.43192,-1.44054 -0.28795,-0.32655 -0.64587,-0.48982 -1.07377,-0.48983 -0.43433,10e-6 -0.79467,0.16248 -1.081,0.48742 -0.28634,0.32495 -0.42951,0.81559 -0.42951,1.47191 z" />
        <path
           inkscape:connector-curvature="0"
           id="path3103"
           d="m 458.55786,408.99118 v -7.0748 h 0.86867 v 4.03447 l 2.05584,-2.0848 h 1.12444 l -1.95932,1.90142 2.15718,3.22371 h -1.07135 l -1.6939,-2.62047 -0.61289,0.58876 v 2.03171 z" />
        <path
           inkscape:connector-curvature="0"
           id="path3105"
           d="m 463.49961,408.99118 v -7.0748 h 0.86866 v 4.03447 l 2.05584,-2.0848 h 1.12444 l -1.95932,1.90142 2.15719,3.22371 h -1.07136 l -1.6939,-2.62047 -0.61289,0.58876 v 2.03171 z" />
        <path
           inkscape:connector-curvature="0"
           id="path3107"
           d="m 471.78088,408.35898 c -0.32173,0.27347 -0.63139,0.46651 -0.92899,0.57912 -0.2976,0.1126 -0.61691,0.1689 -0.95794,0.1689 -0.56303,0 -0.99575,-0.13754 -1.29817,-0.41261 -0.30243,-0.27508 -0.45364,-0.62657 -0.45364,-1.05447 0,-0.25094 0.0571,-0.48017 0.17132,-0.68769 0.11421,-0.20751 0.26382,-0.37401 0.44881,-0.49948 0.18499,-0.12547 0.39331,-0.22038 0.62496,-0.28473 0.17051,-0.045 0.42789,-0.0885 0.77215,-0.1303 0.70136,-0.0836 1.21773,-0.18338 1.54912,-0.29921 0.003,-0.11904 0.005,-0.19464 0.005,-0.22682 0,-0.35389 -0.082,-0.60323 -0.24612,-0.74802 -0.222,-0.19625 -0.55177,-0.29437 -0.98931,-0.29438 -0.4086,10e-6 -0.71022,0.0716 -0.90486,0.21476 -0.19465,0.14317 -0.33862,0.39653 -0.43192,0.76008 l -0.84937,-0.11582 c 0.0772,-0.36355 0.2043,-0.65713 0.38125,-0.88073 0.17695,-0.2236 0.43272,-0.39572 0.76732,-0.51638 0.3346,-0.12064 0.72228,-0.18096 1.16305,-0.18097 0.43755,1e-5 0.79306,0.0515 1.06653,0.15443 0.27346,0.10296 0.47454,0.23245 0.60324,0.38849 0.12868,0.15604 0.21877,0.3531 0.27025,0.59117 0.029,0.148 0.0434,0.41504 0.0434,0.80111 v 1.15822 c 0,0.80753 0.0185,1.31828 0.0555,1.53223 0.037,0.21395 0.11019,0.41905 0.21958,0.6153 h -0.90727 c -0.0901,-0.18017 -0.148,-0.3909 -0.17374,-0.6322 z m -0.0724,-1.94001 c -0.3153,0.12869 -0.78824,0.23808 -1.41882,0.32816 -0.35713,0.0515 -0.60968,0.10939 -0.75767,0.17373 -0.148,0.0643 -0.26221,0.15845 -0.34264,0.28232 -0.0804,0.12386 -0.12065,0.2614 -0.12065,0.41261 0,0.23165 0.0877,0.42469 0.26301,0.57911 0.17534,0.15443 0.43192,0.23165 0.76973,0.23165 0.3346,0 0.6322,-0.0732 0.8928,-0.21958 0.2606,-0.14639 0.45202,-0.34666 0.57428,-0.60083 0.0933,-0.19625 0.13995,-0.48581 0.13996,-0.86866 z" />
        <path
           inkscape:connector-curvature="0"
           id="path3109"
           d="m 473.9429,402.91535 v -0.99897 h 0.86866 v 0.99897 z m 0,6.07583 v -5.12513 h 0.86866 v 5.12513 z" />
        <path
           inkscape:connector-curvature="0"
           id="path3111"
           d="m 479.46375,408.99118 v -0.64667 c -0.32495,0.50833 -0.80271,0.76249 -1.4333,0.76249 -0.40859,0 -0.78421,-0.1126 -1.12685,-0.33781 -0.34264,-0.22521 -0.60807,-0.5397 -0.79628,-0.94347 -0.18821,-0.40377 -0.28231,-0.86786 -0.28231,-1.39228 0,-0.51154 0.0852,-0.97563 0.25577,-1.39227 0.17052,-0.41664 0.42629,-0.73595 0.76732,-0.95795 0.34103,-0.22199 0.72228,-0.33298 1.14374,-0.33299 0.30886,1e-5 0.58394,0.0652 0.82524,0.19545 0.24129,0.13031 0.43754,0.30002 0.58876,0.50914 v -2.53844 h 0.86384 v 7.0748 z m -2.74595,-2.55774 c 0,0.65633 0.13834,1.14696 0.41503,1.47191 0.27668,0.32494 0.60324,0.48742 0.97966,0.48742 0.37964,0 0.70217,-0.15524 0.9676,-0.4657 0.26542,-0.31047 0.39813,-0.78422 0.39814,-1.42124 -10e-6,-0.70136 -0.13513,-1.21613 -0.40538,-1.54429 -0.27025,-0.32816 -0.60324,-0.49224 -0.99896,-0.49225 -0.38608,10e-6 -0.70861,0.15765 -0.9676,0.47294 -0.25899,0.3153 -0.38849,0.81237 -0.38849,1.49121 z" />
        <path
           inkscape:connector-curvature="0"
           id="path3113"
           d="m 481.3169,406.42862 c 0,-0.9491 0.26382,-1.65207 0.79145,-2.10893 0.44077,-0.37963 0.97805,-0.56945 1.61186,-0.56946 0.70458,1e-5 1.28047,0.23085 1.72768,0.69252 0.4472,0.46168 0.6708,1.09951 0.6708,1.91348 0,0.65954 -0.0989,1.17833 -0.29679,1.55636 -0.19787,0.37803 -0.48582,0.6716 -0.86384,0.88073 -0.37804,0.20912 -0.79065,0.31368 -1.23785,0.31368 -0.71746,0 -1.29737,-0.23003 -1.73974,-0.6901 -0.44238,-0.46007 -0.66357,-1.12283 -0.66357,-1.98828 z m 0.8928,0 c 0,0.65632 0.14316,1.14776 0.4295,1.47432 0.28634,0.32655 0.64667,0.48983 1.08101,0.48983 0.43111,0 0.78984,-0.16408 1.07618,-0.49225 0.28633,-0.32816 0.4295,-0.82845 0.42951,-1.50086 -1e-5,-0.6338 -0.14398,-1.11398 -0.43192,-1.44054 -0.28795,-0.32655 -0.64588,-0.48982 -1.07377,-0.48983 -0.43434,10e-6 -0.79467,0.16248 -1.08101,0.48742 -0.28634,0.32495 -0.4295,0.81559 -0.4295,1.47191 z" />
      </g>
    </g>
  </g>
  <text
     style="font-style:normal;font-variant:normal;font-weight:normal;font-stretch:normal;font-size:30px;line-height:125%;font-family:Calibri;-inkscape-font-specification:Calibri;text-align:start;letter-spacing:0px;word-spacing:0px;writing-mode:lr-tb;text-anchor:start;fill:#000000;fill-opacity:1;stroke:none"
     xml:space="preserve"
     id="text5726"
     y="-66.54287"
     x="-97.875023"><tspan
       id="tspan5728"
       y="-66.54287"
       x="-97.875023" /></text>
</svg>
