<?xml version="1.0" encoding="UTF-8" standalone="no"?>
<!-- Created with Inkscape (http://www.inkscape.org/) -->

<svg
   xmlns:dc="http://purl.org/dc/elements/1.1/"
   xmlns:cc="http://creativecommons.org/ns#"
   xmlns:rdf="http://www.w3.org/1999/02/22-rdf-syntax-ns#"
   xmlns:svg="http://www.w3.org/2000/svg"
   xmlns="http://www.w3.org/2000/svg"
   xmlns:sodipodi="http://sodipodi.sourceforge.net/DTD/sodipodi-0.dtd"
   xmlns:inkscape="http://www.inkscape.org/namespaces/inkscape"
   version="1.1"
   width="570"
   height="755"
   id="svg2"
   sodipodi:docname="Japan_1.svg"
   inkscape:export-filename="/home/qwerty9118/Desktop/apps/eclipse-workspace/sakura_cast/android/assets/jpnTemp2.png"
   inkscape:export-xdpi="96"
   inkscape:export-ydpi="96"
   inkscape:version="0.92.5 (2060ec1f9f, 2020-04-08)">
  <sodipodi:namedview
     pagecolor="#ffffff"
     bordercolor="#666666"
     borderopacity="1"
     objecttolerance="10"
     gridtolerance="10"
     guidetolerance="10"
     inkscape:pageopacity="0"
     inkscape:pageshadow="2"
     inkscape:window-width="1280"
     inkscape:window-height="736"
     id="namedview375"
     showgrid="false"
     inkscape:zoom="0.35355339"
     inkscape:cx="-2.4052879"
     inkscape:cy="690.13627"
     inkscape:window-x="0"
     inkscape:window-y="0"
     inkscape:window-maximized="1"
     inkscape:current-layer="svg2" />
  <defs
     id="defs4" />
  <metadata
     id="metadata7">
    <rdf:RDF>
      <cc:Work
         rdf:about="">
        <dc:format>image/svg+xml</dc:format>
        <dc:type
           rdf:resource="http://purl.org/dc/dcmitype/StillImage" />
        <dc:title></dc:title>
      </cc:Work>
    </rdf:RDF>
  </metadata>
  <g
     id="g2989" />
  <g
     id="g2985">
    <path
       id="path3302-8"
       style="fill:#9df3e4;fill-opacity:1;fill-rule:evenodd;stroke:none"
       d="m 338.48354,376.64155 c 2.21548,-6.70318 9.27841,-2.32124 5.86515,2.10538 -0.66644,0.86431 -0.81469,2.28852 -1.20311,3.30859 -1.53708,4.03711 0.44209,5.12934 1.57908,4.81237 2.97127,-0.82833 3.2741,1.94586 1.6543,4.51161 -1.40573,2.22656 -4.34666,4.35487 -6.01558,6.39155 -1.18059,1.44082 -3.41781,3.8769 -3.75968,-0.67682 -0.0652,-0.8653 0.18581,-2.29791 0.30075,-3.15807 0.3307,-2.47354 -0.61732,-3.41316 -1.27823,-3.60935 -1.57246,-0.46679 -3.05291,-2.82647 -0.97757,-5.038 1.13482,-1.20925 2.20728,-0.81213 2.18069,-3.75968 -0.0138,-1.58412 1.15706,-3.38341 1.6542,-4.88758 z M 215.46618,580.86843 c -0.15556,-2.3752 0.6193,-3.28745 1.27833,-4.58683 0.70549,-1.3911 1.7477,-1.86244 2.1806,-2.33102 0.55782,-0.60378 1.50673,-1.61259 1.87984,-2.48144 0.37853,-0.88132 2.0438,-1.34347 2.40623,-2.33102 0.34829,-0.94912 1.67851,-1.34189 2.7822,-0.97748 1.67555,0.55328 2.37036,2.06169 1.87984,3.60935 -0.21991,0.69342 -0.36796,1.94279 -0.60161,2.63177 -0.34414,1.01494 -0.83278,1.86264 -1.57908,2.63178 -1.83616,1.89239 -1.60083,3.58553 -1.57909,3.9101 0.39603,5.90736 -4.78835,6.26732 -6.91784,3.83489 -0.80729,-0.92213 -1.53145,-0.88754 -1.72942,-3.9101 z M 443.28716,431.47857 c 0.36072,-1.55067 0.30409,-3.43422 3.17578,-6.86329 1.31806,-1.57375 2.11808,-4.92227 2.25586,-7.82031 0.093,-1.95594 0.20079,-4.99097 0.15039,-7.36914 -0.0413,-1.94724 -0.81388,-4.30252 -1.2793,-6.01562 -0.5251,-1.93341 -0.56557,-4.69387 -1.12695,-6.61719 -1.0858,-3.72054 -3.00635,-8.69318 -5.41406,-11.73047 -1.52502,-1.92382 -2.81475,-4.91767 -3.15821,-7.36719 -0.43348,-3.09096 -0.73571,-6.62647 -0.90234,-9.92578 -0.0904,-1.79079 1.05652,-4.56899 2.55664,-5.94141 2.28209,-2.08769 5.50237,-4.93374 7.74414,-6.16601 2.172,-1.19382 5.59586,-0.83176 6.84375,0.22656 0.63452,0.53806 1.44581,0.6366 2.25586,0.82617 2.87155,0.67168 3.17782,-2.39833 1.35352,-4.51172 -1.27892,-1.48162 -2.32259,-4.25645 -3.00781,-6.08984 -3.08552,-8.25577 0.25245,-18.66733 4.8125,-22.25781 1.24166,-0.97757 4.13146,-5.37816 4.35937,-6.76758 0.36164,-2.2047 1.47492,-5.72775 1.6543,-9.17383 0.0376,-0.72337 0.23978,-2.90648 0.75195,-4.36133 2.4,-6.81793 0.74039,-11.01925 -0.45117,-15.03906 -1.51395,-5.10729 -3.78073,-10.81858 -6.31445,-13.1582 -4.30644,-3.97672 -6.04559,-8.50794 -8.42188,-12.25586 -1.72239,-2.71657 -4.04692,-6.14752 -6.91797,-8.72266 -1.30403,-1.16971 -2.76739,-2.87191 -4.06055,-4.66211 -1.21774,-1.68573 -2.91632,-4.04467 -4.96289,-5.56445 -0.76241,-0.56613 -1.63752,-2.51521 -2.33203,-3.83594 -0.63462,-1.20677 -1.00427,-2.96512 -0.75195,-5.86523 0.16035,-1.84495 0.37263,-5.37251 0.22656,-7.21875 -0.30293,-3.83034 -1.51239,-3.98201 -1.95508,-5.1875 -0.54799,-1.49201 -0.40093,-3.22818 -0.52734,-4.8125 -0.0903,-1.13185 -0.29078,-2.36058 -0.30078,-5.71485 -0.0114,-3.95883 -1.87747,-3.46903 -4.58594,-1.5039 -1.99182,1.44516 -5.62241,1.66797 -8.27148,-1.80469 -0.7953,-1.04247 -2.08946,-1.49899 -3.375,-1.41406 l -5e-5,-5e-5 c -2.14258,0.14155 -4.26001,1.78627 -3.99414,4.72265 0.17939,1.98164 -0.86751,3.83035 -1.50391,4.9629 -1.12389,2.00012 -3.70042,6.58689 -1.05273,7.66992 6.68124,2.73288 10.73428,-2.10585 11.88085,-3.45899 2.66558,-3.14592 5.72268,-3.34592 5.63868,1.50391 -0.0563,3.23605 0.78084,10.23144 -0.22461,11.80469 -2.25126,3.52257 -3.0231,3.12117 -4.8125,1.35351 -3.58899,-3.54541 -6.61183,-1.11821 -7.51953,1.58008 -1.54992,4.60709 -4.48504,3.22939 -5.71485,1.87891 -1.25589,-1.37895 -2.94759,-3.04397 -3.1582,-5.1875 -0.22821,-2.32133 0.37507,-6.35023 0,-7.44532 -1.02868,-3.00339 -2.57622,-6.66031 -6.61719,-4.43554 -0.92262,0.50802 -2.67679,1.2308 -3.91015,0.82617 -1.87697,-0.61574 -2.93762,4.0138 -3.00782,6.0918 -0.0367,1.0861 0.42319,11.04184 0.0762,12.33203 -0.86925,3.2318 -2.09509,6.42612 -6.99414,9.625 -0.933,0.60922 -2.46253,0.85489 -3.45898,1.35351 -2.01989,1.01058 -4.93022,2.7473 -1.50391,5.86524 0.93488,0.85077 1.78399,2.35865 2.40625,3.45898 0.51444,0.90947 1.81218,2.4996 3.08399,3.45899 1.83161,1.38141 2.11149,3.47765 2.17969,5.26171 0.0636,1.6623 -0.21679,4.55965 -0.30079,6.54297 -0.15547,3.66074 -2.7829,7.71144 -4.51171,8.94727 -1.67506,1.19748 -4.47166,3.81397 -4.66211,6.91797 -0.21339,3.4784 6.51164,6.49134 9.40039,0.15039 0.3815,-0.83733 0.72725,-1.56265 0.75195,-3.00781 0.10892,-5.96706 2.62498,-2.91053 2.0293,0.15039 -0.28455,1.46206 -0.0832,3.47483 -0.15039,4.96289 -0.0775,1.70618 0.65945,3.90071 1.95507,4.96289 1.26142,1.03372 1.20313,3.4828 1.20313,5.11328 0,3.95587 0.24323,11.93383 0,15.18945 -0.12977,1.73672 -0.62661,4.15844 -1.6543,5.56446 -1.54162,2.10914 -1.37107,5.25136 -1.05273,8.79687 0.19155,2.13354 -2.34595,9.35741 -4.51172,12.25781 -1.95564,2.61893 -3.40349,5.34294 -3.30859,8.19532 -0.0202,0.72783 -0.11886,1.40939 -0.36684,2.10191 l -0.38321,1.03499 2e-5,-1.9e-4 c -0.4387,1.10717 -0.9668,2.17818 -1.58008,2.95508 -0.79147,1.00258 -0.45589,6.81957 -0.52735,9.625 -0.17523,6.87169 -5.49522,15.28446 -11.1289,18.04492 -2.38637,1.16921 -10.16001,8.39983 -10.82813,13.76172 -0.17464,1.40167 -1.12534,4.04574 -2.85742,6.54102 -1.22288,1.76174 -2.03669,5.18534 -2.55469,6.76758 -0.62276,1.90188 -1.38927,4.1579 -2.63281,5.64062 -1.33279,1.58897 -3.01225,4.03489 -4.73633,5.1875 -1.2975,0.86748 -3.03016,2.14106 -4.21093,3.3086 -1.078,1.06583 -2.67281,2.39751 -4.06055,3.00781 -1.38478,0.60912 -2.91226,1.69104 -3.75977,2.63086 -1.13136,1.25461 -3.38246,1.92006 -4.8125,3.23437 -1.81658,1.66951 -3.49199,1.93602 -7.14453,3.15821 -1.78654,0.59766 -4.86423,0.0949 -6.31641,1.20312 -0.81312,0.62049 -2.10317,2.26004 -3.08203,2.55664 -0.56543,0.17138 -1.73877,1.42747 -1.73047,2.93164 0.0138,2.54954 -2.33901,5.63118 -6.6914,5.03906 -4.78005,-0.65034 -8.12498,-8.51808 -6.76758,-9.92578 1.94032,-2.01208 1.06389,-3.5436 -1.80469,-4.21093 -3.15026,-0.73296 -1.14762,-4.10059 1.05274,-5.26368 2.0867,-1.10319 5.85193,-3.29661 7.36914,-5.86523 0.41362,-0.70035 1.66887,-2.83487 2.33008,-3.30859 0.76854,-0.55061 2.04655,-5.03233 0.82812,-6.76758 -1.86442,-2.65529 -7.41833,-0.78851 -8.72265,1.65429 -0.74136,1.38853 -1.79694,3.50174 -7.36915,4.06055 -1.54093,0.15458 -4.73924,2.37322 -5.71484,3.75977 -0.71803,1.02057 -1.81939,2.28114 -2.70703,3.1582 -3.21094,3.17299 -1.07567,7.18854 0.60156,10.37695 1.36847,2.60153 3.10543,16.14724 -0.22461,21.05469 -0.82972,1.22288 -1.73226,3.28508 -2.55664,4.51172 -2.66261,3.9617 -6.59595,8.92044 -9.40039,12.7832 -1.46365,2.01584 -3.77394,4.50318 -4.8125,6.76758 -1.18335,2.57999 -3.10388,4.65737 -4.73633,6.39063 -2.76085,2.93154 -1.05164,5.79212 1.87891,9.09765 1.37538,1.55121 5.71659,7.67771 -2.0293,11.88086 -1.15953,0.62918 -3.90605,0.16354 -4.96289,3.45899 -0.38971,1.21508 -1.71322,2.4628 -2.7832,3.1582 -1.05388,0.68483 -2.52252,0.83332 -3.91016,1.5039 -0.86784,0.41937 -2.17952,0.96925 -3.46875,0.4336 l -0.89451,-0.59965 c -0.55491,-0.53865 -1.0785,-1.36723 -1.42578,-2.16406 -0.95168,-2.18336 -4.33841,-0.55252 -5.1875,2.33007 -0.97086,3.29625 -3.8119,2.43694 -4.8125,-3.1582 -0.19609,-1.09637 0.31399,-3.21449 0.45117,-5.41406 0.11079,-1.77774 -0.29701,-3.22175 -2.85742,-3.60938 -0.20727,-0.0314 -0.40817,-0.0383 -0.60352,-0.0234 l -2e-5,10e-6 c -1.3674,0.10382 -2.48248,1.31661 -3.9082,3.33203 -0.68393,0.96681 -1.57026,2.50273 -2.55664,3.1582 -2.42313,1.61012 -2.36257,2.73052 -7.36914,2.40625 -2.97592,-0.19263 -4.9939,-1.71807 -9.55078,-1.57812 -4.27859,0.12942 -4.14134,0.91596 -5.96875,2.13086 l -0.85547,0.53906 c -1.77427,1.07693 -4.09617,2.60155 -6.0332,2.81836 -3.59897,0.40285 -5.09894,2.40518 -7.21875,3.1582 -1.76371,0.62651 -4.07781,1.38695 -5.93946,1.58008 -2.21518,0.22988 -6.56313,0.25954 -9.47461,0 -6.67975,-0.59558 -7.2939,3.06203 -11.58007,3.60937 -1.70065,0.21714 -4.39026,-0.13539 -6.0918,0.0742 -1.93597,0.23859 -4.04921,-1.61901 -2.70703,-2.93164 1.20756,-1.18098 1.30562,-2.99427 -2.55664,-2.93359 -2.02049,0.0316 -4.02072,0.32263 -4.88672,1.88086 -0.72732,1.30867 -3.30716,2.82806 -5.56445,4.13476 -3.1553,1.82646 -6.13976,4.83741 -6.4668,6.39258 -0.3648,1.73504 -2.23922,3.76883 -3.68359,5.1875 -3.86939,3.8006 -9.57588,8.20201 -13.31055,12.7832 -1.89941,2.32984 -3.33122,4.66736 -6.69141,7.51954 -2.26371,1.92154 -4.45321,4.83578 -6.166014,7.06835 -3.544612,4.62014 -5.377939,5.63629 -8.046875,5.26368 -3.044608,-0.42499 -6.397911,3.5516 -7.74414,6.3164 -0.975006,2.0022 -2.007389,4.82945 -5.564453,5.86524 -1.684641,0.49052 -3.902671,0.29211 -5.865235,1.8789 -0.748179,0.60487 -3.031901,0.51434 -4.361328,0.37696 -3.657087,-0.37805 -4.505456,2.0348 -4.662109,3.75976 -0.204094,2.24701 0.09187,5.75291 -0.675782,7.74414 -0.694117,1.80126 0.310928,2.97506 1.728516,2.78125 0.507122,-0.0692 1.876765,1.01581 2.105469,1.35352 0.574823,0.84909 1.680631,1.3584 2.707031,0.75195 2.45318,-1.44961 2.59524,1.01664 3.158203,1.95508 0.290773,0.48479 0.675913,1.13631 0.902344,1.6543 1.227034,2.80691 3.809146,2.37883 5.564453,1.35351 0.751738,-0.43912 1.539602,-1.83778 3.458984,-2.70703 1.033318,-0.46789 2.141166,-1.41952 2.857422,-2.25586 1.440024,-1.68128 7.840482,-2.65104 13.986328,-0.52539 0.658932,0.22791 2.368576,1.2631 3.308596,1.72852 1.46384,0.72465 2.60472,1.99582 3.1582,2.70703 0.72732,0.93459 1.914,2.10299 3.00781,2.55664 0.69332,0.28751 1.40364,0.36194 2.10547,1.20312 2.60854,3.12694 1.92845,-2.18546 2.17969,-3.60937 0.2544,-1.44111 -0.0217,-6.08161 1.95508,-7.82031 0.64974,-0.57146 2.69777,-5.72335 1.73047,-8.26954 -2.14195,-5.63762 7.68576,-8.72683 10.97656,-2.40624 2.39161,4.59334 7.44268,2.91805 9.02344,0.2246 1.1202,-1.9088 5.74394,-3.73856 8.42187,-3.98437 2.70313,-0.24797 5.91493,-1.24695 7.9707,-4.28711 0.82833,-1.22476 5.41617,-4.186 7.82032,-2.33008 2.0192,1.55863 4.46916,1.02469 4.36133,-1.5039 -0.0702,-1.64431 2.69064,-3.28618 4.66211,-2.85743 2.32865,0.50643 3.64694,0.10759 4.36132,-1.05273 1.06978,-1.73762 3.70006,-0.3582 4.66211,0.90234 1.15687,1.51593 6.97343,0.53785 7.66992,-2.40625 0.18956,-0.80125 1.12443,-2.9155 5.86524,-5.03906 1.65045,-0.7394 5.25156,-3.63103 7.40039,-5.94922 l 0.7207,-0.69529 c 1.92584,-1.36539 7.21889,-1.29343 11.50391,-0.57422 3.12594,0.52471 5.94313,1.71948 9.09961,1.42969 2.46208,-0.22613 5.32346,0.3432 7.36914,1.05273 5.04849,1.75116 8.877,-0.23153 11.35351,-0.60156 4.34013,-0.64836 3.72939,2.70787 3.91016,5.03711 0.16268,2.09688 -0.89078,4.03946 -2.48242,5.41406 -0.93962,0.81153 -1.66521,2.05227 -2.33008,3.00781 -0.76873,1.10478 -2.86038,2.64147 -4.13477,3.3086 -2.69284,1.40969 -3.30871,2.64778 -1.95507,8.64844 0.35511,1.57405 0.56494,4.80651 0,7.06836 -0.71399,2.85869 1.24139,6.08215 3.1582,6.46484 2.15904,0.43112 3.67619,2.25207 4.05859,4.06055 0.26991,1.27705 1.48845,2.19878 2.48243,3.23437 0.59272,0.61752 1.37046,2.06981 1.95507,2.48047 2.82766,1.98599 3.61891,2.16786 4.28516,2.25586 1.86432,0.24491 3.97868,1.49235 5.41406,2.70703 1.29543,1.09618 2.27933,1.51871 3.3086,1.50391 0.97066,-0.0145 1.96561,0.83414 2.48242,0.90234 2.48243,0.32882 3.4024,-1.51891 4.51172,-2.48047 0.44713,-0.38753 1.99011,-2.45315 4.28515,-3.00781 3.0197,-0.7298 2.19844,-4.38059 2.18164,-8.49805 -0.0306,-7.55751 -0.19574,-5.93396 5.1875,-10.375 4.02139,-3.31749 5.63856,-4.10882 5.26368,-8.87304 -0.3906,-4.96467 2.66359,-5.02818 5.41406,-6.76758 2.72102,-1.72091 7.29598,-2.3215 10,-3.45899 1.60775,-0.67643 3.60432,0.0653 4.4375,-0.30078 11.36255,-4.99235 -0.82075,-11.96998 -4.06055,-13.61133 -1.4335,-0.72624 -3.71655,-1.68627 -4.73633,-2.70703 -1.15933,-1.16042 -3.97329,-2.72671 -5.18945,-3.45898 -2.21034,-1.331 -1.27737,-3.40469 -0.30078,-5.26367 0.74057,-1.40968 2.28727,-4.21701 3.1582,-5.78907 0.56799,-1.02524 3.23016,-2.72542 4.57227,-3.34375 l 0.9414,-0.34374 c 3.46044,-1.14546 4.1753,-1.68586 3.81055,3.38672 -0.12186,1.69452 0.16539,4.11565 1.05274,5.56445 3.37808,5.51568 3.1087,2.81964 8.87304,0.90235 0.96582,-0.32122 2.29485,-0.66053 3.3086,-0.75195 7.02617,-0.63333 3.45335,3.48185 1.80468,4.51171 -10.80769,6.75052 -3.32773,4.52936 1.50391,2.70704 3.00379,-1.13304 11.85152,-2.99849 12.70703,-3.15821 6.42407,-1.19956 17.33446,0.10703 23.83789,-0.75195 2.55143,-0.33702 4.42294,1.14641 5.11133,-4.58789 0.10792,-0.899 -0.19608,-3.11011 2.7832,-5.93945 1.46888,-1.39486 2.40516,-4.24837 2.48047,-7.66993 0.0445,-2.01613 1.68688,-4.36454 3.45899,-4.96289 1.27289,-0.42983 3.09839,-1.94019 5.64062,-3.08203 2.56437,-1.15172 6.22083,-1.49312 5.93945,4.28516 -0.085,1.75076 0.0247,6.36125 -0.15039,9.32422 -0.26616,4.51438 4.35691,10.95107 6.31641,5.86523 0.47984,-1.24542 -0.78398,-2.36496 2.55664,-4.36133 1.15143,-0.68819 1.99017,-2.42251 3.1582,-3.08203 1.40158,-0.79137 2.81391,-2.47412 2.55664,-5.33984 -0.1613,-1.79751 -0.0939,-4.21338 0,-6.01563 0.0919,-1.76114 -1.02193,-3.11099 -2.17968,-4.28515 -0.39426,-0.53079 -0.65879,-1.09469 -0.83399,-1.69336 l -0.10552,-1.00577 c -0.0728,-1.45149 0.23637,-2.99115 0.48828,-3.84375 0.77387,-2.61883 2.74801,-4.21902 4.51172,-5.1875 2.08689,-1.14599 5.36598,-0.86456 7.74414,-0.97852 3.30415,-0.15833 4.1318,1.58742 4.51172,3.60938 1.04647,5.57043 10.79315,0.54183 4.21094,-7.51953 -0.89682,-1.09836 -2.07737,-3.43987 -2.25586,-5.71485 -0.25717,-3.27717 -0.16345,-6.21418 3.1582,-7.74414 1.19125,-0.54863 2.86761,-1.18363 4.06055,-1.72851 4.98503,-2.27656 12.27735,-0.34433 7.14258,5.41211 -0.81726,0.91629 -2.91739,3.06212 -3.83399,3.98632 -1.55091,1.56406 -3.22402,0.34719 -3.23242,7.06836 0,2.75205 -0.0829,6.50044 0.0742,9.24805 0.0633,1.09499 0.57646,2.89509 1.05274,3.98633 0.52373,1.19985 0.60714,2.5342 0.45117,3.83398 -0.3392,2.82658 1.35279,3.85568 3.1582,3.60938 2.36957,-0.32329 4.46189,-2.16706 4.96289,-4.51172 0.19994,-0.93538 0.36713,-3.16627 3.5332,-5.03711 1.54707,-0.91412 3.62539,-3.14258 5.64063,-3.98633 2.50991,-1.05081 4.42104,-2.44848 3.91016,-8.49609 -0.254,-3.00655 0.44171,-6.89614 0.375,-9.32422 -0.0969,-3.50191 -0.53646,-7.8234 4.4375,-9.84961 1.81263,-0.7384 3.72062,-2.16742 5.48828,-3.00781 5.04423,-2.39833 2.58874,-4.89225 0.52734,-6.91797 -1.64075,-1.61249 -4.06364,-4.1218 -5.56445,-5.86524 -3.26155,-3.78874 -5.35991,-9.61759 -5.33985,-14.58789 0.0119,-2.93253 0.0256,-6.99493 -0.0742,-9.92578 -0.085,-2.48085 0.67906,-5.788 1.80469,-8.12109 1.03048,-1.94558 3.24231,-7.34296 3.29297,-7.49414 z M 418.56516,8.49165 c 0.21704,-4.70849 6.17312,-4.15887 8.72257,-1.27833 l 12.93333,14.58763 c 1.50486,1.69729 3.3161,2.95427 4.88758,4.81247 2.14511,2.5363 3.936,4.46733 5.71473,5.71473 2.83547,1.98836 5.58051,4.8009 8.27139,7.66978 2.10043,2.2394 3.86839,4.7756 6.24112,5.71473 1.14856,0.45464 2.26144,1.16032 3.38371,2.2558 0.71299,0.6959 1.38616,1.41532 2.63177,2.1806 1.20401,0.73978 1.1116,0.86935 2.48145,2.03026 2.19156,1.85741 5.63013,4.45498 8.12096,4.58683 2.88983,0.15299 5.75061,2.56881 8.19608,4.36128 3.76828,2.76194 8.07342,4.0038 12.10628,4.36129 4.90784,0.43497 12.89567,1.20015 15.48999,1.57898 4.77807,0.69778 10.22832,0.74235 11.50467,-0.67672 1.89941,-2.1118 4.20107,-2.4173 5.33876,-3.75968 1.63493,-1.92915 2.92838,-2.95536 3.23328,-4.58682 0.57542,-3.07871 2.17437,-5.45104 5.11323,-8.12096 5.83471,-5.30062 5.18349,-6.07963 4.88758,0.82714 -0.10398,2.42689 -0.58155,4.82581 -2.03017,6.46667 -1.4675,1.6621 -2.08522,3.17102 -2.7822,3.9101 -1.73801,1.84298 -1.68672,7.47903 -1.27833,10.45199 0.26794,1.94991 1.18345,4.4697 1.27833,5.48918 0.1186,1.27369 0.63284,2.63039 1.57908,3.68447 1.03382,1.15162 1.56347,1.98322 2.03027,2.93262 0.4327,0.88023 0.83545,1.83487 1.6542,2.70699 1.35562,1.44388 1.84643,3.15026 2.7822,4.58683 2.7145,4.16707 5.67252,5.6407 9.70004,3.98522 14.62707,-6.01223 4.10066,-0.54379 2.55656,2.18069 -2.04756,3.61291 -3.80346,6.64852 -8.27129,8.12096 -3.10855,1.02442 -6.23035,2.69493 -8.49693,5.41398 -2.48579,2.98174 -4.6144,4.843 -7.14348,1.72941 -4.21402,-5.18814 -6.53209,0.52125 -4.28607,3.23338 3.07771,3.71629 2.25788,3.16578 -0.90227,3.3085 -1.96216,0.089 -4.26373,0.2283 -6.46666,-0.60151 -4.04521,-1.52394 -7.83355,-3.41801 -11.80553,0.0751 -1.02719,0.90345 -1.03499,1.62326 -3.23328,3.38381 -4.04897,3.24247 -6.82375,6.49671 -9.62483,9.92559 -1.086,1.32933 -1.68573,3.01841 -2.85742,3.75967 -1.91769,1.2132 -2.59945,2.66647 -3.15816,4.28608 -0.76311,2.21202 -2.26975,3.33488 -3.00775,4.58682 -2.34238,3.97405 -2.43657,8.37487 -2.63177,13.98612 l -0.30075,8.64726 c -0.22199,6.38117 0.0237,6.30576 -4.9628,3.38371 -2.47571,-1.4506 -4.97159,-2.14857 -9.32408,-3.00774 -3.62309,-0.71517 -7.33423,-1.02957 -10.75273,-2.55656 -0.83921,-0.37489 -1.63187,-1.35513 -3.00775,-1.6543 -1.41492,-0.30767 -2.38953,-1.13858 -3.75977,-2.33102 -0.75984,-0.66131 -1.51573,-1.49231 -2.63178,-1.95505 -1.90731,-0.79068 -2.18741,-1.35641 -3.00774,-2.10538 -1.64451,-1.5015 -3.15115,-3.29199 -5.63951,-4.58683 -2.18445,-1.1367 -3.62774,-2.09352 -5.18844,-3.38371 -1.4077,-1.16378 -3.00863,-1.67515 -5.63951,-1.72951 -3.89924,-0.081 -7.56986,-0.37656 -11.12871,0.67672 -1.00831,0.29848 -2.89517,0.5768 -4.58682,0.97758 -3.91218,0.92667 -3.90685,1.76321 -5.03801,3.08295 l -8.12096,9.47441 c -3.06764,3.57881 -2.68722,2.88519 -3.91011,-0.22554 -1.02452,-2.60608 -1.63739,-4.14266 -2.93253,-5.86516 -1.33723,-1.77843 -2.83468,-3.38727 -6.6923,-3.30849 -1.22229,0.0247 -2.66963,0.35155 -4.4364,0.6015 -1.04804,0.14826 -1.96721,0.18621 -3.38381,1.35345 -0.83575,0.68878 -1.20628,0.9158 -2.03016,1.57908 -2.9609,2.3835 -2.36196,5.16867 -2.25591,7.82021 l 0.15043,3.75968 c 1.52571,3.81532 5.37987,5.29438 8.42171,5.94037 1.95081,0.41421 6.03377,0.45849 8.57215,0.15033 2.12722,-0.25816 3.21371,0.48448 3.08295,2.70698 l -0.15042,2.55666 c -0.0811,1.37302 1.09914,1.57098 2.03026,1.95505 3.41919,1.41018 6.41527,2.7234 8.94811,3.23329 3.84072,0.77338 3.38154,2.24622 1.80463,4.13574 -1.33299,1.59717 -2.57505,2.58819 -3.53414,3.83489 -1.58679,2.06259 -3.2743,2.19453 -5.18833,1.57909 -1.04716,-0.33673 -2.12693,-0.46828 -3.75968,-0.67682 -1.49181,-0.19046 -2.64285,-1.02245 -3.68456,-2.40614 -1.69176,-2.24731 -2.81798,-1.41245 -3.60935,-0.52639 -1.7643,1.97561 -3.65037,3.97859 -4.88758,6.16591 -0.79632,1.4079 -1.48312,2.30848 -0.97748,5.71473 0.3389,2.28328 -0.12453,4.04333 -0.5264,5.71473 -0.28009,1.16536 -1.24512,1.93528 -1.87983,2.7822 -1.35019,1.80156 -2.75512,1.80166 -4.4365,0.60151 -0.84247,-0.60132 -1.98935,-0.49833 -3.23329,-0.90227 -2.63236,-0.85492 -3.74544,-3.00418 -4.88758,-4.81246 -1.16289,-1.8409 -1.53362,-7.54921 0.97748,-9.47441 l 2.25581,-1.72951 c 1.48341,-1.05368 1.72091,-1.86314 1.80462,-3.75968 l -0.60151,-4.73725 c -0.20132,-1.58521 -0.96798,-2.57376 -3.38371,-4.66194 -0.79809,-0.68987 -1.21843,-1.92461 -2.2558,-2.55666 -1.53342,-0.93429 -3.11666,-1.82785 -4.4365,-3.15817 -0.73504,-0.74077 -1.70332,-1.53579 -3.00774,-2.10538 -2.51752,-1.09924 -2.3922,-2.33151 -2.55656,-4.51161 v -8.04585 c 0,-1.50852 -0.085,-3.08305 0.97747,-4.36119 0.66506,-0.80026 0.60813,-2.13453 1.57909,-3.38371 1.53688,-1.97748 2.17585,-2.99232 3.08295,-3.45892 1.36481,-0.70212 2.3159,-0.98439 3.08296,-1.6543 1.1531,-1.00702 1.92995,-1.33733 2.48144,-1.57908 1.59194,-0.69797 2.60114,-1.63265 3.3085,-2.25581 2.21914,-1.95505 4.13308,-3.88075 5.71473,-5.86515 2.24256,-2.81353 3.39537,-7.31783 0.60161,-9.3993 -1.94072,-1.44575 -3.14236,-2.98115 -3.60935,-4.81236 -0.43705,-1.7136 -1.21686,-3.5714 1.50387,-6.01549 2.24325,-2.01524 8.03982,-2.31234 11.1287,-0.82715 1.77251,0.85216 0.62167,3.27154 5.48919,2.78221 3.14621,-0.31637 6.63271,-0.0514 9.17365,-0.15043 5.31406,-0.20696 7.69439,-3.84448 8.42172,-7.2186 l 0.22564,-11.05359 c 0.0356,-1.76361 0.30787,-3.09225 -1.05279,-3.15807 -3.57594,-0.17316 -0.71467,-5.58624 0.15043,-6.31634 1.51079,-1.27497 2.09866,-1.94378 2.93253,-2.48144 1.26439,-0.81509 2.61309,-2.34575 2.55666,-4.81237 l -0.22564,-9.85038 c -0.0415,-1.81529 -0.16733,-2.79514 -1.27823,-3.23338 -1.94399,-0.76686 -1.08017,-2.22339 0.15032,-3.00784 1.41996,-0.90523 1.18266,-1.86738 1.20312,-2.93253 L 421.5729,53.232 c 0.0316,-1.65588 0.28929,-3.13375 1.35354,-4.4364 0.86669,-1.06069 0.95079,-3.26362 0.37597,-4.96279 -0.34058,-1.00663 -0.94624,-2.01781 -1.1279,-3.23338 -0.18472,-1.23564 -1.19828,-2.75878 -3.38371,-4.81237 -1.87351,-1.76055 -3.54867,-3.60075 -3.68456,-4.96279 -0.1105,-1.10854 -1.52651,-1.76411 -2.1806,-2.85742 -1.9087,-3.19009 -1.07858,-7.44108 0.60151,-9.62483 l 2.93263,-2.25581 c 1.55082,-1.19293 2.01593,-1.32972 2.03017,-2.33102 l 0.0751,-5.26355 z M 189.14825,582.3723 c 0.9157,0.69619 3.17813,1.74433 3.75977,0.75193 0.7126,-1.21596 2.03985,-1.33703 3.60925,-0.60151 0.84544,0.39623 1.58344,1.42115 3.15817,1.50388 3.21263,0.16881 3.3934,1.80828 3.45892,2.03026 0.36045,1.22002 3.83727,1.5946 5.03801,1.35345 3.55321,-0.71379 3.83153,0.62265 3.68446,1.87983 -0.31844,2.72192 1.30324,6.27384 2.78221,6.69231 1.55852,0.4409 2.17565,2.72132 2.48144,5.48909 0.27229,2.46494 -1.19412,4.83895 -2.70699,5.86515 -4.51013,3.05934 -9.99368,8.25331 -13.00864,12.55746 -0.70637,1.00842 -1.28969,3.37887 -2.40613,5.26355 -1.04449,1.76302 -1.48084,3.56162 -2.03027,5.33876 -0.6617,2.14027 -1.92866,4.16599 -4.51161,1.35355 -1.094,-1.19126 -3.12832,-1.77102 -4.66204,-4.21086 -0.73503,-1.16922 -2.50319,-2.2562 -3.60935,-3.08296 -1.85987,-1.39031 -4.02376,-2.35019 -7.51935,-2.18069 -2.03096,0.0988 -5.12449,-0.59577 -6.54188,2.55666 -0.53944,1.19956 -2.43065,3.11508 -4.21086,3.83489 -3.39023,1.37064 -6.85983,2.73545 -6.99306,7.66978 -0.0969,3.58099 -1.13393,5.1661 -2.48144,7.2186 -1.1199,1.70579 -2.52603,4.15265 -4.28608,5.63952 -2.39229,2.02117 -4.56844,4.63684 -2.55656,6.61709 1.31273,1.29217 2.41819,5.23726 -1.50387,4.51161 -1.82251,-0.33712 -4.57071,0.0791 -6.01548,1.6543 -1.8916,2.06209 -4.41535,3.02761 -6.16591,0 -1.13996,-1.97156 -2.87017,-4.47544 -4.21086,-6.31634 -1.69334,-2.32489 -4.14078,-3.03284 -6.16591,0.75204 -1.14975,2.14877 -6.25882,8.63391 -1.50397,-0.75204 0.95751,-1.88982 2.60074,-3.99826 2.93263,-6.09069 0.45029,-2.83923 0.86826,-5.27007 1.95505,-6.24113 1.48143,-1.32349 1.57335,-2.90189 0.67672,-3.60925 -1.06317,-0.83881 -1.65341,-3.28962 -2.48145,-4.36128 -3.57169,-4.62271 -6.68795,-2.7316 -11.05349,-2.70699 -9.70271,0.0544 -4.96328,-1.02037 0,-1.80462 6.15643,-0.97284 8.42103,-5.17569 11.88064,-8.19618 0.98568,-0.86046 2.24632,-2.28605 3.38381,-2.93253 2.37293,-1.3488 2.96495,-2.55478 3.15807,-4.4365 0.16674,-1.62435 0.9074,-3.45991 1.87984,-4.28607 1.82172,-1.54746 1.64619,-3.64691 1.6543,-4.13564 0.0524,-3.17468 1.93064,-5.75931 3.9101,-7.59457 4.44609,-4.1223 6.44344,-1.02472 8.8729,2.10538 1.74957,2.25422 3.89706,5.35151 6.31634,2.2559 1.60181,-2.04983 5.03197,-2.27261 6.16581,-2.10548 4.65275,0.68592 8.64894,-3.30582 8.72257,-5.94027 0.10259,-3.67388 -0.34533,-5.43828 4.36118,-8.12096 1.60904,-0.91709 3.60174,-2.57909 4.9629,-3.83489 2.3835,-2.19927 5.49768,-3.11933 7.82011,-1.35354 z M 65.378947,608.08863 c 0.209036,-0.20904 2.925116,6.45826 4.511613,9.32408 2.349403,4.24387 7.421607,7.91479 10.752736,8.3465 3.875522,0.50228 6.067777,-0.71843 6.692315,-1.42866 5.22856,-5.9463 14.781249,2.05191 8.421716,9.02333 -2.339321,2.56437 -3.745247,7.08063 2.932529,6.84263 3.830744,-0.13649 4.666984,3.22775 5.789944,4.88758 1.50209,2.22042 3.04154,5.6153 4.66204,7.51945 2.21499,2.60252 2.09619,6.50373 -0.30076,9.02323 -2.13602,2.24523 -2.1287,3.37847 -2.2558,5.03801 -0.2211,2.88686 -2.86374,5.54246 -4.13565,6.6923 -4.370277,3.95073 -4.524558,11.30404 -4.586923,13.3093 -0.155764,5.0135 -1.496853,5.78095 -2.556561,8.04575 -2.331019,4.98206 -1.862938,7.75992 -2.105379,10.67763 -0.448513,5.3961 0.317457,12.7212 -0.07511,18.1217 -0.162484,2.2341 -0.635409,5.5632 -1.579084,7.5946 -1.955942,4.2105 -5.453509,3.4994 -6.617092,1.0527 -0.904141,-1.9012 -4.010431,-4.3603 -5.714739,0.2256 -0.662984,1.7838 -0.617421,4.1266 -0.751935,5.7899 -0.264383,3.2674 -1.101712,4.446 -3.007742,5.414 -4.671231,2.3723 -6.16848,4.5424 -7.293814,5.1132 -5.901329,2.9932 -11.066042,0.7603 -3.684562,-6.1659 3.988776,-3.7428 2.615367,-7.7171 -0.451181,-10.2264 -3.57199,-2.9229 -3.571496,-1.0667 -3.684464,-6.5418 -0.0682,-3.3033 0.637583,-3.8146 2.481347,-3.6846 3.25305,0.2293 2.784079,-3.7245 -1.503871,-1.5039 -1.667245,0.8635 -3.630698,2.4571 -5.113121,3.6094 -5.341431,4.1517 -0.931321,8.3052 0.977476,10.5271 1.598258,1.8604 5.415161,4.9487 1.729511,10.076 -0.802835,1.1168 -3.691877,0.8269 -5.413975,0.4512 -2.23515,-0.4878 -6.00985,-1.5911 -7.369027,-1.4287 -5.270862,0.6295 -8.59191,-6.8269 -3.308595,-10.7527 3.798025,-2.8223 3.238521,-11.1602 -0.451082,-12.6327 -4.240706,-1.6923 -5.588616,-11.9986 -4.210858,-14.1364 3.819472,-5.92707 7.527953,-10.69259 10.677523,-13.98607 1.497348,-1.56584 3.344077,-3.9273 3.458923,-6.09079 0.312812,-5.89461 0.130363,-8.89889 -0.827149,-9.09844 -1.361055,-0.28366 -3.789822,-0.79859 -0.300755,-2.55656 0.928949,-0.46808 4.594536,-7.15604 0.526296,-11.73031 -2.419971,-2.72103 -5.087029,-6.97685 -6.466665,-9.92559 -1.893478,-4.04699 -8.18728,-6.34905 -9.173652,-0.30076 -0.284743,1.74582 -0.502081,8.56019 -0.451181,9.47441 0.244023,4.3767 2.863739,2.59778 4.210858,2.25581 6.782937,-1.72161 8.190542,3.64325 5.338762,6.39155 -1.308376,1.25955 -2.361066,2.89675 -3.534037,3.98522 -3.538485,3.28349 -6.575186,2.41068 -5.413975,-2.10538 1.014638,-3.94608 -0.652706,-7.34936 -5.865156,-2.40624 -1.786539,1.69413 -4.325408,4.0381 -5.940369,5.26355 -3.271335,2.48254 -6.770088,2.89142 -4.66204,-0.97747 1.638583,-3.00725 -1.872228,-6.64082 -3.834891,-8.04575 -2.233272,-1.59876 -3.087205,-8.06473 -1.353444,-9.32408 1.050417,-0.76301 5.184184,1.17327 5.865156,5.11322 0.43685,2.5274 1.621583,3.35505 3.15807,3.91 3.459614,1.24967 4.59414,-1.35947 3.458923,-3.75967 -1.173269,-2.48086 -4.927708,-6.20278 -6.616993,-6.16591 -3.030276,0.0633 -5.924951,-2.01238 -7.369027,-4.66204 -0.595578,-1.09282 -2.194825,-1.91493 -3.007742,-2.85732 -4.4163356,-5.12014 1.868078,-9.51858 6.316239,-7.66978 3.894586,1.61872 4.753362,2.60548 4.286071,-2.33102 -0.563951,-5.95786 3.626152,-5.05204 5.639516,-5.03801 3.58217,0.0257 5.519926,0.65923 5.940369,-3.38371 0.338806,-3.25779 3.070206,-4.98977 5.94037,-3.38381 3.695335,2.06793 6.59515,-2.02739 6.616992,-4.58682 0.01384,-1.66784 0.979058,-3.6392 3.684563,-6.46667 2.842787,-2.97087 5.727281,-4.80801 8.045749,-4.36118 2.365019,0.45573 3.099362,-0.0138 4.135645,-0.82715 0.730884,-0.57354 1.562678,-1.74246 2.481446,-1.87984 1.439332,-0.21536 2.284864,-0.66951 2.255807,-0.67682 z m 455.075763,53.13191 c 2.49083,-9.3141 11.2478,-3.49905 5.5643,3.00784 -1.79247,2.05211 -2.91335,4.50034 -4.96279,5.71473 -1.95901,1.16081 -4.15759,3.21075 -3.75968,4.28607 0.53608,1.44882 -0.0939,2.23465 -0.75194,2.7821 -3.05478,2.54114 -1.62217,3.89162 -0.22564,4.81247 2.91277,1.92056 2.1631,3.41978 -1.27823,4.66204 -4.3682,1.57681 -3.65175,3.87357 -2.40623,4.96277 6.2006,5.4228 -6.76821,13.4934 -6.91785,0.9024 -0.0227,-1.9655 3.49016,-1.9932 0.90237,-6.46678 -1.35374,-2.34011 -1.6121,-3.70245 1.72941,-6.01549 4.03444,-2.79257 3.93995,-6.89659 3.38371,-7.51935 -1.74819,-1.95752 -4.94688,-2.8334 1.05279,-3.45892 3.86187,-0.40275 5.85102,-0.86906 7.66978,-7.66988 z" />
  </g>
  <path
     inkscape:connector-curvature="0"
     style="fill:#999999;fill-opacity:1;fill-rule:nonzero;stroke:none"
     id="path5492"
     d="m 550,616.53395 c -65.502,0 -118.60181,53.0998 -118.60181,118.60181 h 2.53264 c 0,-64.10824 51.96094,-116.06917 116.06917,-116.06917 z" />
  <text
     style="font-style:normal;font-variant:normal;font-weight:normal;font-stretch:normal;font-size:30px;line-height:125%;font-family:Calibri;-inkscape-font-specification:Calibri;text-align:start;letter-spacing:0px;word-spacing:0px;writing-mode:lr-tb;text-anchor:start;fill:#000000;fill-opacity:1;stroke:none"
     xml:space="preserve"
     id="text5726"
     y="180.82928"
     x="67.882248"><tspan
       id="tspan5728"
       y="180.82928"
       x="67.882248" /></text>
</svg>
