<?xml version="1.0" encoding="UTF-8" standalone="no"?>
<!-- Created with Inkscape (http://www.inkscape.org/) -->

<svg
   xmlns:dc="http://purl.org/dc/elements/1.1/"
   xmlns:cc="http://creativecommons.org/ns#"
   xmlns:rdf="http://www.w3.org/1999/02/22-rdf-syntax-ns#"
   xmlns:svg="http://www.w3.org/2000/svg"
   xmlns="http://www.w3.org/2000/svg"
   xmlns:sodipodi="http://sodipodi.sourceforge.net/DTD/sodipodi-0.dtd"
   xmlns:inkscape="http://www.inkscape.org/namespaces/inkscape"
   version="1.1"
   width="120"
   height="120"
   id="svg2"
   sodipodi:docname="Regions_of_Japan_2.svg"
   inkscape:export-filename="/home/qwerty9118/Desktop/apps/eclipse-workspace/sakura_cast/android/assets/jpnTemp2.png"
   inkscape:export-xdpi="96"
   inkscape:export-ydpi="96"
   inkscape:version="0.92.5 (2060ec1f9f, 2020-04-08)">
  <sodipodi:namedview
     pagecolor="#ffffff"
     bordercolor="#666666"
     borderopacity="1"
     objecttolerance="10"
     gridtolerance="10"
     guidetolerance="10"
     inkscape:pageopacity="0"
     inkscape:pageshadow="2"
     inkscape:window-width="1280"
     inkscape:window-height="736"
     id="namedview375"
     showgrid="false"
     inkscape:zoom="4"
     inkscape:cx="60.860415"
     inkscape:cy="59.434253"
     inkscape:window-x="0"
     inkscape:window-y="0"
     inkscape:window-maximized="1"
     inkscape:current-layer="svg2"
     fit-margin-top="0"
     fit-margin-left="0"
     fit-margin-right="0"
     fit-margin-bottom="0" />
  <defs
     id="defs4" />
  <metadata
     id="metadata7">
    <rdf:RDF>
      <cc:Work
         rdf:about="">
        <dc:format>image/svg+xml</dc:format>
        <dc:type
           rdf:resource="http://purl.org/dc/dcmitype/StillImage" />
        <dc:title></dc:title>
      </cc:Work>
    </rdf:RDF>
  </metadata>
  <g
     id="g889"
     transform="translate(-190.44198,-504.78023)">
    <g
       id="g2989">
      <path
         style="fill:#9579ef;fill-opacity:1"
         d="m 227.64648,509.56055 c -1.3674,0.10382 -2.48248,1.31661 -3.9082,3.33203 -0.68393,0.96681 -1.57026,2.50273 -2.55664,3.1582 -2.42313,1.61012 -2.36257,2.73052 -7.36914,2.40625 -2.97592,-0.19263 -4.9939,-1.71807 -9.55078,-1.57812 -4.27859,0.12942 -4.14134,0.91596 -5.96875,2.13086 4.5094,5.08032 6.51562,8.98761 6.43164,12.48242 -0.0843,3.50821 -2.29348,6.42669 -5.83594,9.4707 -2.98879,2.5683 -3.83721,6.59975 -3.36719,10.7207 0.46948,4.11607 2.2776,8.27192 4.45508,10.88477 1.92584,-1.36539 7.21889,-1.29343 11.50391,-0.57422 3.12594,0.52471 5.94313,1.71948 9.09961,1.42969 2.46208,-0.22613 5.32346,0.3432 7.36914,1.05273 5.04849,1.75116 8.877,-0.23153 11.35351,-0.60156 4.34013,-0.64836 3.72939,2.70787 3.91016,5.03711 0.16268,2.09688 -0.89078,4.03946 -2.48242,5.41406 -0.93962,0.81153 -1.66521,2.05227 -2.33008,3.00781 -0.76873,1.10478 -2.86038,2.64147 -4.13477,3.3086 -2.69284,1.40969 -3.30871,2.64778 -1.95507,8.64844 0.35511,1.57405 0.56494,4.80651 0,7.06836 -0.71399,2.85869 1.24139,6.08215 3.1582,6.46484 2.15904,0.43112 3.67619,2.25207 4.05859,4.06055 0.26991,1.27705 1.48845,2.19878 2.48243,3.23437 0.59272,0.61752 1.37046,2.06981 1.95507,2.48047 2.82766,1.98599 3.61891,2.16786 4.28516,2.25586 1.86432,0.24491 3.97868,1.49235 5.41406,2.70703 1.29543,1.09618 2.27933,1.51871 3.3086,1.50391 0.97066,-0.0145 1.96561,0.83414 2.48242,0.90234 2.48243,0.32882 3.4024,-1.51891 4.51172,-2.48047 0.44713,-0.38753 1.99011,-2.45315 4.28515,-3.00781 3.0197,-0.7298 2.19844,-4.38059 2.18164,-8.49805 -0.0306,-7.55751 -0.19574,-5.93396 5.1875,-10.375 4.02139,-3.31749 5.63856,-4.10882 5.26368,-8.87304 -0.3906,-4.96467 2.66359,-5.02818 5.41406,-6.76758 2.72102,-1.72091 7.29598,-2.3215 10,-3.45899 1.60775,-0.67643 3.60432,0.0653 4.4375,-0.30078 11.36255,-4.99235 -0.82075,-11.96998 -4.06055,-13.61133 -1.4335,-0.72624 -3.71655,-1.68627 -4.73633,-2.70703 -1.15933,-1.16042 -3.97329,-2.72671 -5.18945,-3.45898 -2.21034,-1.331 -1.27737,-3.40469 -0.30078,-5.26367 0.74057,-1.40968 2.28727,-4.21701 3.1582,-5.78907 0.56799,-1.02524 3.23016,-2.72542 4.57227,-3.34375 l -0.0117,-0.0371 c -0.41262,-1.29788 -1.21268,-1.96152 -2.16602,-2.83593 -0.88587,-0.81253 -1.84201,-1.87052 -2.47656,-3.58985 -3.87187,0.31355 -6.41329,-0.2345 -8.05664,-1.97265 -1.70224,-1.80045 -2.44419,-4.64366 -3.24805,-8.66993 -0.17493,-0.87635 -0.5224,-1.19005 -1.04687,-1.76171 -0.52447,-0.57167 -1.17731,-1.35291 -1.64063,-2.8711 -1.04293,-3.41731 -2.86835,-6.0798 -4.23047,-8.17383 -0.81847,1.20571 -1.38774,2.11019 -2.89648,3.67383 -1.30105,1.3482 -2.44468,1.72796 -4.74414,4.57227 -0.94434,1.16816 -1.9135,1.4217 -2.92188,2.02148 -0.93263,0.55468 -1.81669,0.81824 -2.64843,1.83008 -1.16266,1.41443 -2.57047,2.30895 -4.90625,4.07617 l -0.0879,0.0664 -0.10743,0.0234 c -3.18539,0.68745 -6.1292,0.10445 -8.19335,-1.16407 -2.06417,-1.26851 -3.28805,-3.30118 -2.77344,-5.3789 l 0.0586,-0.24219 c -0.55491,-0.53865 -1.0785,-1.36723 -1.42578,-2.16406 -0.95168,-2.18336 -4.33841,-0.55252 -5.1875,2.33007 -0.97086,3.29625 -3.8119,2.43694 -4.8125,-3.1582 -0.19609,-1.09637 0.31399,-3.21449 0.45117,-5.41406 0.11079,-1.77774 -0.29701,-3.22175 -2.85742,-3.60938 -0.20727,-0.0314 -0.40817,-0.0383 -0.60352,-0.0234 z"
         id="rect4341-8"
         inkscape:connector-curvature="0" />
      <path
         inkscape:connector-curvature="0"
         style="fill:#ab91ff;fill-opacity:1;fill-rule:evenodd;stroke:none"
         id="path3585-8"
         d="m 215.46618,580.86843 c -0.15556,-2.3752 0.6193,-3.28745 1.27833,-4.58683 0.70549,-1.3911 1.7477,-1.86244 2.1806,-2.33102 0.55782,-0.60378 1.50673,-1.61259 1.87984,-2.48144 0.37853,-0.88132 2.0438,-1.34347 2.40623,-2.33102 0.34829,-0.94912 1.67851,-1.34189 2.7822,-0.97748 1.67555,0.55328 2.37036,2.06169 1.87984,3.60935 -0.21991,0.69342 -0.36796,1.94279 -0.60161,2.63177 -0.34414,1.01494 -0.83278,1.86264 -1.57908,2.63178 -1.83616,1.89239 -1.60083,3.58553 -1.57909,3.9101 0.39603,5.90736 -4.78835,6.26732 -6.91784,3.83489 -0.80729,-0.92213 -1.53145,-0.88754 -1.72942,-3.9101 z" />
    </g>
    <text
       id="text2907-5"
       y="552.97656"
       x="228.9375"
       style="font-style:normal;font-weight:normal;font-size:40px;line-height:1.25;font-family:sans-serif;letter-spacing:0px;word-spacing:0px;fill:#000000;fill-opacity:1;stroke:none"
       xml:space="preserve"><tspan
         id="tspan2975"
         style="font-size:10.66666698px"
         y="552.97656"
         x="228.9375"
         sodipodi:role="line">Kansai</tspan></text>
  </g>
</svg>
