<?xml version="1.0" encoding="UTF-8" standalone="no"?>
<!-- Created with Inkscape (http://www.inkscape.org/) -->

<svg
   xmlns:dc="http://purl.org/dc/elements/1.1/"
   xmlns:cc="http://creativecommons.org/ns#"
   xmlns:rdf="http://www.w3.org/1999/02/22-rdf-syntax-ns#"
   xmlns:svg="http://www.w3.org/2000/svg"
   xmlns="http://www.w3.org/2000/svg"
   xmlns:sodipodi="http://sodipodi.sourceforge.net/DTD/sodipodi-0.dtd"
   xmlns:inkscape="http://www.inkscape.org/namespaces/inkscape"
   version="1.1"
   width="110"
   height="110"
   id="svg2"
   sodipodi:docname="Regions_of_Japan_2.svg"
   inkscape:export-filename="/home/qwerty9118/Desktop/apps/eclipse-workspace/sakura_cast/android/assets/jpnTemp2.png"
   inkscape:export-xdpi="96"
   inkscape:export-ydpi="96"
   inkscape:version="0.92.5 (2060ec1f9f, 2020-04-08)">
  <sodipodi:namedview
     pagecolor="#ffffff"
     bordercolor="#666666"
     borderopacity="1"
     objecttolerance="10"
     gridtolerance="10"
     guidetolerance="10"
     inkscape:pageopacity="0"
     inkscape:pageshadow="2"
     inkscape:window-width="1280"
     inkscape:window-height="736"
     id="namedview375"
     showgrid="false"
     inkscape:zoom="4"
     inkscape:cx="65.305427"
     inkscape:cy="59.854494"
     inkscape:window-x="0"
     inkscape:window-y="0"
     inkscape:window-maximized="1"
     inkscape:current-layer="svg2"
     fit-margin-top="0"
     fit-margin-left="0"
     fit-margin-right="0"
     fit-margin-bottom="0" />
  <defs
     id="defs4" />
  <metadata
     id="metadata7">
    <rdf:RDF>
      <cc:Work
         rdf:about="">
        <dc:format>image/svg+xml</dc:format>
        <dc:type
           rdf:resource="http://purl.org/dc/dcmitype/StillImage" />
        <dc:title></dc:title>
      </cc:Work>
    </rdf:RDF>
  </metadata>
  <g
     id="g901"
     transform="translate(-346.77441,-420.74905)">
    <path
       sodipodi:nodetypes="ccccccccccccccscccccccccccccccccccscccccccccccccccccscccccccsccccsccc"
       inkscape:connector-curvature="0"
       id="rect4337-4"
       d="m 408.89844,421.87695 c -1.12293,-0.007 -2.19038,0.32543 -3.23828,0.89453 -2.7944,1.51764 -5.33408,4.76896 -7.60743,7.38868 -1.52729,1.76008 -3.76108,2.92178 -5.63085,4.23437 -3.14795,2.20989 -6.98155,1.74905 -11.14454,0.56055 l -0.29687,-0.0859 -0.0391,-0.19726 c -0.59529,-0.98395 -2.40807,-1.51693 -4.41797,-0.94922 -2.04244,0.57688 -4.19794,2.21939 -5.27149,5.37109 -0.98893,2.90325 -1.99506,5.18549 -3.36133,6.76172 -1.31093,1.51241 -3.02498,2.2852 -5.1621,2.25391 -2.7215,1.70635 -4.69106,4.46687 -7.37305,6.59765 -2.20319,1.75036 -3.41699,4.52009 -3.0625,6.82227 0.35448,2.30218 2.15867,4.2515 6.44336,4.54882 1.05744,0.074 1.90088,0.46602 2.5,1.07227 0.59912,0.60625 0.95145,1.39968 1.15625,2.25781 0.40961,1.71627 0.24907,3.73376 0.0547,5.41211 -0.50664,4.37335 0.66615,6.45053 2.71093,8.0918 2.21583,1.77849 4.19107,3.76451 6.80078,6.04297 2.44036,2.13066 5.5856,3.42927 9.72071,4.44726 l 0.0742,0.0176 0.0625,0.0391 c 1.51213,0.90373 3.1469,1.26119 4.37695,2.48438 2.07447,2.06293 2.1628,4.53272 1.2207,6.43945 -0.9421,1.90674 -2.81902,3.32668 -4.73242,3.58985 -1.29761,0.17847 -2.46832,0.99256 -3.26562,1.92382 -0.39865,0.46564 -0.70109,0.95802 -0.88086,1.38868 -0.11714,0.28106 -0.10354,0.44127 -0.11914,0.63086 0.45412,0.0387 0.91061,0.068 1.33203,0.14843 0.58018,0.11066 1.14605,0.31492 1.59961,0.75391 2.35555,2.27984 1.9305,4.43098 1.9375,5.49805 0.0198,2.85132 2.25186,5.14674 5.46679,5.23242 -0.0728,-1.45149 0.23637,-2.99115 0.48828,-3.84375 0.77387,-2.61883 2.74801,-4.21902 4.51172,-5.1875 2.08689,-1.14599 5.36598,-0.86456 7.74414,-0.97852 3.30415,-0.15833 4.1318,1.58742 4.51172,3.60938 1.04647,5.57043 10.79315,0.54183 4.21094,-7.51953 -0.89682,-1.09836 -2.07737,-3.43987 -2.25586,-5.71485 -0.25717,-3.27717 -0.16345,-6.21418 3.1582,-7.74414 1.19125,-0.54863 2.86761,-1.18363 4.06055,-1.72851 4.98503,-2.27656 12.27735,-0.34433 7.14258,5.41211 -0.81726,0.91629 -2.91739,3.06212 -3.83399,3.98632 -1.55091,1.56406 -3.22402,0.34719 -3.23242,7.06836 0,2.75205 -0.0829,6.50044 0.0742,9.24805 0.0633,1.09499 0.57646,2.89509 1.05274,3.98633 0.52373,1.19985 0.60714,2.5342 0.45117,3.83398 -0.3392,2.82658 1.35279,3.85568 3.1582,3.60938 2.36957,-0.32329 4.46189,-2.16706 4.96289,-4.51172 0.19994,-0.93538 0.36713,-3.16627 3.5332,-5.03711 1.54707,-0.91412 3.62539,-3.14258 5.64063,-3.98633 2.50991,-1.05081 4.42104,-2.44848 3.91016,-8.49609 -0.254,-3.00655 0.44171,-6.89614 0.375,-9.32422 -0.0969,-3.50191 -0.53646,-7.8234 4.4375,-9.84961 1.81263,-0.7384 3.72062,-2.16742 5.48828,-3.00781 5.04423,-2.39833 2.58874,-4.89225 0.52734,-6.91797 -1.64075,-1.61249 -4.06364,-4.1218 -5.56445,-5.86524 -3.26155,-3.78874 -5.35991,-9.61759 -5.33985,-14.58789 0.0119,-2.93253 0.0256,-6.99493 -0.0742,-9.92578 -0.085,-2.48085 0.67906,-5.788 1.80469,-8.12109 1.03048,-1.94558 3.24231,-7.34296 3.29297,-7.49414 -2.19615,-1.49889 -4.71405,-2.32579 -6.74414,-2.27149 -2.03008,0.0543 -3.65885,0.87431 -4.54102,2.59766 -0.31909,0.6234 -0.63097,1.27611 -1.02734,1.8457 -0.39637,0.5696 -0.89499,1.07426 -1.58203,1.30274 -0.68704,0.22847 -1.50589,0.14927 -2.44922,-0.27735 -0.94333,-0.42661 -2.04066,-1.19664 -3.39648,-2.41797 -2.83266,-2.55168 -5.53101,-5.06013 -8.07227,-7.84765 -1.87437,-2.05596 -3.58258,-3.06423 -5.13476,-3.39063 -0.38805,-0.0816 -0.76827,-0.12256 -1.14258,-0.125 z"
       style="fill:#87ef79;fill-opacity:1" />
    <text
       id="text2907-1"
       y="470.97656"
       x="377.9375"
       style="font-style:normal;font-weight:normal;font-size:40px;line-height:1.25;font-family:sans-serif;letter-spacing:0px;word-spacing:0px;fill:#000000;fill-opacity:1;stroke:none"
       xml:space="preserve"><tspan
         id="tspan2967"
         style="font-size:10.66666698px"
         y="470.97656"
         x="377.9375"
         sodipodi:role="line">Kanto</tspan></text>
  </g>
</svg>
