<?xml version="1.0" encoding="UTF-8" standalone="no"?>
<!-- Created with Inkscape (http://www.inkscape.org/) -->

<svg
   xmlns:dc="http://purl.org/dc/elements/1.1/"
   xmlns:cc="http://creativecommons.org/ns#"
   xmlns:rdf="http://www.w3.org/1999/02/22-rdf-syntax-ns#"
   xmlns:svg="http://www.w3.org/2000/svg"
   xmlns="http://www.w3.org/2000/svg"
   xmlns:sodipodi="http://sodipodi.sourceforge.net/DTD/sodipodi-0.dtd"
   xmlns:inkscape="http://www.inkscape.org/namespaces/inkscape"
   version="1.1"
   width="110"
   height="150"
   id="svg2"
   sodipodi:docname="Regions_of_Japan_2.svg"
   inkscape:export-filename="/home/qwerty9118/Desktop/apps/eclipse-workspace/sakura_cast/android/assets/jpnTemp2.png"
   inkscape:export-xdpi="96"
   inkscape:export-ydpi="96"
   inkscape:version="0.92.5 (2060ec1f9f, 2020-04-08)">
  <sodipodi:namedview
     pagecolor="#ffffff"
     bordercolor="#666666"
     borderopacity="1"
     objecttolerance="10"
     gridtolerance="10"
     guidetolerance="10"
     inkscape:pageopacity="0"
     inkscape:pageshadow="2"
     inkscape:window-width="1280"
     inkscape:window-height="736"
     id="namedview375"
     showgrid="false"
     inkscape:zoom="2"
     inkscape:cx="135.15806"
     inkscape:cy="117.14365"
     inkscape:window-x="0"
     inkscape:window-y="0"
     inkscape:window-maximized="1"
     inkscape:current-layer="svg2"
     fit-margin-top="0"
     fit-margin-left="0"
     fit-margin-right="0"
     fit-margin-bottom="0" />
  <defs
     id="defs4" />
  <metadata
     id="metadata7">
    <rdf:RDF>
      <cc:Work
         rdf:about="">
        <dc:format>image/svg+xml</dc:format>
        <dc:type
           rdf:resource="http://purl.org/dc/dcmitype/StillImage" />
        <dc:title></dc:title>
      </cc:Work>
    </rdf:RDF>
  </metadata>
  <g
     id="g872"
     transform="translate(-4.6284075,-604.04191)">
    <path
       d="m 65.378947,608.08863 c 0.209036,-0.20904 2.925116,6.45826 4.511613,9.32408 2.349403,4.24387 7.421607,7.91479 10.752736,8.3465 3.875522,0.50228 6.067777,-0.71843 6.692315,-1.42866 5.22856,-5.9463 14.781249,2.05191 8.421716,9.02333 -2.339321,2.56437 -3.745247,7.08063 2.932529,6.84263 3.830744,-0.13649 4.666984,3.22775 5.789944,4.88758 1.50209,2.22042 3.04154,5.6153 4.66204,7.51945 2.21499,2.60252 2.09619,6.50373 -0.30076,9.02323 -2.13602,2.24523 -2.1287,3.37847 -2.2558,5.03801 -0.2211,2.88686 -2.86374,5.54246 -4.13565,6.6923 -4.370277,3.95073 -4.524558,11.30404 -4.586923,13.3093 -0.155764,5.0135 -1.496853,5.78095 -2.556561,8.04575 -2.331019,4.98206 -1.862938,7.75992 -2.105379,10.67763 -0.448513,5.3961 0.317457,12.7212 -0.07511,18.1217 -0.162484,2.2341 -0.635409,5.5632 -1.579084,7.5946 -1.955942,4.2105 -5.453509,3.4994 -6.617092,1.0527 -0.904141,-1.9012 -4.010431,-4.3603 -5.714739,0.2256 -0.662984,1.7838 -0.617421,4.1266 -0.751935,5.7899 -0.264383,3.2674 -1.101712,4.446 -3.007742,5.414 -4.671231,2.3723 -6.16848,4.5424 -7.293814,5.1132 -5.901329,2.9932 -11.066042,0.7603 -3.684562,-6.1659 3.988776,-3.7428 2.615367,-7.7171 -0.451181,-10.2264 -3.57199,-2.9229 -3.571496,-1.0667 -3.684464,-6.5418 -0.0682,-3.3033 0.637583,-3.8146 2.481347,-3.6846 3.25305,0.2293 2.784079,-3.7245 -1.503871,-1.5039 -1.667245,0.8635 -3.630698,2.4571 -5.113121,3.6094 -5.341431,4.1517 -0.931321,8.3052 0.977476,10.5271 1.598258,1.8604 5.415161,4.9487 1.729511,10.076 -0.802835,1.1168 -3.691877,0.8269 -5.413975,0.4512 -2.23515,-0.4878 -6.00985,-1.5911 -7.369027,-1.4287 -5.270862,0.6295 -8.59191,-6.8269 -3.308595,-10.7527 3.798025,-2.8223 3.238521,-11.1602 -0.451082,-12.6327 -4.240706,-1.6923 -5.588616,-11.9986 -4.210858,-14.1364 3.819472,-5.92707 7.527953,-10.69259 10.677523,-13.98607 1.497348,-1.56584 3.344077,-3.9273 3.458923,-6.09079 0.312812,-5.89461 0.130363,-8.89889 -0.827149,-9.09844 -1.361055,-0.28366 -3.789822,-0.79859 -0.300755,-2.55656 0.928949,-0.46808 4.594536,-7.15604 0.526296,-11.73031 -2.419971,-2.72103 -5.087029,-6.97685 -6.466665,-9.92559 -1.893478,-4.04699 -8.18728,-6.34905 -9.173652,-0.30076 -0.284743,1.74582 -0.502081,8.56019 -0.451181,9.47441 0.244023,4.3767 2.863739,2.59778 4.210858,2.25581 6.782937,-1.72161 8.190542,3.64325 5.338762,6.39155 -1.308376,1.25955 -2.361066,2.89675 -3.534037,3.98522 -3.538485,3.28349 -6.575186,2.41068 -5.413975,-2.10538 1.014638,-3.94608 -0.652706,-7.34936 -5.865156,-2.40624 -1.786539,1.69413 -4.325408,4.0381 -5.940369,5.26355 -3.271335,2.48254 -6.770088,2.89142 -4.66204,-0.97747 1.638583,-3.00725 -1.872228,-6.64082 -3.834891,-8.04575 -2.233272,-1.59876 -3.087205,-8.06473 -1.353444,-9.32408 1.050417,-0.76301 5.184184,1.17327 5.865156,5.11322 0.43685,2.5274 1.621583,3.35505 3.15807,3.91 3.459614,1.24967 4.59414,-1.35947 3.458923,-3.75967 -1.173269,-2.48086 -4.927708,-6.20278 -6.616993,-6.16591 -3.030276,0.0633 -5.924951,-2.01238 -7.369027,-4.66204 -0.595578,-1.09282 -2.194825,-1.91493 -3.007742,-2.85732 -4.4163356,-5.12014 1.868078,-9.51858 6.316239,-7.66978 3.894586,1.61872 4.753362,2.60548 4.286071,-2.33102 -0.563951,-5.95786 3.626152,-5.05204 5.639516,-5.03801 3.58217,0.0257 5.519926,0.65923 5.940369,-3.38371 0.338806,-3.25779 3.070206,-4.98977 5.94037,-3.38381 3.695335,2.06793 6.59515,-2.02739 6.616992,-4.58682 0.01384,-1.66784 0.979058,-3.6392 3.684563,-6.46667 2.842787,-2.97087 5.727281,-4.80801 8.045749,-4.36118 2.365019,0.45573 3.099362,-0.0138 4.135645,-0.82715 0.730884,-0.57354 1.562678,-1.74246 2.481446,-1.87984 1.439332,-0.21536 2.284864,-0.66951 2.255807,-0.67682 z"
       id="path3240-6"
       style="fill:#b4b4b4;fill-opacity:1;fill-rule:evenodd;stroke:none"
       inkscape:connector-curvature="0" />
    <text
       id="text2907-18"
       y="673.47656"
       x="57.4375"
       style="font-style:normal;font-weight:normal;font-size:40px;line-height:1.25;font-family:sans-serif;letter-spacing:0px;word-spacing:0px;fill:#000000;fill-opacity:1;stroke:none"
       xml:space="preserve"><tspan
         style="font-size:10.66666698px"
         y="673.47656"
         x="57.4375"
         id="tspan2905-96"
         sodipodi:role="line">Kyushu</tspan></text>
  </g>
</svg>
