<?xml version="1.0" encoding="UTF-8" standalone="no"?>
<!-- Created with Inkscape (http://www.inkscape.org/) -->

<svg
   xmlns:dc="http://purl.org/dc/elements/1.1/"
   xmlns:cc="http://creativecommons.org/ns#"
   xmlns:rdf="http://www.w3.org/1999/02/22-rdf-syntax-ns#"
   xmlns:svg="http://www.w3.org/2000/svg"
   xmlns="http://www.w3.org/2000/svg"
   xmlns:sodipodi="http://sodipodi.sourceforge.net/DTD/sodipodi-0.dtd"
   xmlns:inkscape="http://www.inkscape.org/namespaces/inkscape"
   version="1.1"
   width="30"
   height="50"
   id="svg2"
   sodipodi:docname="Regions_of_Japan_2.svg"
   inkscape:export-filename="/home/qwerty9118/Desktop/apps/eclipse-workspace/sakura_cast/android/assets/jpnTemp2.png"
   inkscape:export-xdpi="96"
   inkscape:export-ydpi="96"
   inkscape:version="0.92.5 (2060ec1f9f, 2020-04-08)">
  <sodipodi:namedview
     pagecolor="#ffffff"
     bordercolor="#666666"
     borderopacity="1"
     objecttolerance="10"
     gridtolerance="10"
     guidetolerance="10"
     inkscape:pageopacity="0"
     inkscape:pageshadow="2"
     inkscape:window-width="1280"
     inkscape:window-height="736"
     id="namedview375"
     showgrid="false"
     inkscape:zoom="8"
     inkscape:cx="4.6884555"
     inkscape:cy="28.729347"
     inkscape:window-x="0"
     inkscape:window-y="0"
     inkscape:window-maximized="1"
     inkscape:current-layer="svg2"
     fit-margin-top="0"
     fit-margin-left="0"
     fit-margin-right="0"
     fit-margin-bottom="0" />
  <defs
     id="defs4" />
  <metadata
     id="metadata7">
    <rdf:RDF>
      <cc:Work
         rdf:about="">
        <dc:format>image/svg+xml</dc:format>
        <dc:type
           rdf:resource="http://purl.org/dc/dcmitype/StillImage" />
        <dc:title></dc:title>
      </cc:Work>
    </rdf:RDF>
  </metadata>
  <path
     inkscape:connector-curvature="0"
     style="fill:#b4b4b4;fill-opacity:1;fill-rule:evenodd;stroke:none"
     id="path3242-8"
     d="m 18.664301,8.5201889 c 2.49083,-9.31410054 11.2478,-3.4990505 5.5643,3.0078401 -1.79247,2.05211 -2.91335,4.500339 -4.96279,5.714729 -1.95901,1.16081 -4.15759,3.21075 -3.75968,4.28607 0.53608,1.44882 -0.0939,2.23465 -0.75194,2.7821 -3.05478,2.54114 -1.62217,3.89162 -0.22564,4.81247 2.91277,1.92056 2.1631,3.41978 -1.27823,4.66204 -4.3682,1.57681 -3.65175,3.87357 -2.40623,4.96277 6.2006,5.4228 -6.76821,13.4934 -6.91785,0.9024 -0.0227,-1.9655 3.49016,-1.9932 0.90237,-6.46678 -1.35374,-2.34011 -1.6121,-3.70245 1.72941,-6.01549 4.03444,-2.79257 3.93995,-6.89659 3.38371,-7.51935 -1.74819,-1.95752 -4.94688,-2.8334 1.05279,-3.45892 3.86187,-0.40275 5.85102,-0.86906 7.66978,-7.6698791 z" />
</svg>
