<?xml version="1.0" encoding="UTF-8" standalone="no"?>
<!-- Created with Inkscape (http://www.inkscape.org/) -->

<svg
   xmlns:dc="http://purl.org/dc/elements/1.1/"
   xmlns:cc="http://creativecommons.org/ns#"
   xmlns:rdf="http://www.w3.org/1999/02/22-rdf-syntax-ns#"
   xmlns:svg="http://www.w3.org/2000/svg"
   xmlns="http://www.w3.org/2000/svg"
   xmlns:sodipodi="http://sodipodi.sourceforge.net/DTD/sodipodi-0.dtd"
   xmlns:inkscape="http://www.inkscape.org/namespaces/inkscape"
   version="1.1"
   width="570"
   height="755"
   id="svg2"
   sodipodi:docname="Regions_of_Japan_1.svg"
   inkscape:export-filename="/home/qwerty9118/Desktop/apps/eclipse-workspace/sakura_cast/android/assets/jpnTemp2.png"
   inkscape:export-xdpi="96"
   inkscape:export-ydpi="96"
   inkscape:version="0.92.5 (2060ec1f9f, 2020-04-08)">
  <sodipodi:namedview
     pagecolor="#ffffff"
     bordercolor="#666666"
     borderopacity="1"
     objecttolerance="10"
     gridtolerance="10"
     guidetolerance="10"
     inkscape:pageopacity="0"
     inkscape:pageshadow="2"
     inkscape:window-width="1280"
     inkscape:window-height="736"
     id="namedview375"
     showgrid="false"
     inkscape:zoom="2"
     inkscape:cx="296.95319"
     inkscape:cy="324.75116"
     inkscape:window-x="0"
     inkscape:window-y="0"
     inkscape:window-maximized="1"
     inkscape:current-layer="svg2" />
  <defs
     id="defs4" />
  <metadata
     id="metadata7">
    <rdf:RDF>
      <cc:Work
         rdf:about="">
        <dc:format>image/svg+xml</dc:format>
        <dc:type
           rdf:resource="http://purl.org/dc/dcmitype/StillImage" />
        <dc:title></dc:title>
      </cc:Work>
    </rdf:RDF>
  </metadata>
  <path
     inkscape:connector-curvature="0"
     style="fill:#ef7979;fill-opacity:1;fill-rule:evenodd;stroke:none"
     id="path2920-3"
     d="m 418.56516,8.49165 c 0.21704,-4.70849 6.17312,-4.15887 8.72257,-1.27833 l 12.93333,14.58763 c 1.50486,1.69729 3.3161,2.95427 4.88758,4.81247 2.14511,2.5363 3.936,4.46733 5.71473,5.71473 2.83547,1.98836 5.58051,4.8009 8.27139,7.66978 2.10043,2.2394 3.86839,4.7756 6.24112,5.71473 1.14856,0.45464 2.26144,1.16032 3.38371,2.2558 0.71299,0.6959 1.38616,1.41532 2.63177,2.1806 1.20401,0.73978 1.1116,0.86935 2.48145,2.03026 2.19156,1.85741 5.63013,4.45498 8.12096,4.58683 2.88983,0.15299 5.75061,2.56881 8.19608,4.36128 3.76828,2.76194 8.07342,4.0038 12.10628,4.36129 4.90784,0.43497 12.89567,1.20015 15.48999,1.57898 4.77807,0.69778 10.22832,0.74235 11.50467,-0.67672 1.89941,-2.1118 4.20107,-2.4173 5.33876,-3.75968 1.63493,-1.92915 2.92838,-2.95536 3.23328,-4.58682 0.57542,-3.07871 2.17437,-5.45104 5.11323,-8.12096 5.83471,-5.30062 5.18349,-6.07963 4.88758,0.82714 -0.10398,2.42689 -0.58155,4.82581 -2.03017,6.46667 -1.4675,1.6621 -2.08522,3.17102 -2.7822,3.9101 -1.73801,1.84298 -1.68672,7.47903 -1.27833,10.45199 0.26794,1.94991 1.18345,4.4697 1.27833,5.48918 0.1186,1.27369 0.63284,2.63039 1.57908,3.68447 1.03382,1.15162 1.56347,1.98322 2.03027,2.93262 0.4327,0.88023 0.83545,1.83487 1.6542,2.70699 1.35562,1.44388 1.84643,3.15026 2.7822,4.58683 2.7145,4.16707 5.67252,5.6407 9.70004,3.98522 14.62707,-6.01223 4.10066,-0.54379 2.55656,2.18069 -2.04756,3.61291 -3.80346,6.64852 -8.27129,8.12096 -3.10855,1.02442 -6.23035,2.69493 -8.49693,5.41398 -2.48579,2.98174 -4.6144,4.843 -7.14348,1.72941 -4.21402,-5.18814 -6.53209,0.52125 -4.28607,3.23338 3.07771,3.71629 2.25788,3.16578 -0.90227,3.3085 -1.96216,0.089 -4.26373,0.2283 -6.46666,-0.60151 -4.04521,-1.52394 -7.83355,-3.41801 -11.80553,0.0751 -1.02719,0.90345 -1.03499,1.62326 -3.23328,3.38381 -4.04897,3.24247 -6.82375,6.49671 -9.62483,9.92559 -1.086,1.32933 -1.68573,3.01841 -2.85742,3.75967 -1.91769,1.2132 -2.59945,2.66647 -3.15816,4.28608 -0.76311,2.21202 -2.26975,3.33488 -3.00775,4.58682 -2.34238,3.97405 -2.43657,8.37487 -2.63177,13.98612 l -0.30075,8.64726 c -0.22199,6.38117 0.0237,6.30576 -4.9628,3.38371 -2.47571,-1.4506 -4.97159,-2.14857 -9.32408,-3.00774 -3.62309,-0.71517 -7.33423,-1.02957 -10.75273,-2.55656 -0.83921,-0.37489 -1.63187,-1.35513 -3.00775,-1.6543 -1.41492,-0.30767 -2.38953,-1.13858 -3.75977,-2.33102 -0.75984,-0.66131 -1.51573,-1.49231 -2.63178,-1.95505 -1.90731,-0.79068 -2.18741,-1.35641 -3.00774,-2.10538 -1.64451,-1.5015 -3.15115,-3.29199 -5.63951,-4.58683 -2.18445,-1.1367 -3.62774,-2.09352 -5.18844,-3.38371 -1.4077,-1.16378 -3.00863,-1.67515 -5.63951,-1.72951 -3.89924,-0.081 -7.56986,-0.37656 -11.12871,0.67672 -1.00831,0.29848 -2.89517,0.5768 -4.58682,0.97758 -3.91218,0.92667 -3.90685,1.76321 -5.03801,3.08295 l -8.12096,9.47441 c -3.06764,3.57881 -2.68722,2.88519 -3.91011,-0.22554 -1.02452,-2.60608 -1.63739,-4.14266 -2.93253,-5.86516 -1.33723,-1.77843 -2.83468,-3.38727 -6.6923,-3.30849 -1.22229,0.0247 -2.66963,0.35155 -4.4364,0.6015 -1.04804,0.14826 -1.96721,0.18621 -3.38381,1.35345 -0.83575,0.68878 -1.20628,0.9158 -2.03016,1.57908 -2.9609,2.3835 -2.36196,5.16867 -2.25591,7.82021 l 0.15043,3.75968 c 1.52571,3.81532 5.37987,5.29438 8.42171,5.94037 1.95081,0.41421 6.03377,0.45849 8.57215,0.15033 2.12722,-0.25816 3.21371,0.48448 3.08295,2.70698 l -0.15042,2.55666 c -0.0811,1.37302 1.09914,1.57098 2.03026,1.95505 3.41919,1.41018 6.41527,2.7234 8.94811,3.23329 3.84072,0.77338 3.38154,2.24622 1.80463,4.13574 -1.33299,1.59717 -2.57505,2.58819 -3.53414,3.83489 -1.58679,2.06259 -3.2743,2.19453 -5.18833,1.57909 -1.04716,-0.33673 -2.12693,-0.46828 -3.75968,-0.67682 -1.49181,-0.19046 -2.64285,-1.02245 -3.68456,-2.40614 -1.69176,-2.24731 -2.81798,-1.41245 -3.60935,-0.52639 -1.7643,1.97561 -3.65037,3.97859 -4.88758,6.16591 -0.79632,1.4079 -1.48312,2.30848 -0.97748,5.71473 0.3389,2.28328 -0.12453,4.04333 -0.5264,5.71473 -0.28009,1.16536 -1.24512,1.93528 -1.87983,2.7822 -1.35019,1.80156 -2.75512,1.80166 -4.4365,0.60151 -0.84247,-0.60132 -1.98935,-0.49833 -3.23329,-0.90227 -2.63236,-0.85492 -3.74544,-3.00418 -4.88758,-4.81246 -1.16289,-1.8409 -1.53362,-7.54921 0.97748,-9.47441 l 2.25581,-1.72951 c 1.48341,-1.05368 1.72091,-1.86314 1.80462,-3.75968 l -0.60151,-4.73725 c -0.20132,-1.58521 -0.96798,-2.57376 -3.38371,-4.66194 -0.79809,-0.68987 -1.21843,-1.92461 -2.2558,-2.55666 -1.53342,-0.93429 -3.11666,-1.82785 -4.4365,-3.15817 -0.73504,-0.74077 -1.70332,-1.53579 -3.00774,-2.10538 -2.51752,-1.09924 -2.3922,-2.33151 -2.55656,-4.51161 v -8.04585 c 0,-1.50852 -0.085,-3.08305 0.97747,-4.36119 0.66506,-0.80026 0.60813,-2.13453 1.57909,-3.38371 1.53688,-1.97748 2.17585,-2.99232 3.08295,-3.45892 1.36481,-0.70212 2.3159,-0.98439 3.08296,-1.6543 1.1531,-1.00702 1.92995,-1.33733 2.48144,-1.57908 1.59194,-0.69797 2.60114,-1.63265 3.3085,-2.25581 2.21914,-1.95505 4.13308,-3.88075 5.71473,-5.86515 2.24256,-2.81353 3.39537,-7.31783 0.60161,-9.3993 -1.94072,-1.44575 -3.14236,-2.98115 -3.60935,-4.81236 -0.43705,-1.7136 -1.21686,-3.5714 1.50387,-6.01549 2.24325,-2.01524 8.03982,-2.31234 11.1287,-0.82715 1.77251,0.85216 0.62167,3.27154 5.48919,2.78221 3.14621,-0.31637 6.63271,-0.0514 9.17365,-0.15043 5.31406,-0.20696 7.69439,-3.84448 8.42172,-7.2186 l 0.22564,-11.05359 c 0.0356,-1.76361 0.30787,-3.09225 -1.05279,-3.15807 -3.57594,-0.17316 -0.71467,-5.58624 0.15043,-6.31634 1.51079,-1.27497 2.09866,-1.94378 2.93253,-2.48144 1.26439,-0.81509 2.61309,-2.34575 2.55666,-4.81237 l -0.22564,-9.85038 c -0.0415,-1.81529 -0.16733,-2.79514 -1.27823,-3.23338 -1.94399,-0.76686 -1.08017,-2.22339 0.15032,-3.00784 1.41996,-0.90523 1.18266,-1.86738 1.20312,-2.93253 L 421.5729,53.232 c 0.0316,-1.65588 0.28929,-3.13375 1.35354,-4.4364 0.86669,-1.06069 0.95079,-3.26362 0.37597,-4.96279 -0.34058,-1.00663 -0.94624,-2.01781 -1.1279,-3.23338 -0.18472,-1.23564 -1.19828,-2.75878 -3.38371,-4.81237 -1.87351,-1.76055 -3.54867,-3.60075 -3.68456,-4.96279 -0.1105,-1.10854 -1.52651,-1.76411 -2.1806,-2.85742 -1.9087,-3.19009 -1.07858,-7.44108 0.60151,-9.62483 l 2.93263,-2.25581 c 1.55082,-1.19293 2.01593,-1.32972 2.03017,-2.33102 l 0.0751,-5.26355 z" />
  <path
     style="fill:#efe979;fill-opacity:1;stroke:none"
     d="m 413.31055,206.79297 c -2.14258,0.14155 -4.26001,1.78627 -3.99414,4.72265 0.17939,1.98164 -0.86751,3.83035 -1.50391,4.9629 -1.12389,2.00012 -3.70042,6.58689 -1.05273,7.66992 6.68124,2.73288 10.73428,-2.10585 11.88085,-3.45899 2.66558,-3.14592 5.72268,-3.34592 5.63868,1.50391 -0.0563,3.23605 0.78084,10.23144 -0.22461,11.80469 -2.25126,3.52257 -3.0231,3.12117 -4.8125,1.35351 -3.58899,-3.54541 -6.61183,-1.11821 -7.51953,1.58008 -1.54992,4.60709 -4.48504,3.22939 -5.71485,1.87891 -1.25589,-1.37895 -2.94759,-3.04397 -3.1582,-5.1875 -0.22821,-2.32133 0.37507,-6.35023 0,-7.44532 -1.02868,-3.00339 -2.57622,-6.66031 -6.61719,-4.43554 -0.92262,0.50802 -2.67679,1.2308 -3.91015,0.82617 -1.87697,-0.61574 -2.93762,4.0138 -3.00782,6.0918 -0.0367,1.0861 0.42319,11.04184 0.0762,12.33203 -0.86925,3.2318 -2.09509,6.42612 -6.99414,9.625 -0.933,0.60922 -2.46253,0.85489 -3.45898,1.35351 -2.01989,1.01058 -4.93022,2.7473 -1.50391,5.86524 0.93488,0.85077 1.78399,2.35865 2.40625,3.45898 0.51444,0.90947 1.81218,2.4996 3.08399,3.45899 1.83161,1.38141 2.11149,3.47765 2.17969,5.26171 0.0636,1.6623 -0.21679,4.55965 -0.30079,6.54297 -0.15547,3.66074 -2.7829,7.71144 -4.51171,8.94727 -1.67506,1.19748 -4.47166,3.81397 -4.66211,6.91797 -0.21339,3.4784 6.51164,6.49134 9.40039,0.15039 0.3815,-0.83733 0.72725,-1.56265 0.75195,-3.00781 0.10892,-5.96706 2.62498,-2.91053 2.0293,0.15039 -0.28455,1.46206 -0.0832,3.47483 -0.15039,4.96289 -0.0775,1.70618 0.65945,3.90071 1.95507,4.96289 1.26142,1.03372 1.20313,3.4828 1.20313,5.11328 0,3.95587 0.24323,11.93383 0,15.18945 -0.12977,1.73672 -0.62661,4.15844 -1.6543,5.56446 -1.54162,2.10914 -1.37107,5.25136 -1.05273,8.79687 0.19155,2.13354 -2.34595,9.35741 -4.51172,12.25781 -1.95564,2.61893 -3.40349,5.34294 -3.30859,8.19532 -0.0202,0.72783 -0.11886,1.40939 -0.36684,2.10191 2.08568,2.4475 5.52754,4.06415 7.84926,5.80043 3.18191,2.37958 5.42067,4.26601 6.22656,6.27344 0.40296,1.00371 0.40049,2.06054 -0.0742,3.07226 -0.47471,1.01173 -1.37816,1.98098 -2.73437,3.00391 -1.85117,1.39634 -2.65674,2.48726 -3.06055,3.50195 -0.40381,1.0147 -0.41247,2.01415 -0.54883,3.25391 -0.35391,3.21738 2.16837,7.07569 5.19727,8.75 l 0.48828,0.26953 -0.32031,0.45508 c -1.72356,2.45891 -2.76929,4.02821 -3.32227,5.33398 -0.55294,1.30577 -0.64769,2.35076 -0.46484,3.94531 0.42978,3.74802 -1.20194,6.3015 -3.19727,7.85547 -1.99532,1.55397 -4.30534,2.17579 -5.49609,2.30469 -2.53667,0.27462 -3.73079,1.00374 -4.35938,1.98438 -0.62854,0.98063 -0.71984,2.35025 -0.71484,3.97265 v 0.002 c 0.006,3.15781 0.25161,5.1548 0.69531,6.51954 0.4437,1.36474 1.06073,2.11345 1.94141,2.88281 2.64492,2.31062 3.2542,5.18093 3.78906,7.99609 3.94744,1.09787 7.31358,1.44358 10.0293,-0.46289 1.94365,-1.36445 4.10139,-2.51706 5.44922,-4.07031 2.2427,-2.58442 4.79518,-5.93534 7.88476,-7.61328 1.54479,-0.83894 3.25321,-1.25042 5.06641,-0.86914 1.81319,0.38128 3.69734,1.53592 5.66601,3.69531 2.50507,2.74782 5.17691,5.23446 8.00196,7.7793 1.31039,1.1804 2.34619,1.88877 3.14062,2.24804 0.79443,0.35928 1.31834,0.37469 1.72266,0.24024 0.40431,-0.13446 0.74552,-0.45063 1.07617,-0.92578 0.33065,-0.47515 0.63335,-1.09237 0.95898,-1.72852 1.05611,-2.06321 3.1047,-3.07922 5.40235,-3.14062 2.24975,-0.0602 4.7655,0.75138 7.07031,2.28711 0.36072,-1.55067 0.30409,-3.43422 3.17578,-6.86329 1.31806,-1.57375 2.11808,-4.92227 2.25586,-7.82031 0.093,-1.95594 0.20079,-4.99097 0.15039,-7.36914 -0.0413,-1.94724 -0.81388,-4.30252 -1.2793,-6.01562 -0.5251,-1.93341 -0.56557,-4.69387 -1.12695,-6.61719 -1.0858,-3.72054 -3.00635,-8.69318 -5.41406,-11.73047 -1.52502,-1.92382 -2.81475,-4.91767 -3.15821,-7.36719 -0.43348,-3.09096 -0.73571,-6.62647 -0.90234,-9.92578 -0.0904,-1.79079 1.05652,-4.56899 2.55664,-5.94141 2.28209,-2.08769 5.50237,-4.93374 7.74414,-6.16601 2.172,-1.19382 5.59586,-0.83176 6.84375,0.22656 0.63452,0.53806 1.44581,0.6366 2.25586,0.82617 2.87155,0.67168 3.17782,-2.39833 1.35352,-4.51172 -1.27892,-1.48162 -2.32259,-4.25645 -3.00781,-6.08984 -3.08552,-8.25577 0.25245,-18.66733 4.8125,-22.25781 1.24166,-0.97757 4.13146,-5.37816 4.35937,-6.76758 0.36164,-2.2047 1.47492,-5.72775 1.6543,-9.17383 0.0376,-0.72337 0.23978,-2.90648 0.75195,-4.36133 2.4,-6.81793 0.74039,-11.01925 -0.45117,-15.03906 -1.51395,-5.10729 -3.78073,-10.81858 -6.31445,-13.1582 -4.30644,-3.97672 -6.04559,-8.50794 -8.42188,-12.25586 -1.72239,-2.71657 -4.04692,-6.14752 -6.91797,-8.72266 -1.30403,-1.16971 -2.76739,-2.87191 -4.06055,-4.66211 -1.21774,-1.68573 -2.91632,-4.04467 -4.96289,-5.56445 -0.76241,-0.56613 -1.63752,-2.51521 -2.33203,-3.83594 -0.63462,-1.20677 -1.00427,-2.96512 -0.75195,-5.86523 0.16035,-1.84495 0.37263,-5.37251 0.22656,-7.21875 -0.30293,-3.83034 -1.51239,-3.98201 -1.95508,-5.1875 -0.54799,-1.49201 -0.40093,-3.22818 -0.52734,-4.8125 -0.0903,-1.13185 -0.29078,-2.36058 -0.30078,-5.71485 -0.0114,-3.95883 -1.87747,-3.46903 -4.58594,-1.5039 -1.99182,1.44516 -5.62241,1.66797 -8.27148,-1.80469 -0.7953,-1.04247 -2.08946,-1.49899 -3.375,-1.41406 z"
     id="rect4335-7"
     inkscape:connector-curvature="0"
     sodipodi:nodetypes="ccccccccccccccccccccccccccccccsccccccccccccccccccccccsccccccccccsscccccccccccccccccccccccccccccccccccc" />
  <path
     style="fill:#87ef79;fill-opacity:1"
     d="m 408.89844,421.87695 c -1.12293,-0.007 -2.19038,0.32543 -3.23828,0.89453 -2.7944,1.51764 -5.33408,4.76896 -7.60743,7.38868 -1.52729,1.76008 -3.76108,2.92178 -5.63085,4.23437 -3.14795,2.20989 -6.98155,1.74905 -11.14454,0.56055 l -0.29687,-0.0859 -0.0391,-0.19726 c -0.59529,-0.98395 -2.40807,-1.51693 -4.41797,-0.94922 -2.04244,0.57688 -4.19794,2.21939 -5.27149,5.37109 -0.98893,2.90325 -1.99506,5.18549 -3.36133,6.76172 -1.31093,1.51241 -3.02498,2.2852 -5.1621,2.25391 -2.7215,1.70635 -4.69106,4.46687 -7.37305,6.59765 -2.20319,1.75036 -3.41699,4.52009 -3.0625,6.82227 0.35448,2.30218 2.15867,4.2515 6.44336,4.54882 1.05744,0.074 1.90088,0.46602 2.5,1.07227 0.59912,0.60625 0.95145,1.39968 1.15625,2.25781 0.40961,1.71627 0.24907,3.73376 0.0547,5.41211 -0.50664,4.37335 0.66615,6.45053 2.71093,8.0918 2.21583,1.77849 4.19107,3.76451 6.80078,6.04297 2.44036,2.13066 5.5856,3.42927 9.72071,4.44726 l 0.0742,0.0176 0.0625,0.0391 c 1.51213,0.90373 3.1469,1.26119 4.37695,2.48438 2.07447,2.06293 2.1628,4.53272 1.2207,6.43945 -0.9421,1.90674 -2.81902,3.32668 -4.73242,3.58985 -1.29761,0.17847 -2.46832,0.99256 -3.26562,1.92382 -0.39865,0.46564 -0.70109,0.95802 -0.88086,1.38868 -0.11714,0.28106 -0.10354,0.44127 -0.11914,0.63086 0.45412,0.0387 0.91061,0.068 1.33203,0.14843 0.58018,0.11066 1.14605,0.31492 1.59961,0.75391 2.35555,2.27984 1.9305,4.43098 1.9375,5.49805 0.0198,2.85132 2.25186,5.14674 5.46679,5.23242 -0.0728,-1.45149 0.23637,-2.99115 0.48828,-3.84375 0.77387,-2.61883 2.74801,-4.21902 4.51172,-5.1875 2.08689,-1.14599 5.36598,-0.86456 7.74414,-0.97852 3.30415,-0.15833 4.1318,1.58742 4.51172,3.60938 1.04647,5.57043 10.79315,0.54183 4.21094,-7.51953 -0.89682,-1.09836 -2.07737,-3.43987 -2.25586,-5.71485 -0.25717,-3.27717 -0.16345,-6.21418 3.1582,-7.74414 1.19125,-0.54863 2.86761,-1.18363 4.06055,-1.72851 4.98503,-2.27656 12.27735,-0.34433 7.14258,5.41211 -0.81726,0.91629 -2.91739,3.06212 -3.83399,3.98632 -1.55091,1.56406 -3.22402,0.34719 -3.23242,7.06836 0,2.75205 -0.0829,6.50044 0.0742,9.24805 0.0633,1.09499 0.57646,2.89509 1.05274,3.98633 0.52373,1.19985 0.60714,2.5342 0.45117,3.83398 -0.3392,2.82658 1.35279,3.85568 3.1582,3.60938 2.36957,-0.32329 4.46189,-2.16706 4.96289,-4.51172 0.19994,-0.93538 0.36713,-3.16627 3.5332,-5.03711 1.54707,-0.91412 3.62539,-3.14258 5.64063,-3.98633 2.50991,-1.05081 4.42104,-2.44848 3.91016,-8.49609 -0.254,-3.00655 0.44171,-6.89614 0.375,-9.32422 -0.0969,-3.50191 -0.53646,-7.8234 4.4375,-9.84961 1.81263,-0.7384 3.72062,-2.16742 5.48828,-3.00781 5.04423,-2.39833 2.58874,-4.89225 0.52734,-6.91797 -1.64075,-1.61249 -4.06364,-4.1218 -5.56445,-5.86524 -3.26155,-3.78874 -5.35991,-9.61759 -5.33985,-14.58789 0.0119,-2.93253 0.0256,-6.99493 -0.0742,-9.92578 -0.085,-2.48085 0.67906,-5.788 1.80469,-8.12109 1.03048,-1.94558 3.24231,-7.34296 3.29297,-7.49414 -2.19615,-1.49889 -4.71405,-2.32579 -6.74414,-2.27149 -2.03008,0.0543 -3.65885,0.87431 -4.54102,2.59766 -0.31909,0.6234 -0.63097,1.27611 -1.02734,1.8457 -0.39637,0.5696 -0.89499,1.07426 -1.58203,1.30274 -0.68704,0.22847 -1.50589,0.14927 -2.44922,-0.27735 -0.94333,-0.42661 -2.04066,-1.19664 -3.39648,-2.41797 -2.83266,-2.55168 -5.53101,-5.06013 -8.07227,-7.84765 -1.87437,-2.05596 -3.58258,-3.06423 -5.13476,-3.39063 -0.38805,-0.0816 -0.76827,-0.12256 -1.14258,-0.125 z"
     id="rect4337-4"
     inkscape:connector-curvature="0"
     sodipodi:nodetypes="ccccccccccccccscccccccccccccccccccscccccccccccccccccscccccccsccccsccc" />
  <path
     style="fill:#efb179;fill-opacity:1;stroke:none"
     d="M 197.4375 519.54883 C 195.66323 520.62576 193.34133 522.15038 191.4043 522.36719 C 187.80533 522.77004 186.30536 524.77237 184.18555 525.52539 C 182.42184 526.1519 180.10774 526.91234 178.24609 527.10547 C 176.03091 527.33535 171.68296 527.36501 168.77148 527.10547 C 162.09173 526.50989 161.47758 530.1675 157.19141 530.71484 C 155.49076 530.93198 152.80115 530.57945 151.09961 530.78906 C 149.16364 531.02765 147.0504 529.17005 148.39258 527.85742 C 149.60014 526.67644 149.6982 524.86315 145.83594 524.92383 C 143.81545 524.95543 141.81522 525.24646 140.94922 526.80469 C 140.2219 528.11336 137.64206 529.63275 135.38477 530.93945 C 132.22947 532.76591 129.24501 535.77686 128.91797 537.33203 C 128.55317 539.06707 126.67875 541.10086 125.23438 542.51953 C 121.36499 546.32013 115.6585 550.72154 111.92383 555.30273 C 110.02442 557.63257 108.59261 559.97009 105.23242 562.82227 C 102.96871 564.74381 100.77921 567.65805 99.066406 569.89062 C 95.521794 574.51076 93.688467 575.52691 91.019531 575.1543 C 87.974923 574.72931 84.62162 578.7059 83.275391 581.4707 C 82.300385 583.4729 81.268002 586.30015 77.710938 587.33594 C 76.026297 587.82646 73.808267 587.62805 71.845703 589.21484 C 71.097524 589.81971 68.813802 589.72918 67.484375 589.5918 C 63.827288 589.21375 62.978919 591.6266 62.822266 593.35156 C 62.618172 595.59857 62.914136 599.10447 62.146484 601.0957 C 61.452367 602.89696 62.457412 604.07076 63.875 603.87695 C 64.382122 603.80775 65.751765 604.89276 65.980469 605.23047 C 66.555292 606.07956 67.6611 606.58887 68.6875 605.98242 C 71.14068 604.53281 71.28274 606.99906 71.845703 607.9375 C 72.136476 608.42229 72.521616 609.07381 72.748047 609.5918 C 73.975081 612.39871 76.557193 611.97063 78.3125 610.94531 C 79.064238 610.50619 79.852102 609.10753 81.771484 608.23828 C 82.804802 607.77039 83.91265 606.81876 84.628906 605.98242 C 86.06893 604.30114 92.469388 603.33138 98.615234 605.45703 C 99.274166 605.68494 100.98381 606.72013 101.92383 607.18555 C 103.38767 607.9102 104.52855 609.18137 105.08203 609.89258 C 105.80935 610.82717 106.99603 611.99557 108.08984 612.44922 C 108.78316 612.73673 109.49348 612.81116 110.19531 613.65234 C 112.80385 616.77928 112.12376 611.46688 112.375 610.04297 C 112.6294 608.60186 112.35333 603.96136 114.33008 602.22266 C 114.97982 601.6512 117.02785 596.49931 116.06055 593.95312 C 113.9186 588.3155 123.74631 585.22629 127.03711 591.54688 C 129.42872 596.14022 134.47979 594.46493 136.06055 591.77148 C 137.18075 589.86268 141.80449 588.03292 144.48242 587.78711 C 147.18555 587.53914 150.39735 586.54016 152.45312 583.5 C 153.28145 582.27524 157.86929 579.314 160.27344 581.16992 C 162.29264 582.72855 164.7426 582.19461 164.63477 579.66602 C 164.56457 578.02171 167.32541 576.37984 169.29688 576.80859 C 171.62553 577.31502 172.94382 576.91618 173.6582 575.75586 C 174.72798 574.01824 177.35826 575.39766 178.32031 576.6582 C 179.47718 578.17413 185.29374 577.19605 185.99023 574.25195 C 186.17979 573.4507 187.11466 571.33645 191.85547 569.21289 C 193.50592 568.47349 197.10703 565.58186 199.25586 563.26367 L 199.2168 563.21875 C 196.87832 560.41776 195.02123 556.12707 194.52734 551.79688 C 194.03345 547.46668 194.92637 543.04742 198.23633 540.20312 C 201.69563 537.23058 203.65001 534.56891 203.72461 531.4668 C 203.79919 528.36469 201.97201 524.64511 197.49805 519.61719 L 197.4375 519.54883 z "
     id="rect4343-0" />
  <g
     id="g2989">
    <path
       id="rect4341-8"
       d="M 227.64648 509.56055 C 226.27908 509.66437 225.164 510.87716 223.73828 512.89258 C 223.05435 513.85939 222.16802 515.39531 221.18164 516.05078 C 218.75851 517.6609 218.81907 518.7813 213.8125 518.45703 C 210.83658 518.2644 208.8186 516.73896 204.26172 516.87891 C 199.98313 517.00833 200.12038 517.79487 198.29297 519.00977 C 202.80237 524.09009 204.80859 527.99738 204.72461 531.49219 C 204.64027 535.0004 202.43113 537.91888 198.88867 540.96289 C 195.89988 543.53119 195.05146 547.56264 195.52148 551.68359 C 195.99096 555.79966 197.79908 559.95551 199.97656 562.56836 C 201.9024 561.20297 207.19545 561.27493 211.48047 561.99414 C 214.60641 562.51885 217.4236 563.71362 220.58008 563.42383 C 223.04216 563.1977 225.90354 563.76703 227.94922 564.47656 C 232.99771 566.22772 236.82622 564.24503 239.30273 563.875 C 243.64286 563.22664 243.03212 566.58287 243.21289 568.91211 C 243.37557 571.00899 242.32211 572.95157 240.73047 574.32617 C 239.79085 575.1377 239.06526 576.37844 238.40039 577.33398 C 237.63166 578.43876 235.54001 579.97545 234.26562 580.64258 C 231.57278 582.05227 230.95691 583.29036 232.31055 589.29102 C 232.66566 590.86507 232.87549 594.09753 232.31055 596.35938 C 231.59656 599.21807 233.55194 602.44153 235.46875 602.82422 C 237.62779 603.25534 239.14494 605.07629 239.52734 606.88477 C 239.79725 608.16182 241.01579 609.08355 242.00977 610.11914 C 242.60249 610.73666 243.38023 612.18895 243.96484 612.59961 C 246.7925 614.5856 247.58375 614.76747 248.25 614.85547 C 250.11432 615.10038 252.22868 616.34782 253.66406 617.5625 C 254.95949 618.65868 255.94339 619.08121 256.97266 619.06641 C 257.94332 619.05189 258.93827 619.90055 259.45508 619.96875 C 261.93751 620.29757 262.85748 618.44984 263.9668 617.48828 C 264.41393 617.10075 265.95691 615.03513 268.25195 614.48047 C 271.27165 613.75067 270.45039 610.09988 270.43359 605.98242 C 270.40295 598.42491 270.23785 600.04846 275.62109 595.60742 C 279.64248 592.28993 281.25965 591.4986 280.88477 586.73438 C 280.49417 581.76971 283.54836 581.7062 286.29883 579.9668 C 289.01985 578.24589 293.59481 577.6453 296.29883 576.50781 C 297.90658 575.83138 299.90315 576.57311 300.73633 576.20703 C 312.09888 571.21468 299.91558 564.23705 296.67578 562.5957 C 295.24228 561.86946 292.95923 560.90943 291.93945 559.88867 C 290.78012 558.72825 287.96616 557.16196 286.75 556.42969 C 284.53966 555.09869 285.47263 553.025 286.44922 551.16602 C 287.18979 549.75634 288.73649 546.94901 289.60742 545.37695 C 290.17541 544.35171 292.83758 542.65153 294.17969 542.0332 L 294.16797 541.99609 C 293.75535 540.69821 292.95529 540.03457 292.00195 539.16016 C 291.11608 538.34763 290.15994 537.28964 289.52539 535.57031 C 285.65352 535.88386 283.1121 535.33581 281.46875 533.59766 C 279.76651 531.79721 279.02456 528.954 278.2207 524.92773 C 278.04577 524.05138 277.6983 523.73768 277.17383 523.16602 C 276.64936 522.59435 275.99652 521.81311 275.5332 520.29492 C 274.49027 516.87761 272.66485 514.21512 271.30273 512.12109 C 270.48426 513.3268 269.91499 514.23128 268.40625 515.79492 C 267.1052 517.14312 265.96157 517.52288 263.66211 520.36719 C 262.71777 521.53535 261.74861 521.78889 260.74023 522.38867 C 259.8076 522.94335 258.92354 523.20691 258.0918 524.21875 C 256.92914 525.63318 255.52133 526.5277 253.18555 528.29492 L 253.09766 528.36133 L 252.99023 528.38477 C 249.80484 529.07222 246.86103 528.48922 244.79688 527.2207 C 242.73271 525.95219 241.50883 523.91952 242.02344 521.8418 L 242.08203 521.59961 C 241.52712 521.06096 241.00353 520.23238 240.65625 519.43555 C 239.70457 517.25219 236.31784 518.88303 235.46875 521.76562 C 234.49789 525.06187 231.65685 524.20256 230.65625 518.60742 C 230.46016 517.51105 230.97024 515.39293 231.10742 513.19336 C 231.21821 511.41562 230.81041 509.97161 228.25 509.58398 C 228.04273 509.55262 227.84183 509.54571 227.64648 509.56055 z "
       style="fill:#9579ef;fill-opacity:1" />
    <path
       d="m 215.46618,580.86843 c -0.15556,-2.3752 0.6193,-3.28745 1.27833,-4.58683 0.70549,-1.3911 1.7477,-1.86244 2.1806,-2.33102 0.55782,-0.60378 1.50673,-1.61259 1.87984,-2.48144 0.37853,-0.88132 2.0438,-1.34347 2.40623,-2.33102 0.34829,-0.94912 1.67851,-1.34189 2.7822,-0.97748 1.67555,0.55328 2.37036,2.06169 1.87984,3.60935 -0.21991,0.69342 -0.36796,1.94279 -0.60161,2.63177 -0.34414,1.01494 -0.83278,1.86264 -1.57908,2.63178 -1.83616,1.89239 -1.60083,3.58553 -1.57909,3.9101 0.39603,5.90736 -4.78835,6.26732 -6.91784,3.83489 -0.80729,-0.92213 -1.53145,-0.88754 -1.72942,-3.9101 z"
       id="path3585-8"
       style="fill:#ab91ff;fill-opacity:1;fill-rule:evenodd;stroke:none"
       inkscape:connector-curvature="0" />
  </g>
  <path
     inkscape:connector-curvature="0"
     style="fill:#cc79ef;fill-opacity:1;fill-rule:evenodd;stroke:none"
     id="path2468-0"
     d="m 189.14825,582.3723 c 0.9157,0.69619 3.17813,1.74433 3.75977,0.75193 0.7126,-1.21596 2.03985,-1.33703 3.60925,-0.60151 0.84544,0.39623 1.58344,1.42115 3.15817,1.50388 3.21263,0.16881 3.3934,1.80828 3.45892,2.03026 0.36045,1.22002 3.83727,1.5946 5.03801,1.35345 3.55321,-0.71379 3.83153,0.62265 3.68446,1.87983 -0.31844,2.72192 1.30324,6.27384 2.78221,6.69231 1.55852,0.4409 2.17565,2.72132 2.48144,5.48909 0.27229,2.46494 -1.19412,4.83895 -2.70699,5.86515 -4.51013,3.05934 -9.99368,8.25331 -13.00864,12.55746 -0.70637,1.00842 -1.28969,3.37887 -2.40613,5.26355 -1.04449,1.76302 -1.48084,3.56162 -2.03027,5.33876 -0.6617,2.14027 -1.92866,4.16599 -4.51161,1.35355 -1.094,-1.19126 -3.12832,-1.77102 -4.66204,-4.21086 -0.73503,-1.16922 -2.50319,-2.2562 -3.60935,-3.08296 -1.85987,-1.39031 -4.02376,-2.35019 -7.51935,-2.18069 -2.03096,0.0988 -5.12449,-0.59577 -6.54188,2.55666 -0.53944,1.19956 -2.43065,3.11508 -4.21086,3.83489 -3.39023,1.37064 -6.85983,2.73545 -6.99306,7.66978 -0.0969,3.58099 -1.13393,5.1661 -2.48144,7.2186 -1.1199,1.70579 -2.52603,4.15265 -4.28608,5.63952 -2.39229,2.02117 -4.56844,4.63684 -2.55656,6.61709 1.31273,1.29217 2.41819,5.23726 -1.50387,4.51161 -1.82251,-0.33712 -4.57071,0.0791 -6.01548,1.6543 -1.8916,2.06209 -4.41535,3.02761 -6.16591,0 -1.13996,-1.97156 -2.87017,-4.47544 -4.21086,-6.31634 -1.69334,-2.32489 -4.14078,-3.03284 -6.16591,0.75204 -1.14975,2.14877 -6.25882,8.63391 -1.50397,-0.75204 0.95751,-1.88982 2.60074,-3.99826 2.93263,-6.09069 0.45029,-2.83923 0.86826,-5.27007 1.95505,-6.24113 1.48143,-1.32349 1.57335,-2.90189 0.67672,-3.60925 -1.06317,-0.83881 -1.65341,-3.28962 -2.48145,-4.36128 -3.57169,-4.62271 -6.68795,-2.7316 -11.05349,-2.70699 -9.70271,0.0544 -4.96328,-1.02037 0,-1.80462 6.15643,-0.97284 8.42103,-5.17569 11.88064,-8.19618 0.98568,-0.86046 2.24632,-2.28605 3.38381,-2.93253 2.37293,-1.3488 2.96495,-2.55478 3.15807,-4.4365 0.16674,-1.62435 0.9074,-3.45991 1.87984,-4.28607 1.82172,-1.54746 1.64619,-3.64691 1.6543,-4.13564 0.0524,-3.17468 1.93064,-5.75931 3.9101,-7.59457 4.44609,-4.1223 6.44344,-1.02472 8.8729,2.10538 1.74957,2.25422 3.89706,5.35151 6.31634,2.2559 1.60181,-2.04983 5.03197,-2.27261 6.16581,-2.10548 4.65275,0.68592 8.64894,-3.30582 8.72257,-5.94027 0.10259,-3.67388 -0.34533,-5.43828 4.36118,-8.12096 1.60904,-0.91709 3.60174,-2.57909 4.9629,-3.83489 2.3835,-2.19927 5.49768,-3.11933 7.82011,-1.35354 z" />
  <path
     inkscape:connector-curvature="0"
     style="fill:#b4b4b4;fill-opacity:1;fill-rule:evenodd;stroke:none"
     id="path3240-6"
     d="m 65.378947,608.08863 c 0.209036,-0.20904 2.925116,6.45826 4.511613,9.32408 2.349403,4.24387 7.421607,7.91479 10.752736,8.3465 3.875522,0.50228 6.067777,-0.71843 6.692315,-1.42866 5.22856,-5.9463 14.781249,2.05191 8.421716,9.02333 -2.339321,2.56437 -3.745247,7.08063 2.932529,6.84263 3.830744,-0.13649 4.666984,3.22775 5.789944,4.88758 1.50209,2.22042 3.04154,5.6153 4.66204,7.51945 2.21499,2.60252 2.09619,6.50373 -0.30076,9.02323 -2.13602,2.24523 -2.1287,3.37847 -2.2558,5.03801 -0.2211,2.88686 -2.86374,5.54246 -4.13565,6.6923 -4.370277,3.95073 -4.524558,11.30404 -4.586923,13.3093 -0.155764,5.0135 -1.496853,5.78095 -2.556561,8.04575 -2.331019,4.98206 -1.862938,7.75992 -2.105379,10.67763 -0.448513,5.3961 0.317457,12.7212 -0.07511,18.1217 -0.162484,2.2341 -0.635409,5.5632 -1.579084,7.5946 -1.955942,4.2105 -5.453509,3.4994 -6.617092,1.0527 -0.904141,-1.9012 -4.010431,-4.3603 -5.714739,0.2256 -0.662984,1.7838 -0.617421,4.1266 -0.751935,5.7899 -0.264383,3.2674 -1.101712,4.446 -3.007742,5.414 -4.671231,2.3723 -6.16848,4.5424 -7.293814,5.1132 -5.901329,2.9932 -11.066042,0.7603 -3.684562,-6.1659 3.988776,-3.7428 2.615367,-7.7171 -0.451181,-10.2264 -3.57199,-2.9229 -3.571496,-1.0667 -3.684464,-6.5418 -0.0682,-3.3033 0.637583,-3.8146 2.481347,-3.6846 3.25305,0.2293 2.784079,-3.7245 -1.503871,-1.5039 -1.667245,0.8635 -3.630698,2.4571 -5.113121,3.6094 -5.341431,4.1517 -0.931321,8.3052 0.977476,10.5271 1.598258,1.8604 5.415161,4.9487 1.729511,10.076 -0.802835,1.1168 -3.691877,0.8269 -5.413975,0.4512 -2.23515,-0.4878 -6.00985,-1.5911 -7.369027,-1.4287 -5.270862,0.6295 -8.59191,-6.8269 -3.308595,-10.7527 3.798025,-2.8223 3.238521,-11.1602 -0.451082,-12.6327 -4.240706,-1.6923 -5.588616,-11.9986 -4.210858,-14.1364 3.819472,-5.92707 7.527953,-10.69259 10.677523,-13.98607 1.497348,-1.56584 3.344077,-3.9273 3.458923,-6.09079 0.312812,-5.89461 0.130363,-8.89889 -0.827149,-9.09844 -1.361055,-0.28366 -3.789822,-0.79859 -0.300755,-2.55656 0.928949,-0.46808 4.594536,-7.15604 0.526296,-11.73031 -2.419971,-2.72103 -5.087029,-6.97685 -6.466665,-9.92559 -1.893478,-4.04699 -8.18728,-6.34905 -9.173652,-0.30076 -0.284743,1.74582 -0.502081,8.56019 -0.451181,9.47441 0.244023,4.3767 2.863739,2.59778 4.210858,2.25581 6.782937,-1.72161 8.190542,3.64325 5.338762,6.39155 -1.308376,1.25955 -2.361066,2.89675 -3.534037,3.98522 -3.538485,3.28349 -6.575186,2.41068 -5.413975,-2.10538 1.014638,-3.94608 -0.652706,-7.34936 -5.865156,-2.40624 -1.786539,1.69413 -4.325408,4.0381 -5.940369,5.26355 -3.271335,2.48254 -6.770088,2.89142 -4.66204,-0.97747 1.638583,-3.00725 -1.872228,-6.64082 -3.834891,-8.04575 -2.233272,-1.59876 -3.087205,-8.06473 -1.353444,-9.32408 1.050417,-0.76301 5.184184,1.17327 5.865156,5.11322 0.43685,2.5274 1.621583,3.35505 3.15807,3.91 3.459614,1.24967 4.59414,-1.35947 3.458923,-3.75967 -1.173269,-2.48086 -4.927708,-6.20278 -6.616993,-6.16591 -3.030276,0.0633 -5.924951,-2.01238 -7.369027,-4.66204 -0.595578,-1.09282 -2.194825,-1.91493 -3.007742,-2.85732 -4.4163356,-5.12014 1.868078,-9.51858 6.316239,-7.66978 3.894586,1.61872 4.753362,2.60548 4.286071,-2.33102 -0.563951,-5.95786 3.626152,-5.05204 5.639516,-5.03801 3.58217,0.0257 5.519926,0.65923 5.940369,-3.38371 0.338806,-3.25779 3.070206,-4.98977 5.94037,-3.38381 3.695335,2.06793 6.59515,-2.02739 6.616992,-4.58682 0.01384,-1.66784 0.979058,-3.6392 3.684563,-6.46667 2.842787,-2.97087 5.727281,-4.80801 8.045749,-4.36118 2.365019,0.45573 3.099362,-0.0138 4.135645,-0.82715 0.730884,-0.57354 1.562678,-1.74246 2.481446,-1.87984 1.439332,-0.21536 2.284864,-0.66951 2.255807,-0.67682 z" />
  <path
     inkscape:connector-curvature="0"
     style="fill:#b4b4b4;fill-opacity:1;fill-rule:evenodd;stroke:none"
     id="path3242-8"
     d="m 520.45471,661.22054 c 2.49083,-9.3141 11.2478,-3.49905 5.5643,3.00784 -1.79247,2.05211 -2.91335,4.50034 -4.96279,5.71473 -1.95901,1.16081 -4.15759,3.21075 -3.75968,4.28607 0.53608,1.44882 -0.0939,2.23465 -0.75194,2.7821 -3.05478,2.54114 -1.62217,3.89162 -0.22564,4.81247 2.91277,1.92056 2.1631,3.41978 -1.27823,4.66204 -4.3682,1.57681 -3.65175,3.87357 -2.40623,4.96277 6.2006,5.4228 -6.76821,13.4934 -6.91785,0.9024 -0.0227,-1.9655 3.49016,-1.9932 0.90237,-6.46678 -1.35374,-2.34011 -1.6121,-3.70245 1.72941,-6.01549 4.03444,-2.79257 3.93995,-6.89659 3.38371,-7.51935 -1.74819,-1.95752 -4.94688,-2.8334 1.05279,-3.45892 3.86187,-0.40275 5.85102,-0.86906 7.66978,-7.66988 z" />
  <g
     id="g2985">
    <path
       id="rect4339-3"
       d="M 379.54102 357.89648 C 379.10232 359.00365 378.57422 360.07466 377.96094 360.85156 C 377.16947 361.85414 377.50505 367.67113 377.43359 370.47656 C 377.25836 377.34825 371.93837 385.76102 366.30469 388.52148 C 363.91832 389.69069 356.14468 396.92131 355.47656 402.2832 C 355.30192 403.68487 354.35122 406.32894 352.61914 408.82422 C 351.39626 410.58596 350.58245 414.00956 350.06445 415.5918 C 349.44169 417.49368 348.67518 419.7497 347.43164 421.23242 C 346.09885 422.82139 344.41939 425.26731 342.69531 426.41992 C 341.39781 427.2874 339.66515 428.56098 338.48438 429.72852 C 337.40638 430.79435 335.81157 432.12603 334.42383 432.73633 C 333.03905 433.34545 331.51157 434.42737 330.66406 435.36719 C 329.5327 436.6218 327.2816 437.28725 325.85156 438.60156 C 324.03498 440.27107 322.35957 440.53758 318.70703 441.75977 C 316.92049 442.35743 313.8428 441.85467 312.39062 442.96289 C 311.5775 443.58338 310.28745 445.22293 309.30859 445.51953 C 308.74316 445.69091 307.56982 446.947 307.57812 448.45117 C 307.59193 451.00071 305.23911 454.08235 300.88672 453.49023 C 296.10667 452.83989 292.76174 444.97215 294.11914 443.56445 C 296.05946 441.55237 295.18303 440.02085 292.31445 439.35352 C 289.16419 438.62056 291.16683 435.25293 293.36719 434.08984 C 295.45389 432.98665 299.21912 430.79323 300.73633 428.22461 C 301.14995 427.52426 302.4052 425.38974 303.06641 424.91602 C 303.83495 424.36541 305.11296 419.88369 303.89453 418.14844 C 302.03011 415.49315 296.4762 417.35993 295.17188 419.80273 C 294.43052 421.19126 293.37494 423.30447 287.80273 423.86328 C 286.2618 424.01786 283.06349 426.2365 282.08789 427.62305 C 281.36986 428.64362 280.2685 429.90419 279.38086 430.78125 C 276.16992 433.95424 278.30519 437.96979 279.98242 441.1582 C 281.35089 443.75973 283.08785 457.30544 279.75781 462.21289 C 278.92809 463.43577 278.02555 465.49797 277.20117 466.72461 C 274.53856 470.68631 270.60522 475.64505 267.80078 479.50781 C 266.33713 481.52365 264.02684 484.01099 262.98828 486.27539 C 261.80493 488.85538 259.8844 490.93276 258.25195 492.66602 C 255.4911 495.59756 257.20031 498.45814 260.13086 501.76367 C 261.50624 503.31488 265.84745 509.44138 258.10156 513.64453 C 256.94203 514.27371 254.19551 513.80807 253.13867 517.10352 C 252.74896 518.3186 251.42545 519.56632 250.35547 520.26172 C 249.30159 520.94655 247.83295 521.09504 246.44531 521.76562 C 245.57747 522.18499 244.26579 522.73487 242.97656 522.19922 C 242.65882 523.73404 243.5482 525.27815 245.32031 526.36719 C 247.11834 527.47216 249.78207 528.01423 252.69141 527.41016 C 254.95226 525.70583 256.30383 524.82059 257.32031 523.58398 C 258.31997 522.36788 259.43449 522.0027 260.23047 521.5293 C 261.3603 520.85728 262.10523 520.70258 262.88477 519.73828 C 265.25881 516.80172 266.53369 516.29719 267.6875 515.10156 C 269.39477 513.33217 269.87245 512.53516 270.93555 510.97656 L 271.36133 510.34961 L 271.76953 510.99023 C 273.1133 513.09583 275.30076 516.10449 276.49023 520.00195 C 276.90793 521.37064 277.40635 521.93896 277.91211 522.49023 C 278.41787 523.04151 278.98007 523.62477 279.20117 524.73242 C 279.99864 528.7267 280.76521 531.39548 282.19727 532.91016 C 283.62932 534.42483 285.7954 534.96586 289.7832 534.58594 L 290.1875 534.54883 L 290.30859 534.93359 C 290.86559 536.70033 291.74666 537.56984 292.67773 538.42383 C 293.60846 539.27749 294.62265 540.12337 295.12109 541.68945 C 298.58153 540.54399 299.29639 540.00359 298.93164 545.07617 C 298.80978 546.77069 299.09703 549.19182 299.98438 550.64062 C 303.36246 556.1563 303.09308 553.46026 308.85742 551.54297 C 309.82324 551.22175 311.15227 550.88244 312.16602 550.79102 C 319.19219 550.15769 315.61937 554.27287 313.9707 555.30273 C 303.16301 562.05325 310.64297 559.83209 315.47461 558.00977 C 318.4784 556.87673 327.32613 555.01128 328.18164 554.85156 C 334.60571 553.652 345.5161 554.95859 352.01953 554.09961 C 354.57096 553.76259 356.44247 555.24602 357.13086 549.51172 C 357.23878 548.61272 356.93478 546.40161 359.91406 543.57227 C 361.38294 542.17741 362.31922 539.3239 362.39453 535.90234 C 362.43903 533.88621 364.08141 531.5378 365.85352 530.93945 C 367.12641 530.50962 368.95191 528.99926 371.49414 527.85742 C 374.05851 526.7057 377.71497 526.3643 377.43359 532.14258 C 377.34859 533.89334 377.45829 538.50383 377.2832 541.4668 C 377.01704 545.98118 381.64011 552.41787 383.59961 547.33203 C 384.07945 546.08661 382.81563 544.96707 386.15625 542.9707 C 387.30768 542.28251 388.14642 540.54819 389.31445 539.88867 C 390.71603 539.0973 392.12836 537.41455 391.87109 534.54883 C 391.70979 532.75132 391.77719 530.33545 391.87109 528.5332 C 391.96299 526.77206 390.84916 525.42221 389.69141 524.24805 C 389.29715 523.71726 389.03262 523.15336 388.85742 522.55469 C 385.15028 522.47299 382.30866 519.71341 382.28516 516.32422 C 382.27616 514.99652 382.76135 513.57833 380.65234 511.53711 C 380.38262 511.27605 380.03906 511.13816 379.56055 511.04688 C 379.08204 510.95558 378.48676 510.92267 377.81445 510.85547 L 377.45312 510.82031 L 377.37695 510.4668 C 377.26775 509.96983 377.38295 509.44683 377.61133 508.90039 C 377.83943 508.35395 378.19531 507.78448 378.65625 507.24609 C 379.57813 506.16931 380.92928 505.20463 382.54492 504.98242 C 384.04706 504.77582 385.72752 503.54041 386.51758 501.94141 C 387.30763 500.3424 387.30227 498.45623 385.48828 496.65234 C 384.53487 495.70425 383.01125 495.31488 381.37109 494.34961 C 377.19598 493.31518 373.89411 491.9732 371.30078 489.70898 C 368.66258 487.40566 366.69101 485.42333 364.5332 483.69141 C 362.29489 481.8948 360.92043 479.30337 361.45312 474.70508 C 361.64371 473.05952 361.77286 471.11946 361.41992 469.64062 C 361.24345 468.90123 360.9528 468.28798 360.52344 467.85352 C 360.09408 467.41905 359.52449 467.13627 358.66602 467.07617 C 354.08354 466.75817 351.72789 464.43007 351.30469 461.68164 C 350.88149 458.93321 352.27364 455.87879 354.73438 453.92383 C 357.2806 451.90091 359.27214 449.07054 362.24219 447.22656 L 362.375 447.14453 L 362.5293 447.15234 C 364.54333 447.24834 365.92561 446.59616 367.13477 445.20117 C 368.34392 443.80618 369.33166 441.62804 370.30469 438.77148 C 371.47687 435.33022 373.90464 433.42276 376.25195 432.75977 C 377.42561 432.42827 378.60031 432.39096 379.59375 432.63867 C 379.95882 432.72967 380.28834 432.87135 380.5957 433.03906 C 380.10462 430.72044 379.4183 428.58337 377.37109 426.79492 C 376.41523 425.95989 375.63469 425.00237 375.13672 423.4707 C 374.63875 421.93904 374.39858 419.85043 374.39258 416.64258 C 374.38758 414.9894 374.44078 413.41379 375.26562 412.12695 C 376.09049 410.84012 377.66113 409.9796 380.35938 409.6875 C 381.32963 409.58246 383.5542 408.98617 385.34961 407.58789 C 387.14502 406.18961 388.55834 404.05613 388.16602 400.63477 C 387.9722 398.94454 388.08952 397.64108 388.70508 396.1875 C 389.27493 394.84188 390.36306 393.24552 391.875 391.07812 C 388.70414 389.11061 386.19132 385.28112 386.58984 381.6582 C 386.71944 380.47996 386.71744 379.36005 387.20117 378.14453 C 387.68491 376.92902 388.64866 375.67713 390.58984 374.21289 C 391.87193 373.24588 392.65226 372.37089 393.02148 371.58398 C 393.39072 370.79708 393.39113 370.10289 393.07227 369.30859 C 392.43452 367.72001 390.32683 365.82085 387.17383 363.46289 C 385.06327 361.88453 381.82327 360.45751 379.54102 357.89648 z "
       style="fill:#79efdb;fill-opacity:1" />
    <path
       d="m 338.48354,376.64155 c 2.21548,-6.70318 9.27841,-2.32124 5.86515,2.10538 -0.66644,0.86431 -0.81469,2.28852 -1.20311,3.30859 -1.53708,4.03711 0.44209,5.12934 1.57908,4.81237 2.97127,-0.82833 3.2741,1.94586 1.6543,4.51161 -1.40573,2.22656 -4.34666,4.35487 -6.01558,6.39155 -1.18059,1.44082 -3.41781,3.8769 -3.75968,-0.67682 -0.0652,-0.8653 0.18581,-2.29791 0.30075,-3.15807 0.3307,-2.47354 -0.61732,-3.41316 -1.27823,-3.60935 -1.57246,-0.46679 -3.05291,-2.82647 -0.97757,-5.038 1.13482,-1.20925 2.20728,-0.81213 2.18069,-3.75968 -0.0138,-1.58412 1.15706,-3.38341 1.6542,-4.88758 z"
       id="path3302-8"
       style="fill:#9df3e4;fill-opacity:1;fill-rule:evenodd;stroke:none"
       inkscape:connector-curvature="0" />
  </g>
  <g
     style="font-style:normal;font-weight:normal;font-size:9.88348389px;font-family:'Bitstream Vera Sans';fill:#000000;fill-opacity:1;stroke:none"
     id="text3295-9"
     transform="translate(0,-297.36214)">
    <path
       inkscape:connector-curvature="0"
       id="path3099"
       d="m 446.04908,408.99118 v -7.0748 h 0.93623 v 2.90521 h 3.67735 v -2.90521 h 0.93623 v 7.0748 h -0.93623 v -3.33471 h -3.67735 v 3.33471 z" />
    <path
       inkscape:connector-curvature="0"
       id="path3101"
       d="m 452.72815,406.42862 c 0,-0.9491 0.26382,-1.65207 0.79145,-2.10893 0.44077,-0.37963 0.97806,-0.56945 1.61186,-0.56946 0.70458,1e-5 1.28048,0.23085 1.72768,0.69252 0.4472,0.46168 0.6708,1.09951 0.6708,1.91348 0,0.65954 -0.0989,1.17833 -0.29679,1.55636 -0.19787,0.37803 -0.48581,0.6716 -0.86384,0.88073 -0.37803,0.20912 -0.79065,0.31368 -1.23785,0.31368 -0.71745,0 -1.29737,-0.23003 -1.73974,-0.6901 -0.44238,-0.46007 -0.66357,-1.12283 -0.66357,-1.98828 z m 0.8928,0 c 0,0.65632 0.14317,1.14776 0.42951,1.47432 0.28633,0.32655 0.64667,0.48983 1.081,0.48983 0.43111,0 0.78984,-0.16408 1.07618,-0.49225 0.28634,-0.32816 0.4295,-0.82845 0.42951,-1.50086 -1e-5,-0.6338 -0.14398,-1.11398 -0.43192,-1.44054 -0.28795,-0.32655 -0.64587,-0.48982 -1.07377,-0.48983 -0.43433,10e-6 -0.79467,0.16248 -1.081,0.48742 -0.28634,0.32495 -0.42951,0.81559 -0.42951,1.47191 z" />
    <path
       inkscape:connector-curvature="0"
       id="path3103"
       d="m 458.55786,408.99118 v -7.0748 h 0.86867 v 4.03447 l 2.05584,-2.0848 h 1.12444 l -1.95932,1.90142 2.15718,3.22371 h -1.07135 l -1.6939,-2.62047 -0.61289,0.58876 v 2.03171 z" />
    <path
       inkscape:connector-curvature="0"
       id="path3105"
       d="m 463.49961,408.99118 v -7.0748 h 0.86866 v 4.03447 l 2.05584,-2.0848 h 1.12444 l -1.95932,1.90142 2.15719,3.22371 h -1.07136 l -1.6939,-2.62047 -0.61289,0.58876 v 2.03171 z" />
    <path
       inkscape:connector-curvature="0"
       id="path3107"
       d="m 471.78088,408.35898 c -0.32173,0.27347 -0.63139,0.46651 -0.92899,0.57912 -0.2976,0.1126 -0.61691,0.1689 -0.95794,0.1689 -0.56303,0 -0.99575,-0.13754 -1.29817,-0.41261 -0.30243,-0.27508 -0.45364,-0.62657 -0.45364,-1.05447 0,-0.25094 0.0571,-0.48017 0.17132,-0.68769 0.11421,-0.20751 0.26382,-0.37401 0.44881,-0.49948 0.18499,-0.12547 0.39331,-0.22038 0.62496,-0.28473 0.17051,-0.045 0.42789,-0.0885 0.77215,-0.1303 0.70136,-0.0836 1.21773,-0.18338 1.54912,-0.29921 0.003,-0.11904 0.005,-0.19464 0.005,-0.22682 0,-0.35389 -0.082,-0.60323 -0.24612,-0.74802 -0.222,-0.19625 -0.55177,-0.29437 -0.98931,-0.29438 -0.4086,10e-6 -0.71022,0.0716 -0.90486,0.21476 -0.19465,0.14317 -0.33862,0.39653 -0.43192,0.76008 l -0.84937,-0.11582 c 0.0772,-0.36355 0.2043,-0.65713 0.38125,-0.88073 0.17695,-0.2236 0.43272,-0.39572 0.76732,-0.51638 0.3346,-0.12064 0.72228,-0.18096 1.16305,-0.18097 0.43755,1e-5 0.79306,0.0515 1.06653,0.15443 0.27346,0.10296 0.47454,0.23245 0.60324,0.38849 0.12868,0.15604 0.21877,0.3531 0.27025,0.59117 0.029,0.148 0.0434,0.41504 0.0434,0.80111 v 1.15822 c 0,0.80753 0.0185,1.31828 0.0555,1.53223 0.037,0.21395 0.11019,0.41905 0.21958,0.6153 h -0.90727 c -0.0901,-0.18017 -0.148,-0.3909 -0.17374,-0.6322 z m -0.0724,-1.94001 c -0.3153,0.12869 -0.78824,0.23808 -1.41882,0.32816 -0.35713,0.0515 -0.60968,0.10939 -0.75767,0.17373 -0.148,0.0643 -0.26221,0.15845 -0.34264,0.28232 -0.0804,0.12386 -0.12065,0.2614 -0.12065,0.41261 0,0.23165 0.0877,0.42469 0.26301,0.57911 0.17534,0.15443 0.43192,0.23165 0.76973,0.23165 0.3346,0 0.6322,-0.0732 0.8928,-0.21958 0.2606,-0.14639 0.45202,-0.34666 0.57428,-0.60083 0.0933,-0.19625 0.13995,-0.48581 0.13996,-0.86866 z" />
    <path
       inkscape:connector-curvature="0"
       id="path3109"
       d="m 473.9429,402.91535 v -0.99897 h 0.86866 v 0.99897 z m 0,6.07583 v -5.12513 h 0.86866 v 5.12513 z" />
    <path
       inkscape:connector-curvature="0"
       id="path3111"
       d="m 479.46375,408.99118 v -0.64667 c -0.32495,0.50833 -0.80271,0.76249 -1.4333,0.76249 -0.40859,0 -0.78421,-0.1126 -1.12685,-0.33781 -0.34264,-0.22521 -0.60807,-0.5397 -0.79628,-0.94347 -0.18821,-0.40377 -0.28231,-0.86786 -0.28231,-1.39228 0,-0.51154 0.0852,-0.97563 0.25577,-1.39227 0.17052,-0.41664 0.42629,-0.73595 0.76732,-0.95795 0.34103,-0.22199 0.72228,-0.33298 1.14374,-0.33299 0.30886,1e-5 0.58394,0.0652 0.82524,0.19545 0.24129,0.13031 0.43754,0.30002 0.58876,0.50914 v -2.53844 h 0.86384 v 7.0748 z m -2.74595,-2.55774 c 0,0.65633 0.13834,1.14696 0.41503,1.47191 0.27668,0.32494 0.60324,0.48742 0.97966,0.48742 0.37964,0 0.70217,-0.15524 0.9676,-0.4657 0.26542,-0.31047 0.39813,-0.78422 0.39814,-1.42124 -10e-6,-0.70136 -0.13513,-1.21613 -0.40538,-1.54429 -0.27025,-0.32816 -0.60324,-0.49224 -0.99896,-0.49225 -0.38608,10e-6 -0.70861,0.15765 -0.9676,0.47294 -0.25899,0.3153 -0.38849,0.81237 -0.38849,1.49121 z" />
    <path
       inkscape:connector-curvature="0"
       id="path3113"
       d="m 481.3169,406.42862 c 0,-0.9491 0.26382,-1.65207 0.79145,-2.10893 0.44077,-0.37963 0.97805,-0.56945 1.61186,-0.56946 0.70458,1e-5 1.28047,0.23085 1.72768,0.69252 0.4472,0.46168 0.6708,1.09951 0.6708,1.91348 0,0.65954 -0.0989,1.17833 -0.29679,1.55636 -0.19787,0.37803 -0.48582,0.6716 -0.86384,0.88073 -0.37804,0.20912 -0.79065,0.31368 -1.23785,0.31368 -0.71746,0 -1.29737,-0.23003 -1.73974,-0.6901 -0.44238,-0.46007 -0.66357,-1.12283 -0.66357,-1.98828 z m 0.8928,0 c 0,0.65632 0.14316,1.14776 0.4295,1.47432 0.28634,0.32655 0.64667,0.48983 1.08101,0.48983 0.43111,0 0.78984,-0.16408 1.07618,-0.49225 0.28633,-0.32816 0.4295,-0.82845 0.42951,-1.50086 -1e-5,-0.6338 -0.14398,-1.11398 -0.43192,-1.44054 -0.28795,-0.32655 -0.64588,-0.48982 -1.07377,-0.48983 -0.43434,10e-6 -0.79467,0.16248 -1.08101,0.48742 -0.28634,0.32495 -0.4295,0.81559 -0.4295,1.47191 z" />
  </g>
  <path
     inkscape:connector-curvature="0"
     style="fill:#999999;fill-opacity:1;fill-rule:nonzero;stroke:none"
     id="path5492"
     d="m 550,616.53395 c -65.502,0 -118.60181,53.0998 -118.60181,118.60181 h 2.53264 c 0,-64.10824 51.96094,-116.06917 116.06917,-116.06917 z" />
  <text
     style="font-style:normal;font-variant:normal;font-weight:normal;font-stretch:normal;font-size:30px;line-height:125%;font-family:Calibri;-inkscape-font-specification:Calibri;text-align:start;letter-spacing:0px;word-spacing:0px;writing-mode:lr-tb;text-anchor:start;fill:#000000;fill-opacity:1;stroke:none"
     xml:space="preserve"
     id="text5726"
     y="180.82928"
     x="67.882248"><tspan
       id="tspan5728"
       y="180.82928"
       x="67.882248" /></text>
  <text
     xml:space="preserve"
     style="font-style:normal;font-weight:normal;font-size:40px;line-height:1.25;font-family:sans-serif;letter-spacing:0px;word-spacing:0px;fill:#000000;fill-opacity:1;stroke:none"
     x="404.81863"
     y="286.71854"
     id="text2907"><tspan
       sodipodi:role="line"
       id="tspan2905"
       x="404.81863"
       y="286.71854"
       style="font-size:10.66666698px">Tohoku</tspan></text>
  <text
     xml:space="preserve"
     style="font-style:normal;font-weight:normal;font-size:40px;line-height:1.25;font-family:sans-serif;letter-spacing:0px;word-spacing:0px;fill:#000000;fill-opacity:1;stroke:none"
     x="295.4375"
     y="489.97656"
     id="text2907-7"><tspan
       sodipodi:role="line"
       x="295.4375"
       y="489.97656"
       style="font-size:10.66666698px"
       id="tspan2971">Chubu</tspan></text>
  <text
     xml:space="preserve"
     style="font-style:normal;font-weight:normal;font-size:40px;line-height:1.25;font-family:sans-serif;letter-spacing:0px;word-spacing:0px;fill:#000000;fill-opacity:1;stroke:none"
     x="377.9375"
     y="470.97656"
     id="text2907-1"><tspan
       sodipodi:role="line"
       x="377.9375"
       y="470.97656"
       style="font-size:10.66666698px"
       id="tspan2967">Kanto</tspan></text>
  <text
     xml:space="preserve"
     style="font-style:normal;font-weight:normal;font-size:40px;line-height:1.25;font-family:sans-serif;letter-spacing:0px;word-spacing:0px;fill:#000000;fill-opacity:1;stroke:none"
     x="228.9375"
     y="552.97656"
     id="text2907-5"><tspan
       sodipodi:role="line"
       x="228.9375"
       y="552.97656"
       style="font-size:10.66666698px"
       id="tspan2975">Kansai</tspan></text>
  <text
     xml:space="preserve"
     style="font-style:normal;font-weight:normal;font-size:40px;line-height:1.25;font-family:sans-serif;letter-spacing:0px;word-spacing:0px;fill:#000000;fill-opacity:1;stroke:none"
     x="125.4375"
     y="567.47656"
     id="text2907-75"><tspan
       sodipodi:role="line"
       x="125.4375"
       y="567.47656"
       style="font-size:10.66666698px"
       id="tspan2979">Chugoku</tspan></text>
  <text
     xml:space="preserve"
     style="font-style:normal;font-weight:normal;font-size:40px;line-height:1.25;font-family:sans-serif;letter-spacing:0px;word-spacing:0px;fill:#000000;fill-opacity:1;stroke:none"
     x="144.4375"
     y="621.47656"
     id="text2907-8"><tspan
       sodipodi:role="line"
       id="tspan2905-83"
       x="144.4375"
       y="621.47656"
       style="font-size:10.66666698px">Shikoku</tspan></text>
  <text
     xml:space="preserve"
     style="font-style:normal;font-weight:normal;font-size:40px;line-height:1.25;font-family:sans-serif;letter-spacing:0px;word-spacing:0px;fill:#000000;fill-opacity:1;stroke:none"
     x="57.4375"
     y="673.47656"
     id="text2907-18"><tspan
       sodipodi:role="line"
       id="tspan2905-96"
       x="57.4375"
       y="673.47656"
       style="font-size:10.66666698px">Kyushu</tspan></text>
</svg>
