<?xml version="1.0" encoding="UTF-8" standalone="no"?>
<!-- Created with Inkscape (http://www.inkscape.org/) -->

<svg
   xmlns:dc="http://purl.org/dc/elements/1.1/"
   xmlns:cc="http://creativecommons.org/ns#"
   xmlns:rdf="http://www.w3.org/1999/02/22-rdf-syntax-ns#"
   xmlns:svg="http://www.w3.org/2000/svg"
   xmlns="http://www.w3.org/2000/svg"
   xmlns:sodipodi="http://sodipodi.sourceforge.net/DTD/sodipodi-0.dtd"
   xmlns:inkscape="http://www.inkscape.org/namespaces/inkscape"
   version="1.1"
   width="110"
   height="90"
   id="svg2"
   sodipodi:docname="Regions_of_Japan_2.svg"
   inkscape:export-filename="/home/qwerty9118/Desktop/apps/eclipse-workspace/sakura_cast/android/assets/jpnTemp2.png"
   inkscape:export-xdpi="96"
   inkscape:export-ydpi="96"
   inkscape:version="0.92.5 (2060ec1f9f, 2020-04-08)">
  <sodipodi:namedview
     pagecolor="#ffffff"
     bordercolor="#666666"
     borderopacity="1"
     objecttolerance="10"
     gridtolerance="10"
     guidetolerance="10"
     inkscape:pageopacity="0"
     inkscape:pageshadow="2"
     inkscape:window-width="1280"
     inkscape:window-height="736"
     id="namedview375"
     showgrid="false"
     inkscape:zoom="1.4142136"
     inkscape:cx="166.72283"
     inkscape:cy="39.761155"
     inkscape:window-x="0"
     inkscape:window-y="0"
     inkscape:window-maximized="1"
     inkscape:current-layer="svg2"
     fit-margin-top="0"
     fit-margin-left="0"
     fit-margin-right="0"
     fit-margin-bottom="0" />
  <defs
     id="defs4" />
  <metadata
     id="metadata7">
    <rdf:RDF>
      <cc:Work
         rdf:about="">
        <dc:format>image/svg+xml</dc:format>
        <dc:type
           rdf:resource="http://purl.org/dc/dcmitype/StillImage" />
        <dc:title></dc:title>
      </cc:Work>
    </rdf:RDF>
  </metadata>
  <g
     id="g877"
     transform="translate(-108.7882,-577.72363)">
    <path
       d="m 189.14825,582.3723 c 0.9157,0.69619 3.17813,1.74433 3.75977,0.75193 0.7126,-1.21596 2.03985,-1.33703 3.60925,-0.60151 0.84544,0.39623 1.58344,1.42115 3.15817,1.50388 3.21263,0.16881 3.3934,1.80828 3.45892,2.03026 0.36045,1.22002 3.83727,1.5946 5.03801,1.35345 3.55321,-0.71379 3.83153,0.62265 3.68446,1.87983 -0.31844,2.72192 1.30324,6.27384 2.78221,6.69231 1.55852,0.4409 2.17565,2.72132 2.48144,5.48909 0.27229,2.46494 -1.19412,4.83895 -2.70699,5.86515 -4.51013,3.05934 -9.99368,8.25331 -13.00864,12.55746 -0.70637,1.00842 -1.28969,3.37887 -2.40613,5.26355 -1.04449,1.76302 -1.48084,3.56162 -2.03027,5.33876 -0.6617,2.14027 -1.92866,4.16599 -4.51161,1.35355 -1.094,-1.19126 -3.12832,-1.77102 -4.66204,-4.21086 -0.73503,-1.16922 -2.50319,-2.2562 -3.60935,-3.08296 -1.85987,-1.39031 -4.02376,-2.35019 -7.51935,-2.18069 -2.03096,0.0988 -5.12449,-0.59577 -6.54188,2.55666 -0.53944,1.19956 -2.43065,3.11508 -4.21086,3.83489 -3.39023,1.37064 -6.85983,2.73545 -6.99306,7.66978 -0.0969,3.58099 -1.13393,5.1661 -2.48144,7.2186 -1.1199,1.70579 -2.52603,4.15265 -4.28608,5.63952 -2.39229,2.02117 -4.56844,4.63684 -2.55656,6.61709 1.31273,1.29217 2.41819,5.23726 -1.50387,4.51161 -1.82251,-0.33712 -4.57071,0.0791 -6.01548,1.6543 -1.8916,2.06209 -4.41535,3.02761 -6.16591,0 -1.13996,-1.97156 -2.87017,-4.47544 -4.21086,-6.31634 -1.69334,-2.32489 -4.14078,-3.03284 -6.16591,0.75204 -1.14975,2.14877 -6.25882,8.63391 -1.50397,-0.75204 0.95751,-1.88982 2.60074,-3.99826 2.93263,-6.09069 0.45029,-2.83923 0.86826,-5.27007 1.95505,-6.24113 1.48143,-1.32349 1.57335,-2.90189 0.67672,-3.60925 -1.06317,-0.83881 -1.65341,-3.28962 -2.48145,-4.36128 -3.57169,-4.62271 -6.68795,-2.7316 -11.05349,-2.70699 -9.70271,0.0544 -4.96328,-1.02037 0,-1.80462 6.15643,-0.97284 8.42103,-5.17569 11.88064,-8.19618 0.98568,-0.86046 2.24632,-2.28605 3.38381,-2.93253 2.37293,-1.3488 2.96495,-2.55478 3.15807,-4.4365 0.16674,-1.62435 0.9074,-3.45991 1.87984,-4.28607 1.82172,-1.54746 1.64619,-3.64691 1.6543,-4.13564 0.0524,-3.17468 1.93064,-5.75931 3.9101,-7.59457 4.44609,-4.1223 6.44344,-1.02472 8.8729,2.10538 1.74957,2.25422 3.89706,5.35151 6.31634,2.2559 1.60181,-2.04983 5.03197,-2.27261 6.16581,-2.10548 4.65275,0.68592 8.64894,-3.30582 8.72257,-5.94027 0.10259,-3.67388 -0.34533,-5.43828 4.36118,-8.12096 1.60904,-0.91709 3.60174,-2.57909 4.9629,-3.83489 2.3835,-2.19927 5.49768,-3.11933 7.82011,-1.35354 z"
       id="path2468-0"
       style="fill:#cc79ef;fill-opacity:1;fill-rule:evenodd;stroke:none"
       inkscape:connector-curvature="0" />
    <text
       id="text2907-8"
       y="621.47656"
       x="144.4375"
       style="font-style:normal;font-weight:normal;font-size:40px;line-height:1.25;font-family:sans-serif;letter-spacing:0px;word-spacing:0px;fill:#000000;fill-opacity:1;stroke:none"
       xml:space="preserve"><tspan
         style="font-size:10.66666698px"
         y="621.47656"
         x="144.4375"
         id="tspan2905-83"
         sodipodi:role="line">Shikoku</tspan></text>
  </g>
</svg>
