<?xml version="1.0" encoding="UTF-8" standalone="no"?>
<!-- Created with Inkscape (http://www.inkscape.org/) -->

<svg
   xmlns:dc="http://purl.org/dc/elements/1.1/"
   xmlns:cc="http://creativecommons.org/ns#"
   xmlns:rdf="http://www.w3.org/1999/02/22-rdf-syntax-ns#"
   xmlns:svg="http://www.w3.org/2000/svg"
   xmlns="http://www.w3.org/2000/svg"
   xmlns:sodipodi="http://sodipodi.sourceforge.net/DTD/sodipodi-0.dtd"
   xmlns:inkscape="http://www.inkscape.org/namespaces/inkscape"
   version="1.1"
   width="100"
   height="230"
   id="svg2"
   sodipodi:docname="Regions_of_Japan_2.svg"
   inkscape:export-filename="/home/qwerty9118/Desktop/apps/eclipse-workspace/sakura_cast/android/assets/jpnTemp2.png"
   inkscape:export-xdpi="96"
   inkscape:export-ydpi="96"
   inkscape:version="0.92.5 (2060ec1f9f, 2020-04-08)">
  <sodipodi:namedview
     pagecolor="#ffffff"
     bordercolor="#666666"
     borderopacity="1"
     objecttolerance="10"
     gridtolerance="10"
     guidetolerance="10"
     inkscape:pageopacity="0"
     inkscape:pageshadow="2"
     inkscape:window-width="1280"
     inkscape:window-height="736"
     id="namedview375"
     showgrid="false"
     inkscape:zoom="2"
     inkscape:cx="71.929002"
     inkscape:cy="120.62128"
     inkscape:window-x="0"
     inkscape:window-y="0"
     inkscape:window-maximized="1"
     inkscape:current-layer="svg2"
     fit-margin-top="0"
     fit-margin-left="0"
     fit-margin-right="0"
     fit-margin-bottom="0" />
  <defs
     id="defs4" />
  <metadata
     id="metadata7">
    <rdf:RDF>
      <cc:Work
         rdf:about="">
        <dc:format>image/svg+xml</dc:format>
        <dc:type
           rdf:resource="http://purl.org/dc/dcmitype/StillImage" />
        <dc:title></dc:title>
      </cc:Work>
    </rdf:RDF>
  </metadata>
  <g
     id="g930"
     transform="translate(-375.39244,-205.06427)" />
  <text
     style="font-style:normal;font-variant:normal;font-weight:normal;font-stretch:normal;font-size:30px;line-height:125%;font-family:Calibri;-inkscape-font-specification:Calibri;text-align:start;letter-spacing:0px;word-spacing:0px;writing-mode:lr-tb;text-anchor:start;fill:#000000;fill-opacity:1;stroke:none"
     xml:space="preserve"
     id="text5726"
     y="-24.234985"
     x="-307.51019"><tspan
       id="tspan5728"
       y="-24.234985"
       x="-307.51019" /></text>
  <g
     id="g906"
     transform="translate(-371.46556,-205.92366)">
    <path
       sodipodi:nodetypes="ccccccccccccccccccccccccccccccsccccccccccccccccccccccsccccccccccsscccccccccccccccccccccccccccccccccccc"
       inkscape:connector-curvature="0"
       id="rect4335-7"
       d="m 413.31055,206.79297 c -2.14258,0.14155 -4.26001,1.78627 -3.99414,4.72265 0.17939,1.98164 -0.86751,3.83035 -1.50391,4.9629 -1.12389,2.00012 -3.70042,6.58689 -1.05273,7.66992 6.68124,2.73288 10.73428,-2.10585 11.88085,-3.45899 2.66558,-3.14592 5.72268,-3.34592 5.63868,1.50391 -0.0563,3.23605 0.78084,10.23144 -0.22461,11.80469 -2.25126,3.52257 -3.0231,3.12117 -4.8125,1.35351 -3.58899,-3.54541 -6.61183,-1.11821 -7.51953,1.58008 -1.54992,4.60709 -4.48504,3.22939 -5.71485,1.87891 -1.25589,-1.37895 -2.94759,-3.04397 -3.1582,-5.1875 -0.22821,-2.32133 0.37507,-6.35023 0,-7.44532 -1.02868,-3.00339 -2.57622,-6.66031 -6.61719,-4.43554 -0.92262,0.50802 -2.67679,1.2308 -3.91015,0.82617 -1.87697,-0.61574 -2.93762,4.0138 -3.00782,6.0918 -0.0367,1.0861 0.42319,11.04184 0.0762,12.33203 -0.86925,3.2318 -2.09509,6.42612 -6.99414,9.625 -0.933,0.60922 -2.46253,0.85489 -3.45898,1.35351 -2.01989,1.01058 -4.93022,2.7473 -1.50391,5.86524 0.93488,0.85077 1.78399,2.35865 2.40625,3.45898 0.51444,0.90947 1.81218,2.4996 3.08399,3.45899 1.83161,1.38141 2.11149,3.47765 2.17969,5.26171 0.0636,1.6623 -0.21679,4.55965 -0.30079,6.54297 -0.15547,3.66074 -2.7829,7.71144 -4.51171,8.94727 -1.67506,1.19748 -4.47166,3.81397 -4.66211,6.91797 -0.21339,3.4784 6.51164,6.49134 9.40039,0.15039 0.3815,-0.83733 0.72725,-1.56265 0.75195,-3.00781 0.10892,-5.96706 2.62498,-2.91053 2.0293,0.15039 -0.28455,1.46206 -0.0832,3.47483 -0.15039,4.96289 -0.0775,1.70618 0.65945,3.90071 1.95507,4.96289 1.26142,1.03372 1.20313,3.4828 1.20313,5.11328 0,3.95587 0.24323,11.93383 0,15.18945 -0.12977,1.73672 -0.62661,4.15844 -1.6543,5.56446 -1.54162,2.10914 -1.37107,5.25136 -1.05273,8.79687 0.19155,2.13354 -2.34595,9.35741 -4.51172,12.25781 -1.95564,2.61893 -3.40349,5.34294 -3.30859,8.19532 -0.0202,0.72783 -0.11886,1.40939 -0.36684,2.10191 2.08568,2.4475 5.52754,4.06415 7.84926,5.80043 3.18191,2.37958 5.42067,4.26601 6.22656,6.27344 0.40296,1.00371 0.40049,2.06054 -0.0742,3.07226 -0.47471,1.01173 -1.37816,1.98098 -2.73437,3.00391 -1.85117,1.39634 -2.65674,2.48726 -3.06055,3.50195 -0.40381,1.0147 -0.41247,2.01415 -0.54883,3.25391 -0.35391,3.21738 2.16837,7.07569 5.19727,8.75 l 0.48828,0.26953 -0.32031,0.45508 c -1.72356,2.45891 -2.76929,4.02821 -3.32227,5.33398 -0.55294,1.30577 -0.64769,2.35076 -0.46484,3.94531 0.42978,3.74802 -1.20194,6.3015 -3.19727,7.85547 -1.99532,1.55397 -4.30534,2.17579 -5.49609,2.30469 -2.53667,0.27462 -3.73079,1.00374 -4.35938,1.98438 -0.62854,0.98063 -0.71984,2.35025 -0.71484,3.97265 v 0.002 c 0.006,3.15781 0.25161,5.1548 0.69531,6.51954 0.4437,1.36474 1.06073,2.11345 1.94141,2.88281 2.64492,2.31062 3.2542,5.18093 3.78906,7.99609 3.94744,1.09787 7.31358,1.44358 10.0293,-0.46289 1.94365,-1.36445 4.10139,-2.51706 5.44922,-4.07031 2.2427,-2.58442 4.79518,-5.93534 7.88476,-7.61328 1.54479,-0.83894 3.25321,-1.25042 5.06641,-0.86914 1.81319,0.38128 3.69734,1.53592 5.66601,3.69531 2.50507,2.74782 5.17691,5.23446 8.00196,7.7793 1.31039,1.1804 2.34619,1.88877 3.14062,2.24804 0.79443,0.35928 1.31834,0.37469 1.72266,0.24024 0.40431,-0.13446 0.74552,-0.45063 1.07617,-0.92578 0.33065,-0.47515 0.63335,-1.09237 0.95898,-1.72852 1.05611,-2.06321 3.1047,-3.07922 5.40235,-3.14062 2.24975,-0.0602 4.7655,0.75138 7.07031,2.28711 0.36072,-1.55067 0.30409,-3.43422 3.17578,-6.86329 1.31806,-1.57375 2.11808,-4.92227 2.25586,-7.82031 0.093,-1.95594 0.20079,-4.99097 0.15039,-7.36914 -0.0413,-1.94724 -0.81388,-4.30252 -1.2793,-6.01562 -0.5251,-1.93341 -0.56557,-4.69387 -1.12695,-6.61719 -1.0858,-3.72054 -3.00635,-8.69318 -5.41406,-11.73047 -1.52502,-1.92382 -2.81475,-4.91767 -3.15821,-7.36719 -0.43348,-3.09096 -0.73571,-6.62647 -0.90234,-9.92578 -0.0904,-1.79079 1.05652,-4.56899 2.55664,-5.94141 2.28209,-2.08769 5.50237,-4.93374 7.74414,-6.16601 2.172,-1.19382 5.59586,-0.83176 6.84375,0.22656 0.63452,0.53806 1.44581,0.6366 2.25586,0.82617 2.87155,0.67168 3.17782,-2.39833 1.35352,-4.51172 -1.27892,-1.48162 -2.32259,-4.25645 -3.00781,-6.08984 -3.08552,-8.25577 0.25245,-18.66733 4.8125,-22.25781 1.24166,-0.97757 4.13146,-5.37816 4.35937,-6.76758 0.36164,-2.2047 1.47492,-5.72775 1.6543,-9.17383 0.0376,-0.72337 0.23978,-2.90648 0.75195,-4.36133 2.4,-6.81793 0.74039,-11.01925 -0.45117,-15.03906 -1.51395,-5.10729 -3.78073,-10.81858 -6.31445,-13.1582 -4.30644,-3.97672 -6.04559,-8.50794 -8.42188,-12.25586 -1.72239,-2.71657 -4.04692,-6.14752 -6.91797,-8.72266 -1.30403,-1.16971 -2.76739,-2.87191 -4.06055,-4.66211 -1.21774,-1.68573 -2.91632,-4.04467 -4.96289,-5.56445 -0.76241,-0.56613 -1.63752,-2.51521 -2.33203,-3.83594 -0.63462,-1.20677 -1.00427,-2.96512 -0.75195,-5.86523 0.16035,-1.84495 0.37263,-5.37251 0.22656,-7.21875 -0.30293,-3.83034 -1.51239,-3.98201 -1.95508,-5.1875 -0.54799,-1.49201 -0.40093,-3.22818 -0.52734,-4.8125 -0.0903,-1.13185 -0.29078,-2.36058 -0.30078,-5.71485 -0.0114,-3.95883 -1.87747,-3.46903 -4.58594,-1.5039 -1.99182,1.44516 -5.62241,1.66797 -8.27148,-1.80469 -0.7953,-1.04247 -2.08946,-1.49899 -3.375,-1.41406 z"
       style="fill:#efe979;fill-opacity:1;stroke:none" />
    <text
       id="text2907"
       y="286.71854"
       x="404.81863"
       style="font-style:normal;font-weight:normal;font-size:40px;line-height:1.25;font-family:sans-serif;letter-spacing:0px;word-spacing:0px;fill:#000000;fill-opacity:1;stroke:none"
       xml:space="preserve"><tspan
         style="font-size:10.66666698px"
         y="286.71854"
         x="404.81863"
         id="tspan2905"
         sodipodi:role="line">Tohoku</tspan></text>
  </g>
</svg>
